{"glyphs":{"0":{"ha":1019,"x_min":0,"x_max":0,"o":"m 510 -17 b 961 486 793 -17 961 171 b 510 989 961 801 793 989 b 58 486 226 989 58 801 b 510 -17 58 171 226 -17 z m 510 767 b 681 593 617 767 681 703 l 681 379 b 510 206 681 271 617 206 b 339 379 403 206 339 271 l 339 593 b 510 767 339 703 403 767 z "},"1":{"ha":804,"x_min":0,"x_max":0,"o":"m 49 0 l 792 0 l 792 243 l 567 243 l 567 972 l 324 972 l 49 889 l 49 872 l 268 939 b 303 919 289 946 303 942 l 303 243 l 49 243 z "},"2":{"ha":894,"x_min":0,"x_max":0,"o":"m 31 6 l 31 0 l 847 0 l 847 243 l 382 243 b 372 253 375 243 372 247 b 382 267 372 258 375 261 l 449 318 b 658 458 532 382 581 414 b 851 713 797 538 851 601 b 443 989 851 879 719 989 b 31 678 201 989 31 865 l 31 607 l 296 607 l 296 667 b 443 775 296 738 347 775 b 582 653 533 775 582 732 l 582 589 b 435 329 582 496 551 424 z "},"3":{"ha":918,"x_min":0,"x_max":0,"o":"m 878 265 b 564 497 878 453 710 488 b 864 717 740 506 864 578 b 469 989 864 890 731 989 b 53 676 204 989 53 865 l 53 631 l 310 631 l 310 668 b 464 781 310 739 361 781 b 613 663 558 781 613 740 l 613 625 b 519 506 613 553 578 506 l 329 506 l 329 489 l 519 489 b 621 351 586 489 621 447 l 621 315 b 464 192 621 238 579 192 b 307 297 364 192 307 222 l 307 333 l 46 333 l 46 290 b 454 -17 46 89 189 -17 b 878 265 722 -17 878 82 z "},"4":{"ha":933,"x_min":0,"x_max":0,"o":"m 858 0 l 858 232 l 929 232 l 929 249 l 858 249 l 858 643 l 581 643 l 581 249 l 326 249 b 310 274 310 249 303 258 l 599 972 l 317 972 l 10 232 l 581 232 l 581 0 z "},"5":{"ha":939,"x_min":0,"x_max":0,"o":"m 482 -17 b 890 318 725 -17 890 117 b 564 607 890 504 774 607 b 332 511 469 607 378 585 l 347 736 l 850 736 l 850 972 l 122 972 l 88 456 l 324 456 b 472 558 333 499 363 558 b 618 417 568 558 618 508 l 618 322 b 469 192 618 238 565 192 b 315 293 369 192 315 226 l 315 318 l 61 318 l 61 281 b 482 -17 61 90 204 -17 z "},"6":{"ha":983,"x_min":0,"x_max":0,"o":"m 928 321 b 599 606 928 510 794 607 b 342 447 460 604 367 554 l 342 626 b 503 779 342 722 401 779 b 649 671 594 779 649 739 l 649 651 l 913 651 l 913 678 b 501 989 913 872 760 989 b 50 489 210 989 50 815 b 506 -17 50 160 211 -17 b 928 321 763 -17 928 126 z m 496 192 b 346 328 401 192 346 243 l 346 375 b 500 547 346 503 413 547 b 649 400 603 547 649 497 l 649 328 b 496 192 649 243 592 192 z "},"7":{"ha":756,"x_min":0,"x_max":0,"o":"m 782 967 l 782 972 l 17 972 l 17 701 l 582 701 b 593 675 594 701 601 690 l 208 0 l 229 0 z "},"8":{"ha":954,"x_min":0,"x_max":0,"o":"m 476 -17 b 921 269 754 -17 921 90 b 542 492 921 411 781 482 b 892 714 761 501 892 567 b 476 989 892 886 736 989 b 63 715 217 989 63 888 b 413 492 63 568 192 501 b 33 269 174 482 33 411 b 476 -17 33 90 199 -17 z m 476 789 b 639 661 582 789 639 744 l 639 631 b 476 500 639 546 582 500 b 315 631 371 500 315 546 l 315 661 b 476 789 315 744 371 789 z m 476 485 b 646 356 588 485 646 440 l 646 318 b 476 182 646 229 588 182 b 308 318 367 182 308 229 l 308 356 b 476 485 308 440 367 485 z "},"9":{"ha":983,"x_min":0,"x_max":0,"o":"m 56 651 b 385 367 56 463 189 365 b 642 525 524 368 617 418 l 642 346 b 481 193 642 250 582 193 b 335 301 389 193 335 233 l 335 321 l 71 321 l 71 294 b 482 -17 71 100 224 -17 b 933 483 774 -17 933 157 b 478 989 933 813 772 989 b 56 651 221 989 56 846 z m 488 781 b 638 644 582 781 638 729 l 638 597 b 483 425 638 469 571 425 b 335 572 381 425 335 475 l 335 644 b 488 781 335 729 392 781 z "},"\u0000":{"ha":0,"x_min":0,"x_max":0,"o":""},"\r":{"ha":0,"x_min":0,"x_max":0,"o":""}," ":{"ha":292,"x_min":0,"x_max":0,"o":""}," ":{"ha":292,"x_min":0,"x_max":0,"o":""},"A":{"ha":1000,"x_min":0,"x_max":0,"o":"m 707 0 l 986 0 l 710 972 l 293 972 l 14 0 l 282 0 l 358 267 b 383 288 363 282 368 288 l 613 288 b 632 272 624 288 629 282 z m 375 326 l 497 765 l 618 324 b 604 304 621 313 618 304 l 389 304 b 375 326 375 304 371 314 z "},"B":{"ha":1026,"x_min":0,"x_max":0,"o":"m 118 0 l 631 0 b 978 264 842 0 978 92 b 650 506 978 413 897 494 b 942 725 875 518 942 608 b 643 972 942 888 832 972 l 118 972 z m 389 533 l 389 775 l 564 775 b 675 671 636 775 675 739 l 675 617 b 560 513 675 549 635 513 l 410 513 b 389 533 393 513 389 525 z m 389 475 b 410 496 389 482 393 496 l 561 496 b 693 385 647 496 693 457 l 693 322 b 575 211 693 250 651 211 l 389 211 z "},"C":{"ha":1057,"x_min":0,"x_max":0,"o":"m 718 394 l 718 367 b 544 206 718 264 672 206 b 350 407 410 206 350 275 l 350 575 b 544 767 350 700 419 767 b 718 621 663 767 718 704 l 718 585 l 994 585 l 994 621 b 544 989 994 836 850 989 b 58 486 214 989 58 814 b 544 -17 58 158 215 -17 b 994 367 860 -17 994 160 l 994 394 z "},"D":{"ha":1092,"x_min":0,"x_max":0,"o":"m 118 0 l 628 0 b 1033 486 881 0 1033 193 b 628 972 1033 779 881 972 l 118 972 z m 568 750 b 749 569 693 750 749 694 l 749 403 b 568 222 749 278 693 222 l 382 222 l 382 750 z "},"E":{"ha":903,"x_min":0,"x_max":0,"o":"m 118 0 l 847 0 l 847 243 l 396 243 l 396 475 b 417 496 396 482 400 496 l 814 496 l 814 513 l 417 513 b 396 533 400 513 396 525 l 396 729 l 833 729 l 833 972 l 118 972 z "},"F":{"ha":833,"x_min":0,"x_max":0,"o":"m 118 0 l 396 0 l 396 406 b 417 426 396 413 400 426 l 767 426 l 767 443 l 417 443 b 396 464 400 443 396 456 l 396 729 l 792 729 l 792 972 l 118 972 z "},"G":{"ha":1072,"x_min":0,"x_max":0,"o":"m 481 472 l 481 456 l 710 456 b 731 435 725 456 731 450 l 731 365 b 547 206 731 261 671 206 b 350 407 410 206 350 274 l 350 575 b 551 767 350 699 426 767 b 731 622 671 767 731 717 l 731 590 l 1003 590 l 1003 626 b 551 989 1003 842 849 989 b 58 486 215 989 58 800 b 547 -17 58 160 215 -17 b 1003 374 867 -17 1003 161 l 1003 472 z "},"H":{"ha":1139,"x_min":0,"x_max":0,"o":"m 118 0 l 396 0 l 396 475 b 417 496 396 482 400 496 l 722 496 b 743 475 739 496 743 482 l 743 0 l 1021 0 l 1021 972 l 743 972 l 743 533 b 722 513 743 525 739 513 l 417 513 b 396 533 400 513 396 525 l 396 972 l 118 972 z "},"I":{"ha":514,"x_min":0,"x_max":0,"o":"m 118 0 l 396 0 l 396 972 l 118 972 z "},"J":{"ha":940,"x_min":0,"x_max":0,"o":"m 836 300 l 836 972 l 161 972 l 161 956 l 543 956 b 564 935 558 956 564 949 l 564 296 b 446 199 564 232 524 199 b 326 290 368 199 326 231 l 326 435 l 63 435 l 63 269 b 443 -17 63 94 204 -17 b 836 300 703 -17 836 101 z "},"K":{"ha":1040,"x_min":0,"x_max":0,"o":"m 118 0 l 389 0 l 389 386 l 496 507 l 738 0 l 1040 0 l 699 735 l 858 914 b 938 956 890 950 904 956 l 996 956 l 996 972 l 118 972 z m 838 956 b 854 942 850 956 854 949 b 839 917 854 935 851 931 l 389 413 l 389 956 z "},"L":{"ha":826,"x_min":0,"x_max":0,"o":"m 118 0 l 806 0 l 806 243 l 396 243 l 396 972 l 118 972 z "},"M":{"ha":1415,"x_min":0,"x_max":0,"o":"m 369 0 l 369 721 l 686 -17 l 700 -17 l 1019 931 l 1019 0 l 1297 0 l 1297 972 l 1014 972 l 826 417 b 807 397 822 404 818 397 b 788 417 797 397 793 404 l 551 972 l 118 972 l 118 0 z "},"N":{"ha":1047,"x_min":0,"x_max":0,"o":"m 481 972 l 118 972 l 118 0 l 375 0 l 375 676 l 922 -28 l 936 -28 l 936 972 l 918 972 l 918 467 b 904 449 918 454 913 449 b 881 465 896 449 893 450 z "},"O":{"ha":1103,"x_min":0,"x_max":0,"o":"m 551 -17 b 1044 486 876 -17 1044 158 b 551 989 1044 814 878 989 b 58 486 225 989 58 814 b 551 -17 58 158 226 -17 z m 551 767 b 760 575 676 767 760 700 l 760 407 b 551 206 760 275 686 206 b 343 407 417 206 343 275 l 343 575 b 551 767 343 700 426 767 z "},"P":{"ha":1003,"x_min":0,"x_max":0,"o":"m 118 0 l 396 0 l 396 315 b 417 336 396 322 400 336 l 625 336 b 961 628 828 336 961 424 b 643 972 961 836 833 972 l 118 972 z m 569 757 b 681 646 642 757 681 718 l 681 464 b 569 353 681 392 642 353 l 417 353 b 396 374 400 353 396 365 l 396 757 z "},"Q":{"ha":1103,"x_min":0,"x_max":0,"o":"m 551 -17 b 753 11 628 -17 694 -7 l 853 -196 l 872 -196 l 769 17 b 1044 486 951 83 1044 242 b 551 989 1044 814 878 989 b 58 486 225 989 58 814 b 551 -17 58 158 226 -17 z m 551 767 b 760 575 676 767 760 700 l 760 407 b 667 229 760 319 728 260 l 540 493 l 521 493 l 651 222 b 551 206 624 211 590 206 b 343 407 417 206 343 275 l 343 575 b 551 767 343 700 426 767 z "},"R":{"ha":1038,"x_min":0,"x_max":0,"o":"m 118 0 l 396 0 l 396 411 b 417 432 396 418 400 432 l 436 432 b 468 411 453 432 457 429 l 710 0 l 1024 0 l 807 360 l 543 360 b 506 382 525 360 515 365 l 476 432 l 635 432 b 971 686 838 432 971 486 b 653 972 971 889 843 972 l 118 972 z m 592 757 b 696 660 657 757 696 721 l 696 546 b 592 449 696 485 657 449 l 417 449 b 396 469 400 449 396 461 l 396 757 z "},"S":{"ha":1000,"x_min":0,"x_max":0,"o":"m 496 774 b 647 674 613 774 647 740 l 647 601 l 932 601 l 932 669 b 496 989 932 885 781 989 b 61 710 213 989 61 879 b 324 500 61 569 136 514 l 560 482 b 660 382 635 476 660 447 l 660 303 b 496 199 660 232 619 199 b 344 303 379 199 344 232 l 344 375 l 56 375 l 56 311 b 496 -17 56 92 207 -17 b 951 271 778 -17 951 83 b 706 488 951 396 889 475 l 460 504 b 349 594 379 510 349 536 l 349 674 b 496 774 349 740 383 774 z "},"T":{"ha":903,"x_min":0,"x_max":0,"o":"m 313 0 l 590 0 l 590 729 l 875 729 l 875 972 l 28 972 l 28 729 l 313 729 z "},"U":{"ha":1089,"x_min":0,"x_max":0,"o":"m 986 338 l 986 972 l 708 972 l 708 338 b 544 206 708 250 651 206 b 381 338 438 206 381 250 l 381 972 l 103 972 l 103 338 b 544 -17 103 104 253 -17 b 986 338 836 -17 986 104 z "},"V":{"ha":839,"x_min":0,"x_max":0,"o":"m 571 0 l 832 972 l 813 972 l 576 86 b 561 72 574 74 568 72 b 546 86 554 72 549 75 l 290 972 l 7 972 l 292 0 z "},"W":{"ha":1372,"x_min":0,"x_max":0,"o":"m 282 972 l 0 972 l 221 0 l 503 0 l 592 401 b 610 421 594 414 599 421 b 629 401 621 421 625 414 l 751 0 l 1160 0 l 1365 972 l 1093 972 l 947 254 l 715 989 l 703 989 l 493 40 z "},"X":{"ha":838,"x_min":0,"x_max":0,"o":"m 838 0 l 558 510 b 560 564 549 528 549 546 l 803 972 l 781 972 l 553 586 b 535 574 547 578 543 574 b 517 588 525 574 522 578 l 310 972 l 0 972 l 269 476 b 267 419 281 456 278 439 l 21 0 l 43 0 l 278 401 b 296 413 283 410 288 413 b 314 400 304 413 308 410 l 528 0 z "},"Y":{"ha":843,"x_min":0,"x_max":0,"o":"m 304 0 l 582 0 l 582 411 b 599 478 582 440 585 451 l 843 972 l 822 972 l 586 492 b 571 479 581 482 576 479 b 556 492 564 479 561 481 l 318 972 l 0 972 l 304 381 z "},"Z":{"ha":863,"x_min":0,"x_max":0,"o":"m 835 243 l 421 243 l 833 958 l 833 972 l 36 972 l 36 956 l 503 956 b 524 938 518 956 524 949 b 519 924 524 933 522 929 l -7 14 l -7 0 l 835 0 z "},"Æ":{"ha":1469,"x_min":0,"x_max":0,"o":"m 713 0 l 1414 0 l 1414 243 l 990 243 l 990 475 b 1011 496 990 482 994 496 l 1381 496 l 1381 513 l 1011 513 b 990 533 994 513 990 525 l 990 729 l 1400 729 l 1400 972 l 571 972 l 14 0 l 294 0 l 446 267 b 481 288 456 285 463 288 l 713 288 z m 489 304 b 478 324 475 304 472 314 l 713 738 l 713 304 z "},"Œ":{"ha":1439,"x_min":0,"x_max":0,"o":"m 464 0 l 1383 0 l 1383 243 l 960 243 l 960 475 b 981 496 960 482 964 496 l 1350 496 l 1350 513 l 981 513 b 960 533 964 513 960 525 l 960 729 l 1369 729 l 1369 972 l 464 972 b 58 486 211 972 58 779 b 464 0 58 193 211 0 z m 524 222 b 343 403 399 222 343 278 l 343 569 b 524 750 343 694 399 750 l 682 750 l 682 222 z "},"Ł":{"ha":826,"x_min":0,"x_max":0,"o":"m 118 0 l 806 0 l 806 243 l 396 243 l 396 549 l 608 633 l 608 651 l 396 567 l 396 972 l 118 972 l 118 457 l 14 415 l 14 397 l 118 439 z "},"Ø":{"ha":1103,"x_min":0,"x_max":0,"o":"m 161 -17 l 231 71 b 551 -17 310 13 417 -17 b 1044 486 876 -17 1044 158 b 879 897 1044 676 989 814 l 957 997 l 935 997 l 864 907 b 551 989 786 961 681 989 b 58 486 225 989 58 814 b 217 82 58 301 111 165 l 139 -17 z m 551 767 b 710 711 618 767 674 747 l 375 283 b 343 407 354 315 343 357 l 343 575 b 551 767 343 700 426 767 z m 760 575 l 760 407 b 551 206 760 275 686 206 b 385 269 476 206 421 228 l 722 697 b 760 575 746 667 760 625 z "},"Ð":{"ha":1092,"x_min":0,"x_max":0,"o":"m 118 0 l 628 0 b 1033 486 881 0 1033 193 b 628 972 1033 779 881 972 l 118 972 l 118 513 l 14 513 l 14 496 l 118 496 z m 594 496 l 594 513 l 382 513 l 382 750 l 568 750 b 749 569 693 750 749 694 l 749 403 b 568 222 749 278 693 222 l 382 222 l 382 496 z "},"Þ":{"ha":1003,"x_min":0,"x_max":0,"o":"m 118 0 l 396 0 l 396 169 b 417 190 396 176 400 190 l 625 190 b 961 482 828 190 961 278 b 643 826 961 690 833 826 l 396 826 l 396 972 l 118 972 z m 569 611 b 681 500 642 611 681 572 l 681 318 b 569 207 681 246 642 207 l 417 207 b 396 228 400 207 396 219 l 396 611 z "},"a":{"ha":836,"x_min":0,"x_max":0,"o":"m 53 504 l 289 504 l 289 529 b 401 604 289 581 329 604 b 514 522 478 604 514 582 l 514 518 b 310 397 514 446 485 417 b 42 182 90 374 42 303 b 267 -17 42 40 129 -17 b 514 165 376 -17 478 42 l 514 0 l 764 0 l 764 508 b 411 781 764 685 642 781 b 53 529 188 781 53 696 z m 294 204 l 294 278 b 411 396 294 346 321 372 b 514 458 474 413 501 428 l 514 272 b 390 99 514 117 465 99 b 294 204 324 99 294 132 z "},"b":{"ha":907,"x_min":0,"x_max":0,"o":"m 340 1042 l 83 1042 l 83 0 l 340 0 l 340 206 b 593 -17 376 63 463 -17 b 857 382 771 -17 857 114 b 593 781 857 650 771 781 b 340 558 463 781 376 701 z m 583 235 b 476 97 583 138 551 97 b 340 382 382 97 340 158 b 476 667 340 606 382 667 b 583 529 551 667 583 626 z "},"c":{"ha":851,"x_min":0,"x_max":0,"o":"m 813 454 l 813 471 b 436 781 813 671 668 781 b 39 382 175 781 39 642 b 436 -17 39 122 175 -17 b 813 296 671 -17 813 79 l 813 319 l 565 319 l 565 293 b 436 171 565 213 521 171 b 303 306 349 171 303 221 l 303 458 b 436 593 303 543 349 593 b 565 471 521 593 565 551 l 565 454 z "},"d":{"ha":908,"x_min":0,"x_max":0,"o":"m 567 1042 l 567 560 b 314 781 531 701 446 781 b 50 382 136 781 50 650 b 314 -17 50 114 136 -17 b 567 204 446 -17 531 63 l 567 0 l 825 0 l 825 1042 z m 324 235 l 324 529 b 431 667 324 626 356 667 b 567 382 526 667 567 606 b 431 97 567 158 526 97 b 324 235 356 97 324 138 z "},"e":{"ha":838,"x_min":0,"x_max":0,"o":"m 289 369 b 310 390 289 376 293 390 l 793 390 b 799 460 797 418 799 439 b 429 781 799 660 671 781 b 39 382 174 781 39 642 b 429 -17 39 122 174 -17 b 799 275 667 -17 799 96 l 799 292 l 563 292 l 563 268 b 429 171 563 204 517 171 b 289 300 338 171 289 211 z m 289 468 b 432 600 289 561 339 600 b 563 494 517 600 563 564 l 563 468 b 497 404 563 414 542 404 l 310 404 b 289 425 293 404 289 417 z "},"f":{"ha":524,"x_min":0,"x_max":0,"o":"m 7 750 l 113 750 l 113 0 l 369 0 l 369 729 b 390 750 369 743 376 750 l 551 750 l 551 764 l 390 764 b 369 785 376 764 369 771 l 369 993 b 404 1028 369 1017 381 1028 l 551 1028 l 551 1042 l 272 1042 b 113 882 169 1042 113 988 l 113 764 l 7 764 z "},"g":{"ha":907,"x_min":0,"x_max":0,"o":"m 82 -17 l 82 -39 b 442 -294 82 -232 206 -294 b 824 0 703 -294 824 -192 l 824 764 l 567 764 l 567 575 b 314 781 531 707 446 781 b 50 410 136 781 50 660 b 314 39 50 160 136 39 b 567 244 446 39 531 113 l 567 -10 b 442 -114 567 -83 531 -114 b 319 -39 349 -114 319 -90 l 319 -17 z m 324 290 l 324 529 b 431 667 324 626 356 667 b 567 410 526 667 567 618 b 431 153 567 199 526 153 b 324 290 356 153 324 193 z "},"h":{"ha":896,"x_min":0,"x_max":0,"o":"m 83 0 l 340 0 l 340 478 b 468 660 340 628 381 660 b 564 544 540 660 564 621 l 564 0 l 821 0 l 821 544 b 592 781 821 715 731 781 b 340 592 478 781 378 718 l 340 1042 l 83 1042 z "},"i":{"ha":424,"x_min":0,"x_max":0,"o":"m 214 818 b 357 960 300 818 357 875 b 214 1100 357 1044 300 1100 b 68 960 126 1100 68 1044 b 214 818 68 875 126 818 z m 83 0 l 340 0 l 340 764 l 83 764 z "},"j":{"ha":424,"x_min":0,"x_max":0,"o":"m 214 818 b 357 960 300 818 357 875 b 214 1100 357 1044 300 1100 b 68 960 126 1100 68 1044 b 214 818 68 875 126 818 z m 340 -118 l 340 764 l 83 764 l 83 -229 b 49 -264 83 -253 72 -264 l -39 -264 l -39 -278 l 181 -278 b 340 -118 283 -278 340 -224 z "},"k":{"ha":847,"x_min":0,"x_max":0,"o":"m 83 0 l 340 0 l 340 360 l 406 425 l 572 0 l 846 0 l 600 618 l 703 721 b 763 750 726 743 739 750 l 822 750 l 822 764 l 340 764 l 340 1042 l 83 1042 z m 681 750 b 694 739 689 750 694 746 b 683 721 694 733 689 726 l 340 379 l 340 750 z "},"l":{"ha":424,"x_min":0,"x_max":0,"o":"m 83 0 l 340 0 l 340 1042 l 83 1042 z "},"m":{"ha":1318,"x_min":0,"x_max":0,"o":"m 83 0 l 340 0 l 340 478 b 446 660 340 607 375 660 b 535 558 513 660 535 625 l 535 0 l 792 0 l 792 478 b 897 660 792 607 826 660 b 986 558 964 660 986 625 l 986 0 l 1243 0 l 1243 544 b 1024 781 1243 715 1157 781 b 790 583 918 781 824 708 b 572 781 778 725 694 781 b 340 590 468 781 375 710 l 340 764 l 83 764 z "},"n":{"ha":896,"x_min":0,"x_max":0,"o":"m 83 0 l 340 0 l 340 478 b 468 660 340 628 381 660 b 564 544 540 660 564 621 l 564 0 l 821 0 l 821 544 b 592 781 821 715 731 781 b 340 592 478 781 378 718 l 340 764 l 83 764 z "},"o":{"ha":878,"x_min":0,"x_max":0,"o":"m 439 781 b 39 382 188 781 39 632 b 439 -17 39 132 188 -17 b 839 382 690 -17 839 132 b 439 781 839 632 690 781 z m 439 171 b 303 299 354 171 303 218 l 303 465 b 439 593 303 546 354 593 b 575 465 524 593 575 546 l 575 299 b 439 171 575 218 524 171 z "},"p":{"ha":907,"x_min":0,"x_max":0,"o":"m 340 764 l 83 764 l 83 -278 l 340 -278 l 340 206 b 593 -17 376 63 463 -17 b 857 382 771 -17 857 114 b 593 781 857 650 771 781 b 340 558 463 781 376 701 z m 583 235 b 476 97 583 138 551 97 b 340 382 382 97 340 158 b 476 667 340 606 382 667 b 583 529 551 667 583 626 z "},"q":{"ha":908,"x_min":0,"x_max":0,"o":"m 567 764 l 567 560 b 314 781 531 701 446 781 b 50 382 136 781 50 650 b 314 -17 50 114 136 -17 b 567 204 446 -17 531 63 l 567 -278 l 825 -278 l 825 764 z m 324 235 l 324 529 b 431 667 324 626 356 667 b 567 382 526 667 567 606 b 431 97 567 158 526 97 b 324 235 356 97 324 138 z "},"r":{"ha":788,"x_min":0,"x_max":0,"o":"m 83 0 l 340 0 l 340 494 b 436 667 340 600 360 667 b 503 599 488 667 503 644 l 503 403 l 739 403 l 739 628 b 574 771 739 738 658 771 b 340 611 464 771 376 717 l 340 764 l 83 764 z "},"s":{"ha":792,"x_min":0,"x_max":0,"o":"m 396 613 b 508 529 472 613 508 582 l 508 496 l 743 496 l 743 528 b 396 781 743 697 622 781 b 43 560 165 781 43 704 b 251 397 43 449 103 407 l 436 385 b 518 304 496 381 518 356 l 518 236 b 406 150 518 181 481 150 b 279 236 321 150 279 181 l 279 272 l 39 272 l 39 240 b 406 -17 39 67 165 -17 b 758 211 635 -17 758 63 b 564 388 758 311 708 378 l 371 401 b 282 472 307 406 282 426 l 282 529 b 396 613 282 582 319 613 z "},"t":{"ha":475,"x_min":0,"x_max":0,"o":"m 100 160 b 260 0 100 54 157 0 l 489 0 l 489 14 l 392 14 b 357 49 369 14 357 26 l 357 729 b 378 750 357 743 364 750 l 489 750 l 489 764 l 378 764 b 357 785 364 764 357 771 l 357 986 l 351 986 b 100 818 306 863 190 818 l 100 764 l 13 764 l 13 750 l 100 750 z "},"u":{"ha":882,"x_min":0,"x_max":0,"o":"m 311 -17 b 542 186 417 -17 510 50 l 542 0 l 799 0 l 799 764 l 542 764 l 542 300 b 431 117 542 149 497 117 b 332 219 357 117 332 151 l 332 764 l 75 764 l 75 219 b 311 -17 75 49 167 -17 z "},"v":{"ha":736,"x_min":0,"x_max":0,"o":"m 494 0 l 736 764 l 486 764 l 486 556 l 579 556 b 629 503 617 556 629 533 b 610 419 629 479 622 460 l 497 54 b 483 42 494 44 490 42 b 469 54 476 42 472 44 l 264 764 l 0 764 l 228 0 z "},"w":{"ha":1139,"x_min":0,"x_max":0,"o":"m 247 764 l 0 764 l 161 0 l 408 0 l 481 307 b 497 324 483 317 488 324 b 515 308 507 324 513 318 l 619 0 l 979 0 l 1139 764 l 899 764 l 786 201 l 588 781 l 578 781 l 401 35 z "},"x":{"ha":694,"x_min":0,"x_max":0,"o":"m 694 0 l 467 419 b 467 453 460 432 460 440 l 653 764 l 633 764 l 464 479 b 450 469 460 472 456 469 b 435 479 443 469 439 472 l 285 764 l 0 764 l 215 368 b 215 335 222 356 222 347 l 13 0 l 32 0 l 218 308 b 233 319 224 317 226 319 b 249 308 240 319 244 317 l 410 0 z "},"y":{"ha":749,"x_min":0,"x_max":0,"o":"m 496 556 l 590 556 b 636 511 624 556 636 540 b 614 411 636 485 632 465 l 510 96 b 494 83 507 88 503 83 l 481 83 b 463 101 471 83 467 88 l 269 764 l 0 764 l 214 69 l 489 69 b 497 57 496 69 500 64 l 463 -49 b 436 -69 457 -64 450 -69 l 111 -69 l 111 -278 l 290 -278 b 478 -49 400 -278 414 -240 l 749 764 l 496 764 z "},"z":{"ha":667,"x_min":0,"x_max":0,"o":"m -14 0 l 653 0 l 653 194 l 340 194 l 642 750 l 642 764 l 21 764 l 21 750 l 361 750 b 372 725 375 750 379 738 l -14 14 z "},"æ":{"ha":1313,"x_min":0,"x_max":0,"o":"m 53 504 l 289 504 l 289 529 b 403 604 289 581 329 604 b 514 522 478 604 514 582 l 514 518 b 310 397 514 446 485 417 b 42 182 90 374 42 303 b 267 -17 42 40 129 -17 b 539 213 376 -17 503 51 b 904 -17 588 63 711 -17 b 1274 275 1142 -17 1274 96 l 1274 292 l 1038 292 l 1038 268 b 904 171 1038 204 992 171 b 764 300 813 171 764 211 l 764 390 l 1268 390 b 1274 460 1272 418 1274 439 b 904 781 1274 660 1146 781 b 663 719 806 781 724 760 b 411 781 603 760 519 781 b 53 529 188 781 53 696 z m 764 468 b 907 600 764 561 814 600 b 1038 494 992 600 1038 564 l 1038 468 b 972 404 1038 414 1017 404 l 764 404 z m 294 204 l 294 278 b 411 396 294 346 321 372 b 514 458 474 413 501 428 l 514 213 b 401 92 514 117 464 92 b 294 204 326 92 294 128 z "},"œ":{"ha":1367,"x_min":0,"x_max":0,"o":"m 439 781 b 39 382 188 781 39 632 b 439 -17 39 132 188 -17 b 696 75 546 -17 633 15 b 944 -17 754 14 838 -17 b 1328 275 1190 -17 1328 96 l 1328 292 l 1092 292 l 1092 268 b 958 171 1092 204 1046 171 b 818 300 867 171 818 211 l 818 390 l 1322 390 b 1328 460 1326 418 1328 439 b 958 781 1328 660 1200 781 b 699 688 846 781 758 749 b 439 781 636 749 547 781 z m 818 468 b 961 600 818 561 868 600 b 1092 494 1046 600 1092 564 l 1092 468 b 1026 404 1092 414 1071 404 l 818 404 z m 439 171 b 303 299 354 171 303 218 l 303 465 b 439 593 303 546 354 593 b 575 465 524 593 575 546 l 575 299 b 439 171 575 218 524 171 z "},"ł":{"ha":424,"x_min":0,"x_max":0,"o":"m 83 0 l 340 0 l 340 603 l 417 642 l 417 660 l 340 621 l 340 1042 l 83 1042 l 83 490 l 7 451 l 7 433 l 83 472 z "},"ø":{"ha":878,"x_min":0,"x_max":0,"o":"m 151 -17 l 199 46 b 439 -17 261 6 343 -17 b 839 382 690 -17 839 132 b 694 708 839 529 788 640 l 749 781 l 729 781 l 682 717 b 439 781 618 758 536 781 b 39 382 188 781 39 632 b 185 54 39 235 90 122 l 132 -17 z m 303 299 l 303 465 b 439 593 303 546 354 593 b 551 544 490 593 529 576 l 318 232 b 303 299 308 250 303 272 z m 439 171 b 326 218 389 171 350 188 l 561 531 b 575 465 569 513 575 490 l 575 299 b 439 171 575 218 524 171 z "},"ð":{"ha":842,"x_min":0,"x_max":0,"o":"m 215 764 l 396 850 b 543 536 478 750 531 644 b 343 711 510 664 444 711 b 39 354 153 711 39 571 b 418 -17 39 104 188 -17 b 803 383 658 -17 794 108 b 589 942 808 581 747 774 l 683 986 l 683 1004 l 576 954 b 476 1042 547 983 514 1014 l 193 1042 b 385 863 267 985 331 925 l 215 782 z m 300 283 l 300 486 b 421 597 300 556 344 597 b 542 463 479 597 542 581 l 542 283 b 421 172 542 204 497 172 b 300 283 344 172 300 204 z "},"þ":{"ha":907,"x_min":0,"x_max":0,"o":"m 340 1042 l 83 1042 l 83 -278 l 340 -278 l 340 206 b 593 -17 376 63 463 -17 b 857 382 771 -17 857 114 b 593 781 857 650 771 781 b 340 558 463 781 376 701 z m 583 235 b 476 97 583 138 551 97 b 340 382 382 97 340 158 b 476 667 340 606 382 667 b 583 529 551 667 583 626 z "},"ß":{"ha":943,"x_min":0,"x_max":0,"o":"m 629 763 b 554 547 629 682 554 636 b 696 301 554 418 696 447 l 696 251 b 578 150 696 185 656 150 b 454 249 497 150 454 185 l 454 286 l 439 286 l 439 199 b 685 -17 439 53 538 -17 b 929 199 831 -17 929 69 b 568 547 929 450 568 392 b 751 832 568 660 751 674 b 453 1058 751 967 638 1058 b 113 769 247 1058 113 940 l 113 764 l 7 764 l 7 750 l 113 750 l 113 0 l 369 0 l 369 742 b 503 878 369 836 410 878 b 629 763 585 878 629 842 z "},"ı":{"ha":424,"x_min":0,"x_max":0,"o":"m 83 0 l 340 0 l 340 764 l 83 764 z "},"ȷ":{"ha":424,"x_min":0,"x_max":0,"o":"m 340 -118 l 340 764 l 83 764 l 83 -229 b 49 -264 83 -253 72 -264 l -39 -264 l -39 -278 l 181 -278 b 340 -118 283 -278 340 -224 z "},"ﬁ":{"ha":938,"x_min":0,"x_max":0,"o":"m 728 818 b 871 960 814 818 871 875 b 728 1100 871 1044 814 1100 b 582 960 640 1100 582 1044 b 728 818 582 875 640 818 z m 7 750 l 113 750 l 113 0 l 369 0 l 369 729 b 390 750 369 743 376 750 l 551 750 l 551 764 l 390 764 b 369 785 376 764 369 771 l 369 993 b 404 1028 369 1017 381 1028 l 551 1028 l 551 1042 l 272 1042 b 113 882 169 1042 113 988 l 113 764 l 7 764 z m 597 0 l 854 0 l 854 764 l 597 764 z "},"ﬂ":{"ha":951,"x_min":0,"x_max":0,"o":"m 7 750 l 113 750 l 113 0 l 369 0 l 369 729 b 390 750 369 743 376 750 l 551 750 l 551 764 l 390 764 b 369 785 376 764 369 771 l 369 993 b 404 1028 369 1017 381 1028 l 551 1028 l 551 1042 l 272 1042 b 113 882 169 1042 113 988 l 113 764 l 7 764 z m 611 0 l 868 0 l 868 1042 l 611 1042 z "},"Á":{"ha":1000,"x_min":0,"x_max":0,"o":"m 489 1011 l 500 1011 l 806 1182 l 806 1190 l 557 1190 z m 707 0 l 986 0 l 710 972 l 293 972 l 14 0 l 282 0 l 358 267 b 383 288 363 282 368 288 l 613 288 b 632 272 624 288 629 282 z m 375 326 l 497 765 l 618 324 b 604 304 621 313 618 304 l 389 304 b 375 326 375 304 371 314 z "},"Â":{"ha":1000,"x_min":0,"x_max":0,"o":"m 706 1011 l 724 1011 l 503 1213 l 496 1213 l 276 1011 l 293 1011 l 499 1072 z m 707 0 l 986 0 l 710 972 l 293 972 l 14 0 l 282 0 l 358 267 b 383 288 363 282 368 288 l 613 288 b 632 272 624 288 629 282 z m 375 326 l 497 765 l 618 324 b 604 304 621 313 618 304 l 389 304 b 375 326 375 304 371 314 z "},"Ä":{"ha":1000,"x_min":0,"x_max":0,"o":"m 372 1024 b 474 1124 432 1024 474 1064 b 372 1224 474 1186 432 1224 b 271 1124 313 1224 271 1186 b 372 1024 271 1064 313 1024 z m 629 1024 b 729 1124 688 1024 729 1064 b 629 1224 729 1186 688 1224 b 526 1124 569 1224 526 1186 b 629 1024 526 1064 569 1024 z m 707 0 l 986 0 l 710 972 l 293 972 l 14 0 l 282 0 l 358 267 b 383 288 363 282 368 288 l 613 288 b 632 272 624 288 629 282 z m 375 326 l 497 765 l 618 324 b 604 304 621 313 618 304 l 389 304 b 375 326 375 304 371 314 z "},"À":{"ha":1000,"x_min":0,"x_max":0,"o":"m 519 1011 l 451 1190 l 203 1190 l 203 1182 l 508 1011 z m 707 0 l 986 0 l 710 972 l 293 972 l 14 0 l 282 0 l 358 267 b 383 288 363 282 368 288 l 613 288 b 632 272 624 288 629 282 z m 375 326 l 497 765 l 618 324 b 604 304 621 313 618 304 l 389 304 b 375 326 375 304 371 314 z "},"Å":{"ha":1000,"x_min":0,"x_max":0,"o":"m 501 1001 b 631 1119 575 1001 631 1051 b 501 1236 631 1188 575 1236 b 372 1119 428 1236 372 1188 b 501 1001 372 1051 428 1001 z m 501 1226 b 581 1167 551 1226 581 1203 l 581 1071 b 501 1011 581 1035 551 1011 b 422 1071 451 1011 422 1035 l 422 1167 b 501 1226 422 1203 451 1226 z m 707 0 l 986 0 l 710 972 l 293 972 l 14 0 l 282 0 l 358 267 b 383 288 363 282 368 288 l 613 288 b 632 272 624 288 629 282 z m 375 326 l 497 765 l 618 324 b 604 304 621 313 618 304 l 389 304 b 375 326 375 304 371 314 z "},"Ã":{"ha":1000,"x_min":0,"x_max":0,"o":"m 561 1040 b 707 1106 640 1015 675 1036 l 753 1203 l 740 1207 l 729 1185 b 607 1160 706 1138 683 1138 l 486 1196 b 343 1135 413 1218 374 1197 l 296 1038 l 308 1033 l 319 1056 b 425 1083 339 1096 369 1101 z m 707 0 l 986 0 l 710 972 l 293 972 l 14 0 l 282 0 l 358 267 b 383 288 363 282 368 288 l 613 288 b 632 272 624 288 629 282 z m 375 326 l 497 765 l 618 324 b 604 304 621 313 618 304 l 389 304 b 375 326 375 304 371 314 z "},"Ă":{"ha":1000,"x_min":0,"x_max":0,"o":"m 500 1010 b 700 1193 621 1010 700 1074 l 700 1218 l 688 1218 l 688 1208 b 610 1142 688 1161 665 1142 l 390 1142 b 313 1208 335 1142 313 1161 l 313 1218 l 300 1218 l 300 1192 b 500 1010 300 1072 379 1010 z m 707 0 l 986 0 l 710 972 l 293 972 l 14 0 l 282 0 l 358 267 b 383 288 363 282 368 288 l 613 288 b 632 272 624 288 629 282 z m 375 326 l 497 765 l 618 324 b 604 304 621 313 618 304 l 389 304 b 375 326 375 304 371 314 z "},"Ā":{"ha":1000,"x_min":0,"x_max":0,"o":"m 278 1050 l 722 1050 l 722 1189 l 278 1189 z m 707 0 l 986 0 l 710 972 l 293 972 l 14 0 l 282 0 l 358 267 b 383 288 363 282 368 288 l 613 288 b 632 272 624 288 629 282 z m 375 326 l 497 765 l 618 324 b 604 304 621 313 618 304 l 389 304 b 375 326 375 304 371 314 z "},"Ą":{"ha":1000,"x_min":0,"x_max":0,"o":"m 707 0 l 849 0 b 672 -169 732 -49 672 -97 b 804 -278 672 -235 718 -278 l 890 -278 l 890 -153 l 829 -153 b 796 -118 806 -153 796 -143 l 796 -90 b 876 0 796 -40 815 -25 l 986 0 l 710 972 l 293 972 l 14 0 l 282 0 l 358 267 b 383 288 363 282 368 288 l 613 288 b 632 272 624 288 629 282 z m 375 326 l 497 765 l 618 324 b 604 304 621 313 618 304 l 389 304 b 375 326 375 304 371 314 z "},"Ç":{"ha":1057,"x_min":0,"x_max":0,"o":"m 490 -103 l 543 -103 b 571 -131 561 -103 571 -112 l 571 -153 b 543 -181 571 -171 561 -181 l 444 -181 l 444 -278 l 600 -278 b 707 -183 667 -278 707 -242 b 600 -89 707 -124 667 -89 l 529 -89 b 518 -71 518 -89 514 -82 l 540 -17 l 544 -17 b 994 367 860 -17 994 160 l 994 394 l 718 394 l 718 367 b 544 206 718 264 672 206 b 350 407 410 206 350 275 l 350 575 b 544 767 350 700 419 767 b 718 621 663 767 718 704 l 718 585 l 994 585 l 994 621 b 544 989 994 836 850 989 b 58 486 214 989 58 814 b 524 -17 58 165 208 -10 z "},"Ć":{"ha":1057,"x_min":0,"x_max":0,"o":"m 531 1011 l 542 1011 l 847 1182 l 847 1190 l 599 1190 z m 718 394 l 718 367 b 544 206 718 264 672 206 b 350 407 410 206 350 275 l 350 575 b 544 767 350 700 419 767 b 718 621 663 767 718 704 l 718 585 l 994 585 l 994 621 b 544 989 994 836 850 989 b 58 486 214 989 58 814 b 544 -17 58 158 215 -17 b 994 367 860 -17 994 160 l 994 394 z "},"Č":{"ha":1057,"x_min":0,"x_max":0,"o":"m 776 1213 l 758 1213 l 551 1151 l 346 1213 l 329 1213 l 549 1011 l 556 1011 z m 718 394 l 718 367 b 544 206 718 264 672 206 b 350 407 410 206 350 275 l 350 575 b 544 767 350 700 419 767 b 718 621 663 767 718 704 l 718 585 l 994 585 l 994 621 b 544 989 994 836 850 989 b 58 486 214 989 58 814 b 544 -17 58 158 215 -17 b 994 367 860 -17 994 160 l 994 394 z "},"Ĉ":{"ha":1057,"x_min":0,"x_max":0,"o":"m 751 1011 l 769 1011 l 549 1213 l 542 1213 l 322 1011 l 339 1011 l 544 1072 z m 718 394 l 718 367 b 544 206 718 264 672 206 b 350 407 410 206 350 275 l 350 575 b 544 767 350 700 419 767 b 718 621 663 767 718 704 l 718 585 l 994 585 l 994 621 b 544 989 994 836 850 989 b 58 486 214 989 58 814 b 544 -17 58 158 215 -17 b 994 367 860 -17 994 160 l 994 394 z "},"Ċ":{"ha":1057,"x_min":0,"x_max":0,"o":"m 531 1019 b 642 1129 596 1019 642 1064 b 531 1238 642 1194 596 1238 b 417 1129 464 1238 417 1194 b 531 1019 417 1064 464 1019 z m 718 394 l 718 367 b 544 206 718 264 672 206 b 350 407 410 206 350 275 l 350 575 b 544 767 350 700 419 767 b 718 621 663 767 718 704 l 718 585 l 994 585 l 994 621 b 544 989 994 836 850 989 b 58 486 214 989 58 814 b 544 -17 58 158 215 -17 b 994 367 860 -17 994 160 l 994 394 z "},"Ď":{"ha":1092,"x_min":0,"x_max":0,"o":"m 753 1213 l 735 1213 l 528 1151 l 322 1213 l 306 1213 l 525 1011 l 532 1011 z m 118 0 l 628 0 b 1033 486 881 0 1033 193 b 628 972 1033 779 881 972 l 118 972 z m 568 750 b 749 569 693 750 749 694 l 749 403 b 568 222 749 278 693 222 l 382 222 l 382 750 z "},"Đ":{"ha":1092,"x_min":0,"x_max":0,"o":"m 118 0 l 628 0 b 1033 486 881 0 1033 193 b 628 972 1033 779 881 972 l 118 972 l 118 513 l 14 513 l 14 496 l 118 496 z m 594 496 l 594 513 l 382 513 l 382 750 l 568 750 b 749 569 693 750 749 694 l 749 403 b 568 222 749 278 693 222 l 382 222 l 382 496 z "},"É":{"ha":903,"x_min":0,"x_max":0,"o":"m 464 1011 l 475 1011 l 781 1182 l 781 1190 l 532 1190 z m 118 0 l 847 0 l 847 243 l 396 243 l 396 475 b 417 496 396 482 400 496 l 814 496 l 814 513 l 417 513 b 396 533 400 513 396 525 l 396 729 l 833 729 l 833 972 l 118 972 z "},"Ê":{"ha":903,"x_min":0,"x_max":0,"o":"m 699 1011 l 717 1011 l 496 1213 l 489 1213 l 269 1011 l 286 1011 l 492 1072 z m 118 0 l 847 0 l 847 243 l 396 243 l 396 475 b 417 496 396 482 400 496 l 814 496 l 814 513 l 417 513 b 396 533 400 513 396 525 l 396 729 l 833 729 l 833 972 l 118 972 z "},"Ë":{"ha":903,"x_min":0,"x_max":0,"o":"m 365 1024 b 467 1124 425 1024 467 1064 b 365 1224 467 1186 425 1224 b 264 1124 306 1224 264 1186 b 365 1024 264 1064 306 1024 z m 622 1024 b 722 1124 681 1024 722 1064 b 622 1224 722 1186 681 1224 b 519 1124 563 1224 519 1186 b 622 1024 519 1064 563 1024 z m 118 0 l 847 0 l 847 243 l 396 243 l 396 475 b 417 496 396 482 400 496 l 814 496 l 814 513 l 417 513 b 396 533 400 513 396 525 l 396 729 l 833 729 l 833 972 l 118 972 z "},"È":{"ha":903,"x_min":0,"x_max":0,"o":"m 560 1011 l 492 1190 l 243 1190 l 243 1182 l 549 1011 z m 118 0 l 847 0 l 847 243 l 396 243 l 396 475 b 417 496 396 482 400 496 l 814 496 l 814 513 l 417 513 b 396 533 400 513 396 525 l 396 729 l 833 729 l 833 972 l 118 972 z "},"Ĕ":{"ha":903,"x_min":0,"x_max":0,"o":"m 493 1010 b 693 1193 614 1010 693 1074 l 693 1218 l 681 1218 l 681 1208 b 603 1142 681 1161 658 1142 l 383 1142 b 306 1208 328 1142 306 1161 l 306 1218 l 293 1218 l 293 1192 b 493 1010 293 1072 372 1010 z m 118 0 l 847 0 l 847 243 l 396 243 l 396 475 b 417 496 396 482 400 496 l 814 496 l 814 513 l 417 513 b 396 533 400 513 396 525 l 396 729 l 833 729 l 833 972 l 118 972 z "},"Ě":{"ha":903,"x_min":0,"x_max":0,"o":"m 731 1213 l 713 1213 l 506 1151 l 300 1213 l 283 1213 l 503 1011 l 510 1011 z m 118 0 l 847 0 l 847 243 l 396 243 l 396 475 b 417 496 396 482 400 496 l 814 496 l 814 513 l 417 513 b 396 533 400 513 396 525 l 396 729 l 833 729 l 833 972 l 118 972 z "},"Ė":{"ha":903,"x_min":0,"x_max":0,"o":"m 494 1019 b 606 1129 560 1019 606 1064 b 494 1238 606 1194 560 1238 b 381 1129 428 1238 381 1194 b 494 1019 381 1064 428 1019 z m 118 0 l 847 0 l 847 243 l 396 243 l 396 475 b 417 496 396 482 400 496 l 814 496 l 814 513 l 417 513 b 396 533 400 513 396 525 l 396 729 l 833 729 l 833 972 l 118 972 z "},"Ē":{"ha":903,"x_min":0,"x_max":0,"o":"m 271 1050 l 715 1050 l 715 1189 l 271 1189 z m 118 0 l 847 0 l 847 243 l 396 243 l 396 475 b 417 496 396 482 400 496 l 814 496 l 814 513 l 417 513 b 396 533 400 513 396 525 l 396 729 l 833 729 l 833 972 l 118 972 z "},"Ę":{"ha":903,"x_min":0,"x_max":0,"o":"m 118 0 l 819 0 b 643 -169 703 -49 643 -97 b 775 -278 643 -235 689 -278 l 861 -278 l 861 -153 l 800 -153 b 767 -118 776 -153 767 -143 l 767 -90 b 847 0 767 -40 786 -25 l 847 243 l 396 243 l 396 475 b 417 496 396 482 400 496 l 814 496 l 814 513 l 417 513 b 396 533 400 513 396 525 l 396 729 l 833 729 l 833 972 l 118 972 z "},"Ğ":{"ha":1072,"x_min":0,"x_max":0,"o":"m 540 1010 b 740 1193 661 1010 740 1074 l 740 1218 l 728 1218 l 728 1208 b 650 1142 728 1161 706 1142 l 431 1142 b 353 1208 375 1142 353 1161 l 353 1218 l 340 1218 l 340 1192 b 540 1010 340 1072 419 1010 z m 481 472 l 481 456 l 710 456 b 731 435 725 456 731 450 l 731 365 b 547 206 731 261 671 206 b 350 407 410 206 350 274 l 350 575 b 551 767 350 699 426 767 b 731 622 671 767 731 717 l 731 590 l 1003 590 l 1003 626 b 551 989 1003 842 849 989 b 58 486 215 989 58 800 b 547 -17 58 160 215 -17 b 1003 374 867 -17 1003 161 l 1003 472 z "},"Ĝ":{"ha":1072,"x_min":0,"x_max":0,"o":"m 739 1011 l 757 1011 l 536 1213 l 529 1213 l 310 1011 l 326 1011 l 532 1072 z m 481 472 l 481 456 l 710 456 b 731 435 725 456 731 450 l 731 365 b 547 206 731 261 671 206 b 350 407 410 206 350 274 l 350 575 b 551 767 350 699 426 767 b 731 622 671 767 731 717 l 731 590 l 1003 590 l 1003 626 b 551 989 1003 842 849 989 b 58 486 215 989 58 800 b 547 -17 58 160 215 -17 b 1003 374 867 -17 1003 161 l 1003 472 z "},"Ģ":{"ha":1072,"x_min":0,"x_max":0,"o":"m 481 472 l 481 456 l 710 456 b 731 435 725 456 731 450 l 731 365 b 547 206 731 261 671 206 b 350 407 410 206 350 274 l 350 575 b 551 767 350 699 426 767 b 731 622 671 767 731 717 l 731 590 l 1003 590 l 1003 626 b 551 989 1003 842 849 989 b 58 486 215 989 58 800 b 547 -17 58 160 215 -17 b 1003 374 867 -17 1003 161 l 1003 472 z m 458 -271 l 472 -271 l 639 -96 l 639 -85 l 458 -85 z "},"Ġ":{"ha":1072,"x_min":0,"x_max":0,"o":"m 553 1019 b 664 1129 618 1019 664 1064 b 553 1238 664 1194 618 1238 b 439 1129 486 1238 439 1194 b 553 1019 439 1064 486 1019 z m 481 472 l 481 456 l 710 456 b 731 435 725 456 731 450 l 731 365 b 547 206 731 261 671 206 b 350 407 410 206 350 274 l 350 575 b 551 767 350 699 426 767 b 731 622 671 767 731 717 l 731 590 l 1003 590 l 1003 626 b 551 989 1003 842 849 989 b 58 486 215 989 58 800 b 547 -17 58 160 215 -17 b 1003 374 867 -17 1003 161 l 1003 472 z "},"Ħ":{"ha":1139,"x_min":0,"x_max":0,"o":"m 118 0 l 396 0 l 396 475 b 417 496 396 482 400 496 l 722 496 b 743 475 739 496 743 482 l 743 0 l 1021 0 l 1021 746 l 1097 746 l 1097 763 l 1021 763 l 1021 972 l 743 972 l 743 763 l 396 763 l 396 972 l 118 972 l 118 763 l 42 763 l 42 746 l 118 746 z m 722 513 l 417 513 b 396 533 400 513 396 525 l 396 746 l 743 746 l 743 533 b 722 513 743 525 739 513 z "},"Ĥ":{"ha":1139,"x_min":0,"x_max":0,"o":"m 775 1011 l 793 1011 l 572 1213 l 565 1213 l 346 1011 l 363 1011 l 568 1072 z m 118 0 l 396 0 l 396 475 b 417 496 396 482 400 496 l 722 496 b 743 475 739 496 743 482 l 743 0 l 1021 0 l 1021 972 l 743 972 l 743 533 b 722 513 743 525 739 513 l 417 513 b 396 533 400 513 396 525 l 396 972 l 118 972 z "},"Í":{"ha":514,"x_min":0,"x_max":0,"o":"m 246 1011 l 257 1011 l 563 1182 l 563 1190 l 314 1190 z m 118 0 l 396 0 l 396 972 l 118 972 z "},"Î":{"ha":514,"x_min":0,"x_max":0,"o":"m 463 1011 l 481 1011 l 260 1213 l 253 1213 l 33 1011 l 50 1011 l 256 1072 z m 118 0 l 396 0 l 396 972 l 118 972 z "},"Ï":{"ha":514,"x_min":0,"x_max":0,"o":"m 129 1024 b 231 1124 189 1024 231 1064 b 129 1224 231 1186 189 1224 b 28 1124 69 1224 28 1186 b 129 1024 28 1064 69 1024 z m 386 1024 b 486 1124 444 1024 486 1064 b 386 1224 486 1186 444 1224 b 283 1124 326 1224 283 1186 b 386 1024 283 1064 326 1024 z m 118 0 l 396 0 l 396 972 l 118 972 z "},"Ì":{"ha":514,"x_min":0,"x_max":0,"o":"m 281 1011 l 213 1190 l -36 1190 l -36 1182 l 269 1011 z m 118 0 l 396 0 l 396 972 l 118 972 z "},"Ĭ":{"ha":514,"x_min":0,"x_max":0,"o":"m 257 1010 b 457 1193 378 1010 457 1074 l 457 1218 l 444 1218 l 444 1208 b 367 1142 444 1161 422 1142 l 147 1142 b 69 1208 92 1142 69 1161 l 69 1218 l 57 1218 l 57 1192 b 257 1010 57 1072 136 1010 z m 118 0 l 396 0 l 396 972 l 118 972 z "},"İ":{"ha":514,"x_min":0,"x_max":0,"o":"m 258 1019 b 369 1129 324 1019 369 1064 b 258 1238 369 1194 324 1238 b 144 1129 192 1238 144 1194 b 258 1019 144 1064 192 1019 z m 118 0 l 396 0 l 396 972 l 118 972 z "},"Ī":{"ha":514,"x_min":0,"x_max":0,"o":"m 35 1050 l 479 1050 l 479 1189 l 35 1189 z m 118 0 l 396 0 l 396 972 l 118 972 z "},"Į":{"ha":514,"x_min":0,"x_max":0,"o":"m 118 0 l 283 0 b 107 -169 167 -49 107 -97 b 239 -278 107 -235 153 -278 l 325 -278 l 325 -153 l 264 -153 b 231 -118 240 -153 231 -143 l 231 -90 b 311 0 231 -40 250 -25 l 396 0 l 396 972 l 118 972 z "},"Ĩ":{"ha":514,"x_min":0,"x_max":0,"o":"m 324 1040 b 469 1106 403 1015 438 1036 l 515 1203 l 503 1207 l 492 1185 b 369 1160 468 1138 446 1138 l 249 1196 b 106 1135 175 1218 136 1197 l 58 1038 l 71 1033 l 82 1056 b 188 1083 101 1096 132 1101 z m 118 0 l 396 0 l 396 972 l 118 972 z "},"Ĵ":{"ha":940,"x_min":0,"x_max":0,"o":"m 697 1011 l 715 1011 l 494 1213 l 488 1213 l 268 1011 l 285 1011 l 490 1072 z m 836 300 l 836 972 l 161 972 l 161 956 l 543 956 b 564 935 558 956 564 949 l 564 296 b 446 199 564 232 524 199 b 326 290 368 199 326 231 l 326 435 l 63 435 l 63 269 b 443 -17 63 94 204 -17 b 836 300 703 -17 836 101 z "},"Ĳ":{"ha":1413,"x_min":0,"x_max":0,"o":"m 118 0 l 396 0 l 396 972 l 118 972 z m 1308 300 l 1308 972 l 633 972 l 633 956 l 1015 956 b 1036 935 1031 956 1036 949 l 1036 296 b 918 199 1036 232 996 199 b 799 290 840 199 799 231 l 799 435 l 535 435 l 535 269 b 915 -17 535 94 676 -17 b 1308 300 1175 -17 1308 101 z "},"Ķ":{"ha":1040,"x_min":0,"x_max":0,"o":"m 118 0 l 389 0 l 389 386 l 496 507 l 738 0 l 1040 0 l 699 735 l 858 914 b 938 956 890 950 904 956 l 996 956 l 996 972 l 118 972 z m 838 956 b 854 942 850 956 854 949 b 839 917 854 935 851 931 l 389 413 l 389 956 z m 457 -271 l 471 -271 l 638 -96 l 638 -85 l 457 -85 z "},"Ĺ":{"ha":826,"x_min":0,"x_max":0,"o":"m 251 1011 l 263 1011 l 568 1182 l 568 1190 l 319 1190 z m 118 0 l 806 0 l 806 243 l 396 243 l 396 972 l 118 972 z "},"Ľ":{"ha":826,"x_min":0,"x_max":0,"o":"m 118 0 l 806 0 l 806 243 l 396 243 l 396 972 l 118 972 z m 510 747 l 524 747 l 688 961 l 688 972 l 510 972 z "},"Ļ":{"ha":826,"x_min":0,"x_max":0,"o":"m 118 0 l 806 0 l 806 243 l 396 243 l 396 972 l 118 972 z m 378 -271 l 392 -271 l 558 -96 l 558 -85 l 378 -85 z "},"Ŀ":{"ha":826,"x_min":0,"x_max":0,"o":"m 118 0 l 806 0 l 806 243 l 396 243 l 396 972 l 118 972 z m 672 426 b 815 568 758 426 815 483 b 672 708 815 653 758 708 b 526 568 585 708 526 653 b 672 426 526 483 585 426 z "},"Ñ":{"ha":1047,"x_min":0,"x_max":0,"o":"m 686 1040 b 832 1106 765 1015 800 1036 l 878 1203 l 865 1207 l 854 1185 b 732 1160 831 1138 808 1138 l 611 1196 b 468 1135 538 1218 499 1197 l 421 1038 l 433 1033 l 444 1056 b 550 1083 464 1096 494 1101 z m 481 972 l 118 972 l 118 0 l 375 0 l 375 676 l 922 -28 l 936 -28 l 936 972 l 918 972 l 918 467 b 904 449 918 454 913 449 b 881 465 896 449 893 450 z "},"Ń":{"ha":1047,"x_min":0,"x_max":0,"o":"m 600 1011 l 611 1011 l 917 1182 l 917 1190 l 668 1190 z m 481 972 l 118 972 l 118 0 l 375 0 l 375 676 l 922 -28 l 936 -28 l 936 972 l 918 972 l 918 467 b 904 449 918 454 913 449 b 881 465 896 449 893 450 z "},"Ň":{"ha":1047,"x_min":0,"x_max":0,"o":"m 875 1213 l 857 1213 l 650 1151 l 444 1213 l 428 1213 l 647 1011 l 654 1011 z m 481 972 l 118 972 l 118 0 l 375 0 l 375 676 l 922 -28 l 936 -28 l 936 972 l 918 972 l 918 467 b 904 449 918 454 913 449 b 881 465 896 449 893 450 z "},"Ņ":{"ha":1047,"x_min":0,"x_max":0,"o":"m 481 972 l 118 972 l 118 0 l 375 0 l 375 676 l 922 -28 l 936 -28 l 936 972 l 918 972 l 918 467 b 904 449 918 454 913 449 b 881 465 896 449 893 450 z m 514 -271 l 528 -271 l 694 -96 l 694 -85 l 514 -85 z "},"Ŋ":{"ha":1047,"x_min":0,"x_max":0,"o":"m 936 -229 l 936 972 l 918 972 l 918 467 b 904 449 918 454 913 449 b 881 465 896 449 893 450 l 481 972 l 118 972 l 118 0 l 375 0 l 375 676 l 918 -22 l 918 -229 b 888 -260 918 -250 908 -260 l 751 -260 l 751 -278 l 888 -278 b 936 -229 919 -278 936 -261 z "},"Ó":{"ha":1103,"x_min":0,"x_max":0,"o":"m 535 1011 l 546 1011 l 851 1182 l 851 1190 l 603 1190 z m 551 -17 b 1044 486 876 -17 1044 158 b 551 989 1044 814 878 989 b 58 486 225 989 58 814 b 551 -17 58 158 226 -17 z m 551 767 b 760 575 676 767 760 700 l 760 407 b 551 206 760 275 686 206 b 343 407 417 206 343 275 l 343 575 b 551 767 343 700 426 767 z "},"Ô":{"ha":1103,"x_min":0,"x_max":0,"o":"m 757 1011 l 775 1011 l 554 1213 l 547 1213 l 328 1011 l 344 1011 l 550 1072 z m 551 -17 b 1044 486 876 -17 1044 158 b 551 989 1044 814 878 989 b 58 486 225 989 58 814 b 551 -17 58 158 226 -17 z m 551 767 b 760 575 676 767 760 700 l 760 407 b 551 206 760 275 686 206 b 343 407 417 206 343 275 l 343 575 b 551 767 343 700 426 767 z "},"Ö":{"ha":1103,"x_min":0,"x_max":0,"o":"m 424 1024 b 525 1124 483 1024 525 1064 b 424 1224 525 1186 483 1224 b 322 1124 364 1224 322 1186 b 424 1024 322 1064 364 1024 z m 681 1024 b 781 1124 739 1024 781 1064 b 681 1224 781 1186 739 1224 b 578 1124 621 1224 578 1186 b 681 1024 578 1064 621 1024 z m 551 -17 b 1044 486 876 -17 1044 158 b 551 989 1044 814 878 989 b 58 486 225 989 58 814 b 551 -17 58 158 226 -17 z m 551 767 b 760 575 676 767 760 700 l 760 407 b 551 206 760 275 686 206 b 343 407 417 206 343 275 l 343 575 b 551 767 343 700 426 767 z "},"Ò":{"ha":1103,"x_min":0,"x_max":0,"o":"m 576 1011 l 508 1190 l 260 1190 l 260 1182 l 565 1011 z m 551 -17 b 1044 486 876 -17 1044 158 b 551 989 1044 814 878 989 b 58 486 225 989 58 814 b 551 -17 58 158 226 -17 z m 551 767 b 760 575 676 767 760 700 l 760 407 b 551 206 760 275 686 206 b 343 407 417 206 343 275 l 343 575 b 551 767 343 700 426 767 z "},"Õ":{"ha":1103,"x_min":0,"x_max":0,"o":"m 594 1040 b 740 1106 674 1015 708 1036 l 786 1203 l 774 1207 l 763 1185 b 640 1160 739 1138 717 1138 l 519 1196 b 376 1135 446 1218 407 1197 l 329 1038 l 342 1033 l 353 1056 b 458 1083 372 1096 403 1101 z m 551 -17 b 1044 486 876 -17 1044 158 b 551 989 1044 814 878 989 b 58 486 225 989 58 814 b 551 -17 58 158 226 -17 z m 551 767 b 760 575 676 767 760 700 l 760 407 b 551 206 760 275 686 206 b 343 407 417 206 343 275 l 343 575 b 551 767 343 700 426 767 z "},"Ŏ":{"ha":1103,"x_min":0,"x_max":0,"o":"m 551 1010 b 751 1193 672 1010 751 1074 l 751 1218 l 739 1218 l 739 1208 b 661 1142 739 1161 717 1142 l 442 1142 b 364 1208 386 1142 364 1161 l 364 1218 l 351 1218 l 351 1192 b 551 1010 351 1072 431 1010 z m 551 -17 b 1044 486 876 -17 1044 158 b 551 989 1044 814 878 989 b 58 486 225 989 58 814 b 551 -17 58 158 226 -17 z m 551 767 b 760 575 676 767 760 700 l 760 407 b 551 206 760 275 686 206 b 343 407 417 206 343 275 l 343 575 b 551 767 343 700 426 767 z "},"Ő":{"ha":1103,"x_min":0,"x_max":0,"o":"m 400 1011 l 411 1011 l 647 1189 l 647 1197 l 468 1197 z m 614 1011 l 625 1011 l 861 1189 l 861 1197 l 682 1197 z m 551 -17 b 1044 486 876 -17 1044 158 b 551 989 1044 814 878 989 b 58 486 225 989 58 814 b 551 -17 58 158 226 -17 z m 551 767 b 760 575 676 767 760 700 l 760 407 b 551 206 760 275 686 206 b 343 407 417 206 343 275 l 343 575 b 551 767 343 700 426 767 z "},"Ō":{"ha":1103,"x_min":0,"x_max":0,"o":"m 329 1050 l 774 1050 l 774 1189 l 329 1189 z m 551 -17 b 1044 486 876 -17 1044 158 b 551 989 1044 814 878 989 b 58 486 225 989 58 814 b 551 -17 58 158 226 -17 z m 551 767 b 760 575 676 767 760 700 l 760 407 b 551 206 760 275 686 206 b 343 407 417 206 343 275 l 343 575 b 551 767 343 700 426 767 z "},"Ŕ":{"ha":1038,"x_min":0,"x_max":0,"o":"m 500 1011 l 511 1011 l 817 1182 l 817 1190 l 568 1190 z m 118 0 l 396 0 l 396 411 b 417 432 396 418 400 432 l 436 432 b 468 411 453 432 457 429 l 710 0 l 1024 0 l 807 360 l 543 360 b 506 382 525 360 515 365 l 476 432 l 635 432 b 971 686 838 432 971 486 b 653 972 971 889 843 972 l 118 972 z m 592 757 b 696 660 657 757 696 721 l 696 546 b 592 449 696 485 657 449 l 417 449 b 396 469 400 449 396 461 l 396 757 z "},"Ř":{"ha":1038,"x_min":0,"x_max":0,"o":"m 751 1213 l 733 1213 l 526 1151 l 321 1213 l 304 1213 l 524 1011 l 531 1011 z m 118 0 l 396 0 l 396 411 b 417 432 396 418 400 432 l 436 432 b 468 411 453 432 457 429 l 710 0 l 1024 0 l 807 360 l 543 360 b 506 382 525 360 515 365 l 476 432 l 635 432 b 971 686 838 432 971 486 b 653 972 971 889 843 972 l 118 972 z m 592 757 b 696 660 657 757 696 721 l 696 546 b 592 449 696 485 657 449 l 417 449 b 396 469 400 449 396 461 l 396 757 z "},"Ŗ":{"ha":1038,"x_min":0,"x_max":0,"o":"m 118 0 l 396 0 l 396 411 b 417 432 396 418 400 432 l 436 432 b 468 411 453 432 457 429 l 710 0 l 1024 0 l 807 360 l 543 360 b 506 382 525 360 515 365 l 476 432 l 635 432 b 971 686 838 432 971 486 b 653 972 971 889 843 972 l 118 972 z m 592 757 b 696 660 657 757 696 721 l 696 546 b 592 449 696 485 657 449 l 417 449 b 396 469 400 449 396 461 l 396 757 z m 443 -271 l 457 -271 l 624 -96 l 624 -85 l 443 -85 z "},"Š":{"ha":1000,"x_min":0,"x_max":0,"o":"m 724 1213 l 706 1213 l 499 1151 l 293 1213 l 276 1213 l 496 1011 l 503 1011 z m 496 774 b 647 674 613 774 647 740 l 647 601 l 932 601 l 932 669 b 496 989 932 885 781 989 b 61 710 213 989 61 879 b 324 500 61 569 136 514 l 560 482 b 660 382 635 476 660 447 l 660 303 b 496 199 660 232 619 199 b 344 303 379 199 344 232 l 344 375 l 56 375 l 56 311 b 496 -17 56 92 207 -17 b 951 271 778 -17 951 83 b 706 488 951 396 889 475 l 460 504 b 349 594 379 510 349 536 l 349 674 b 496 774 349 740 383 774 z "},"Ś":{"ha":1000,"x_min":0,"x_max":0,"o":"m 476 1011 l 488 1011 l 793 1182 l 793 1190 l 544 1190 z m 496 774 b 647 674 613 774 647 740 l 647 601 l 932 601 l 932 669 b 496 989 932 885 781 989 b 61 710 213 989 61 879 b 324 500 61 569 136 514 l 560 482 b 660 382 635 476 660 447 l 660 303 b 496 199 660 232 619 199 b 344 303 379 199 344 232 l 344 375 l 56 375 l 56 311 b 496 -17 56 92 207 -17 b 951 271 778 -17 951 83 b 706 488 951 396 889 475 l 460 504 b 349 594 379 510 349 536 l 349 674 b 496 774 349 740 383 774 z "},"Ş":{"ha":1000,"x_min":0,"x_max":0,"o":"m 456 -103 l 508 -103 b 536 -131 526 -103 536 -112 l 536 -153 b 508 -181 536 -171 526 -181 l 410 -181 l 410 -278 l 565 -278 b 672 -183 632 -278 672 -242 b 565 -89 672 -124 632 -89 l 494 -89 b 483 -71 483 -89 479 -82 l 506 -17 b 951 271 778 -17 951 83 b 706 488 951 396 889 475 l 460 504 b 349 594 379 510 349 536 l 349 674 b 496 774 349 740 383 774 b 647 674 613 774 647 740 l 647 601 l 932 601 l 932 669 b 496 989 932 885 781 989 b 61 710 213 989 61 879 b 324 500 61 569 136 514 l 560 482 b 660 382 635 476 660 447 l 660 303 b 496 199 660 232 619 199 b 344 303 379 199 344 232 l 344 375 l 56 375 l 56 311 b 489 -17 56 93 204 -15 z "},"Ŝ":{"ha":1000,"x_min":0,"x_max":0,"o":"m 706 1011 l 724 1011 l 503 1213 l 496 1213 l 276 1011 l 293 1011 l 499 1072 z m 496 774 b 647 674 613 774 647 740 l 647 601 l 932 601 l 932 669 b 496 989 932 885 781 989 b 61 710 213 989 61 879 b 324 500 61 569 136 514 l 560 482 b 660 382 635 476 660 447 l 660 303 b 496 199 660 232 619 199 b 344 303 379 199 344 232 l 344 375 l 56 375 l 56 311 b 496 -17 56 92 207 -17 b 951 271 778 -17 951 83 b 706 488 951 396 889 475 l 460 504 b 349 594 379 510 349 536 l 349 674 b 496 774 349 740 383 774 z "},"Ș":{"ha":1000,"x_min":0,"x_max":0,"o":"m 496 774 b 647 674 613 774 647 740 l 647 601 l 932 601 l 932 669 b 496 989 932 885 781 989 b 61 710 213 989 61 879 b 324 500 61 569 136 514 l 560 482 b 660 382 635 476 660 447 l 660 303 b 496 199 660 232 619 199 b 344 303 379 199 344 232 l 344 375 l 56 375 l 56 311 b 496 -17 56 92 207 -17 b 951 271 778 -17 951 83 b 706 488 951 396 889 475 l 460 504 b 349 594 379 510 349 536 l 349 674 b 496 774 349 740 383 774 z m 424 -271 l 438 -271 l 604 -96 l 604 -85 l 424 -85 z "},"Ŧ":{"ha":903,"x_min":0,"x_max":0,"o":"m 313 0 l 590 0 l 590 385 l 778 385 l 778 401 l 590 401 l 590 729 l 875 729 l 875 972 l 28 972 l 28 729 l 313 729 l 313 401 l 125 401 l 125 385 l 313 385 z "},"Ť":{"ha":903,"x_min":0,"x_max":0,"o":"m 675 1213 l 657 1213 l 450 1151 l 244 1213 l 228 1213 l 447 1011 l 454 1011 z m 313 0 l 590 0 l 590 729 l 875 729 l 875 972 l 28 972 l 28 729 l 313 729 z "},"Ţ":{"ha":903,"x_min":0,"x_max":0,"o":"m 313 0 l 590 0 l 590 729 l 875 729 l 875 972 l 28 972 l 28 729 l 313 729 z m 361 -271 l 375 -271 l 542 -96 l 542 -85 l 361 -85 z "},"Ț":{"ha":903,"x_min":0,"x_max":0,"o":"m 313 0 l 590 0 l 590 729 l 875 729 l 875 972 l 28 972 l 28 729 l 313 729 z m 361 -271 l 375 -271 l 542 -96 l 542 -85 l 361 -85 z "},"Ú":{"ha":1089,"x_min":0,"x_max":0,"o":"m 518 1011 l 529 1011 l 835 1182 l 835 1190 l 586 1190 z m 986 338 l 986 972 l 708 972 l 708 338 b 544 206 708 250 651 206 b 381 338 438 206 381 250 l 381 972 l 103 972 l 103 338 b 544 -17 103 104 253 -17 b 986 338 836 -17 986 104 z "},"Û":{"ha":1089,"x_min":0,"x_max":0,"o":"m 750 1011 l 768 1011 l 547 1213 l 540 1213 l 321 1011 l 338 1011 l 543 1072 z m 986 338 l 986 972 l 708 972 l 708 338 b 544 206 708 250 651 206 b 381 338 438 206 381 250 l 381 972 l 103 972 l 103 338 b 544 -17 103 104 253 -17 b 986 338 836 -17 986 104 z "},"Ü":{"ha":1089,"x_min":0,"x_max":0,"o":"m 417 1024 b 518 1124 476 1024 518 1064 b 417 1224 518 1186 476 1224 b 315 1124 357 1224 315 1186 b 417 1024 315 1064 357 1024 z m 674 1024 b 774 1124 732 1024 774 1064 b 674 1224 774 1186 732 1224 b 571 1124 614 1224 571 1186 b 674 1024 571 1064 614 1024 z m 986 338 l 986 972 l 708 972 l 708 338 b 544 206 708 250 651 206 b 381 338 438 206 381 250 l 381 972 l 103 972 l 103 338 b 544 -17 103 104 253 -17 b 986 338 836 -17 986 104 z "},"Ù":{"ha":1089,"x_min":0,"x_max":0,"o":"m 585 1011 l 517 1190 l 268 1190 l 268 1182 l 574 1011 z m 986 338 l 986 972 l 708 972 l 708 338 b 544 206 708 250 651 206 b 381 338 438 206 381 250 l 381 972 l 103 972 l 103 338 b 544 -17 103 104 253 -17 b 986 338 836 -17 986 104 z "},"Ŭ":{"ha":1089,"x_min":0,"x_max":0,"o":"m 544 1010 b 744 1193 665 1010 744 1074 l 744 1218 l 732 1218 l 732 1208 b 654 1142 732 1161 710 1142 l 435 1142 b 357 1208 379 1142 357 1161 l 357 1218 l 344 1218 l 344 1192 b 544 1010 344 1072 424 1010 z m 986 338 l 986 972 l 708 972 l 708 338 b 544 206 708 250 651 206 b 381 338 438 206 381 250 l 381 972 l 103 972 l 103 338 b 544 -17 103 104 253 -17 b 986 338 836 -17 986 104 z "},"Ű":{"ha":1089,"x_min":0,"x_max":0,"o":"m 393 1011 l 404 1011 l 640 1189 l 640 1197 l 461 1197 z m 607 1011 l 618 1011 l 854 1189 l 854 1197 l 675 1197 z m 986 338 l 986 972 l 708 972 l 708 338 b 544 206 708 250 651 206 b 381 338 438 206 381 250 l 381 972 l 103 972 l 103 338 b 544 -17 103 104 253 -17 b 986 338 836 -17 986 104 z "},"Ū":{"ha":1089,"x_min":0,"x_max":0,"o":"m 322 1050 l 767 1050 l 767 1189 l 322 1189 z m 986 338 l 986 972 l 708 972 l 708 338 b 544 206 708 250 651 206 b 381 338 438 206 381 250 l 381 972 l 103 972 l 103 338 b 544 -17 103 104 253 -17 b 986 338 836 -17 986 104 z "},"Ų":{"ha":1089,"x_min":0,"x_max":0,"o":"m 986 338 l 986 972 l 708 972 l 708 338 b 544 206 708 250 651 206 b 381 338 438 206 381 250 l 381 972 l 103 972 l 103 338 b 544 -17 103 104 253 -17 b 664 -8 588 -17 628 -14 b 508 -169 561 -54 508 -101 b 640 -278 508 -235 554 -278 l 726 -278 l 726 -153 l 665 -153 b 632 -118 642 -153 632 -143 l 632 -90 b 713 0 632 -40 651 -25 b 986 338 893 40 986 154 z "},"Ů":{"ha":1089,"x_min":0,"x_max":0,"o":"m 544 1001 b 674 1119 618 1001 674 1051 b 544 1236 674 1188 618 1236 b 415 1119 471 1236 415 1188 b 544 1001 415 1051 471 1001 z m 544 1226 b 624 1167 594 1226 624 1203 l 624 1071 b 544 1011 624 1035 594 1011 b 465 1071 494 1011 465 1035 l 465 1167 b 544 1226 465 1203 494 1226 z m 986 338 l 986 972 l 708 972 l 708 338 b 544 206 708 250 651 206 b 381 338 438 206 381 250 l 381 972 l 103 972 l 103 338 b 544 -17 103 104 253 -17 b 986 338 836 -17 986 104 z "},"Ũ":{"ha":1089,"x_min":0,"x_max":0,"o":"m 611 1040 b 757 1106 690 1015 725 1036 l 803 1203 l 790 1207 l 779 1185 b 657 1160 756 1138 733 1138 l 536 1196 b 393 1135 463 1218 424 1197 l 346 1038 l 358 1033 l 369 1056 b 475 1083 389 1096 419 1101 z m 986 338 l 986 972 l 708 972 l 708 338 b 544 206 708 250 651 206 b 381 338 438 206 381 250 l 381 972 l 103 972 l 103 338 b 544 -17 103 104 253 -17 b 986 338 836 -17 986 104 z "},"Ẃ":{"ha":1372,"x_min":0,"x_max":0,"o":"m 708 1011 l 719 1011 l 1025 1182 l 1025 1190 l 776 1190 z m 282 972 l 0 972 l 221 0 l 503 0 l 592 401 b 610 421 594 414 599 421 b 629 401 621 421 625 414 l 751 0 l 1160 0 l 1365 972 l 1093 972 l 947 254 l 715 989 l 703 989 l 493 40 z "},"Ŵ":{"ha":1372,"x_min":0,"x_max":0,"o":"m 911 1011 l 929 1011 l 708 1213 l 701 1213 l 482 1011 l 499 1011 l 704 1072 z m 282 972 l 0 972 l 221 0 l 503 0 l 592 401 b 610 421 594 414 599 421 b 629 401 621 421 625 414 l 751 0 l 1160 0 l 1365 972 l 1093 972 l 947 254 l 715 989 l 703 989 l 493 40 z "},"Ẅ":{"ha":1372,"x_min":0,"x_max":0,"o":"m 582 1024 b 683 1124 642 1024 683 1064 b 582 1224 683 1186 642 1224 b 481 1124 522 1224 481 1186 b 582 1024 481 1064 522 1024 z m 839 1024 b 939 1124 897 1024 939 1064 b 839 1224 939 1186 897 1224 b 736 1124 779 1224 736 1186 b 839 1024 736 1064 779 1024 z m 282 972 l 0 972 l 221 0 l 503 0 l 592 401 b 610 421 594 414 599 421 b 629 401 621 421 625 414 l 751 0 l 1160 0 l 1365 972 l 1093 972 l 947 254 l 715 989 l 703 989 l 493 40 z "},"Ẁ":{"ha":1372,"x_min":0,"x_max":0,"o":"m 708 1011 l 640 1190 l 392 1190 l 392 1182 l 697 1011 z m 282 972 l 0 972 l 221 0 l 503 0 l 592 401 b 610 421 594 414 599 421 b 629 401 621 421 625 414 l 751 0 l 1160 0 l 1365 972 l 1093 972 l 947 254 l 715 989 l 703 989 l 493 40 z "},"Ý":{"ha":843,"x_min":0,"x_max":0,"o":"m 519 1011 l 531 1011 l 836 1182 l 836 1190 l 588 1190 z m 304 0 l 582 0 l 582 411 b 599 478 582 440 585 451 l 843 972 l 822 972 l 586 492 b 571 479 581 482 576 479 b 556 492 564 479 561 481 l 318 972 l 0 972 l 304 381 z "},"Ÿ":{"ha":843,"x_min":0,"x_max":0,"o":"m 390 1024 b 492 1124 450 1024 492 1064 b 390 1224 492 1186 450 1224 b 289 1124 331 1224 289 1186 b 390 1024 289 1064 331 1024 z m 647 1024 b 747 1124 706 1024 747 1064 b 647 1224 747 1186 706 1224 b 544 1124 588 1224 544 1186 b 647 1024 544 1064 588 1024 z m 304 0 l 582 0 l 582 411 b 599 478 582 440 585 451 l 843 972 l 822 972 l 586 492 b 571 479 581 482 576 479 b 556 492 564 479 561 481 l 318 972 l 0 972 l 304 381 z "},"Ŷ":{"ha":843,"x_min":0,"x_max":0,"o":"m 707 1011 l 725 1011 l 504 1213 l 497 1213 l 278 1011 l 294 1011 l 500 1072 z m 304 0 l 582 0 l 582 411 b 599 478 582 440 585 451 l 843 972 l 822 972 l 586 492 b 571 479 581 482 576 479 b 556 492 564 479 561 481 l 318 972 l 0 972 l 304 381 z "},"Ỳ":{"ha":843,"x_min":0,"x_max":0,"o":"m 572 1011 l 504 1190 l 256 1190 l 256 1182 l 561 1011 z m 304 0 l 582 0 l 582 411 b 599 478 582 440 585 451 l 843 972 l 822 972 l 586 492 b 571 479 581 482 576 479 b 556 492 564 479 561 481 l 318 972 l 0 972 l 304 381 z "},"Ž":{"ha":863,"x_min":0,"x_max":0,"o":"m 654 1213 l 636 1213 l 429 1151 l 224 1213 l 207 1213 l 426 1011 l 433 1011 z m 835 243 l 421 243 l 833 958 l 833 972 l 36 972 l 36 956 l 503 956 b 524 938 518 956 524 949 b 519 924 524 933 522 929 l -7 14 l -7 0 l 835 0 z "},"Ź":{"ha":863,"x_min":0,"x_max":0,"o":"m 360 1011 l 371 1011 l 676 1182 l 676 1190 l 428 1190 z m 835 243 l 421 243 l 833 958 l 833 972 l 36 972 l 36 956 l 503 956 b 524 938 518 956 524 949 b 519 924 524 933 522 929 l -7 14 l -7 0 l 835 0 z "},"Ż":{"ha":863,"x_min":0,"x_max":0,"o":"m 433 1019 b 544 1129 499 1019 544 1064 b 433 1238 544 1194 499 1238 b 319 1129 367 1238 319 1194 b 433 1019 319 1064 367 1019 z m 835 243 l 421 243 l 833 958 l 833 972 l 36 972 l 36 956 l 503 956 b 524 938 518 956 524 949 b 519 924 524 933 522 929 l -7 14 l -7 0 l 835 0 z "},"á":{"ha":836,"x_min":0,"x_max":0,"o":"m 382 831 l 393 831 l 699 1043 l 699 1051 l 450 1051 z m 53 504 l 289 504 l 289 529 b 401 604 289 581 329 604 b 514 522 478 604 514 582 l 514 518 b 310 397 514 446 485 417 b 42 182 90 374 42 303 b 267 -17 42 40 129 -17 b 514 165 376 -17 478 42 l 514 0 l 764 0 l 764 508 b 411 781 764 685 642 781 b 53 529 188 781 53 696 z m 294 204 l 294 278 b 411 396 294 346 321 372 b 514 458 474 413 501 428 l 514 272 b 390 99 514 117 465 99 b 294 204 324 99 294 132 z "},"â":{"ha":836,"x_min":0,"x_max":0,"o":"m 603 831 l 621 831 l 414 1074 l 407 1074 l 201 831 l 218 831 l 410 904 z m 53 504 l 289 504 l 289 529 b 401 604 289 581 329 604 b 514 522 478 604 514 582 l 514 518 b 310 397 514 446 485 417 b 42 182 90 374 42 303 b 267 -17 42 40 129 -17 b 514 165 376 -17 478 42 l 514 0 l 764 0 l 764 508 b 411 781 764 685 642 781 b 53 529 188 781 53 696 z m 294 204 l 294 278 b 411 396 294 346 321 372 b 514 458 474 413 501 428 l 514 272 b 390 99 514 117 465 99 b 294 204 324 99 294 132 z "},"ä":{"ha":836,"x_min":0,"x_max":0,"o":"m 274 832 b 390 950 343 832 390 881 b 274 1067 390 1022 343 1067 b 154 950 203 1067 154 1022 b 274 832 154 881 203 832 z m 551 832 b 668 950 621 832 668 881 b 551 1067 668 1022 621 1067 b 432 950 482 1067 432 1022 b 551 832 432 881 482 832 z m 53 504 l 289 504 l 289 529 b 401 604 289 581 329 604 b 514 522 478 604 514 582 l 514 518 b 310 397 514 446 485 417 b 42 182 90 374 42 303 b 267 -17 42 40 129 -17 b 514 165 376 -17 478 42 l 514 0 l 764 0 l 764 508 b 411 781 764 685 642 781 b 53 529 188 781 53 696 z m 294 204 l 294 278 b 411 396 294 346 321 372 b 514 458 474 413 501 428 l 514 272 b 390 99 514 117 465 99 b 294 204 324 99 294 132 z "},"à":{"ha":836,"x_min":0,"x_max":0,"o":"m 478 832 l 410 1053 l 161 1053 l 161 1044 l 467 832 z m 53 504 l 289 504 l 289 529 b 401 604 289 581 329 604 b 514 522 478 604 514 582 l 514 518 b 310 397 514 446 485 417 b 42 182 90 374 42 303 b 267 -17 42 40 129 -17 b 514 165 376 -17 478 42 l 514 0 l 764 0 l 764 508 b 411 781 764 685 642 781 b 53 529 188 781 53 696 z m 294 204 l 294 278 b 411 396 294 346 321 372 b 514 458 474 413 501 428 l 514 272 b 390 99 514 117 465 99 b 294 204 324 99 294 132 z "},"å":{"ha":836,"x_min":0,"x_max":0,"o":"m 411 836 b 540 954 485 836 540 886 b 411 1071 540 1022 485 1071 b 282 954 338 1071 282 1022 b 411 836 282 886 338 836 z m 411 1061 b 490 1001 461 1061 490 1038 l 490 906 b 411 846 490 869 461 846 b 332 906 361 846 332 869 l 332 1001 b 411 1061 332 1038 361 1061 z m 53 504 l 289 504 l 289 529 b 401 604 289 581 329 604 b 514 522 478 604 514 582 l 514 518 b 310 397 514 446 485 417 b 42 182 90 374 42 303 b 267 -17 42 40 129 -17 b 514 165 376 -17 478 42 l 514 0 l 764 0 l 764 508 b 411 781 764 685 642 781 b 53 529 188 781 53 696 z m 294 204 l 294 278 b 411 396 294 346 321 372 b 514 458 474 413 501 428 l 514 272 b 390 99 514 117 465 99 b 294 204 324 99 294 132 z "},"ã":{"ha":836,"x_min":0,"x_max":0,"o":"m 599 935 l 649 1053 l 636 1057 l 622 1025 b 499 1006 603 981 574 978 l 406 1040 b 249 982 336 1067 279 1051 l 197 863 l 210 858 l 224 890 b 331 917 240 929 276 939 l 439 874 b 599 935 510 846 565 857 z m 53 504 l 289 504 l 289 529 b 401 604 289 581 329 604 b 514 522 478 604 514 582 l 514 518 b 310 397 514 446 485 417 b 42 182 90 374 42 303 b 267 -17 42 40 129 -17 b 514 165 376 -17 478 42 l 514 0 l 764 0 l 764 508 b 411 781 764 685 642 781 b 53 529 188 781 53 696 z m 294 204 l 294 278 b 411 396 294 346 321 372 b 514 458 474 413 501 428 l 514 272 b 390 99 514 117 465 99 b 294 204 324 99 294 132 z "},"ă":{"ha":836,"x_min":0,"x_max":0,"o":"m 413 840 b 606 1044 529 840 606 911 l 606 1069 l 593 1069 l 593 1056 b 510 981 593 1003 569 981 l 317 981 b 232 1056 256 981 232 1003 l 232 1069 l 219 1069 l 219 1043 b 413 840 219 910 296 840 z m 53 504 l 289 504 l 289 529 b 401 604 289 581 329 604 b 514 522 478 604 514 582 l 514 518 b 310 397 514 446 485 417 b 42 182 90 374 42 303 b 267 -17 42 40 129 -17 b 514 165 376 -17 478 42 l 514 0 l 764 0 l 764 508 b 411 781 764 685 642 781 b 53 529 188 781 53 696 z m 294 204 l 294 278 b 411 396 294 346 321 372 b 514 458 474 413 501 428 l 514 272 b 390 99 514 117 465 99 b 294 204 324 99 294 132 z "},"ā":{"ha":836,"x_min":0,"x_max":0,"o":"m 203 869 l 619 869 l 619 1008 l 203 1008 z m 53 504 l 289 504 l 289 529 b 401 604 289 581 329 604 b 514 522 478 604 514 582 l 514 518 b 310 397 514 446 485 417 b 42 182 90 374 42 303 b 267 -17 42 40 129 -17 b 514 165 376 -17 478 42 l 514 0 l 764 0 l 764 508 b 411 781 764 685 642 781 b 53 529 188 781 53 696 z m 294 204 l 294 278 b 411 396 294 346 321 372 b 514 458 474 413 501 428 l 514 272 b 390 99 514 117 465 99 b 294 204 324 99 294 132 z "},"ą":{"ha":836,"x_min":0,"x_max":0,"o":"m 53 504 l 289 504 l 289 529 b 401 604 289 581 329 604 b 514 522 478 604 514 582 l 514 518 b 310 397 514 446 485 417 b 42 182 90 374 42 303 b 267 -17 42 40 129 -17 b 514 165 376 -17 478 42 l 514 0 l 674 0 b 497 -169 557 -49 497 -97 b 629 -278 497 -235 543 -278 l 715 -278 l 715 -153 l 654 -153 b 621 -118 631 -153 621 -143 l 621 -90 b 701 0 621 -40 640 -25 l 764 0 l 764 508 b 411 781 764 685 642 781 b 53 529 188 781 53 696 z m 294 204 l 294 278 b 411 396 294 346 321 372 b 514 458 474 413 501 428 l 514 272 b 390 99 514 117 465 99 b 294 204 324 99 294 132 z "},"ç":{"ha":851,"x_min":0,"x_max":0,"o":"m 372 -103 l 425 -103 b 453 -131 443 -103 453 -112 l 453 -153 b 425 -181 453 -171 443 -181 l 326 -181 l 326 -278 l 482 -278 b 589 -183 549 -278 589 -242 b 482 -89 589 -124 549 -89 l 411 -89 b 400 -71 400 -89 396 -82 l 422 -17 l 436 -17 b 813 296 671 -17 813 79 l 813 319 l 565 319 l 565 293 b 436 171 565 213 521 171 b 303 306 349 171 303 221 l 303 458 b 436 593 303 543 349 593 b 565 471 521 593 565 551 l 565 454 l 813 454 l 813 471 b 436 781 813 671 668 781 b 39 382 175 781 39 642 b 406 -17 39 132 165 -6 z "},"ć":{"ha":851,"x_min":0,"x_max":0,"o":"m 408 831 l 419 831 l 725 1043 l 725 1051 l 476 1051 z m 813 454 l 813 471 b 436 781 813 671 668 781 b 39 382 175 781 39 642 b 436 -17 39 122 175 -17 b 813 296 671 -17 813 79 l 813 319 l 565 319 l 565 293 b 436 171 565 213 521 171 b 303 306 349 171 303 221 l 303 458 b 436 593 303 543 349 593 b 565 471 521 593 565 551 l 565 454 z "},"č":{"ha":851,"x_min":0,"x_max":0,"o":"m 647 1074 l 629 1074 l 436 1000 l 244 1074 l 228 1074 l 433 831 l 440 831 z m 813 454 l 813 471 b 436 781 813 671 668 781 b 39 382 175 781 39 642 b 436 -17 39 122 175 -17 b 813 296 671 -17 813 79 l 813 319 l 565 319 l 565 293 b 436 171 565 213 521 171 b 303 306 349 171 303 221 l 303 458 b 436 593 303 543 349 593 b 565 471 521 593 565 551 l 565 454 z "},"ĉ":{"ha":851,"x_min":0,"x_max":0,"o":"m 629 831 l 647 831 l 440 1074 l 433 1074 l 228 831 l 244 831 l 436 904 z m 813 454 l 813 471 b 436 781 813 671 668 781 b 39 382 175 781 39 642 b 436 -17 39 122 175 -17 b 813 296 671 -17 813 79 l 813 319 l 565 319 l 565 293 b 436 171 565 213 521 171 b 303 306 349 171 303 221 l 303 458 b 436 593 303 543 349 593 b 565 471 521 593 565 551 l 565 454 z "},"ċ":{"ha":851,"x_min":0,"x_max":0,"o":"m 439 825 b 575 960 521 825 575 879 b 439 1093 575 1040 521 1093 b 300 960 356 1093 300 1040 b 439 825 300 879 356 825 z m 813 454 l 813 471 b 436 781 813 671 668 781 b 39 382 175 781 39 642 b 436 -17 39 122 175 -17 b 813 296 671 -17 813 79 l 813 319 l 565 319 l 565 293 b 436 171 565 213 521 171 b 303 306 349 171 303 221 l 303 458 b 436 593 303 543 349 593 b 565 471 521 593 565 551 l 565 454 z "},"ď":{"ha":1031,"x_min":0,"x_max":0,"o":"m 567 1042 l 567 560 b 314 781 531 701 446 781 b 50 382 136 781 50 650 b 314 -17 50 114 136 -17 b 567 204 446 -17 531 63 l 567 0 l 825 0 l 825 1042 z m 894 817 l 908 817 l 1072 1031 l 1072 1042 l 894 1042 z m 324 235 l 324 529 b 431 667 324 626 356 667 b 567 382 526 667 567 606 b 431 97 567 158 526 97 b 324 235 356 97 324 138 z "},"đ":{"ha":908,"x_min":0,"x_max":0,"o":"m 311 886 l 567 886 l 567 560 b 314 781 531 701 446 781 b 50 382 136 781 50 650 b 314 -17 50 114 136 -17 b 567 204 446 -17 531 63 l 567 0 l 825 0 l 825 886 l 908 886 l 908 900 l 825 900 l 825 1042 l 567 1042 l 567 900 l 311 900 z m 324 235 l 324 529 b 431 667 324 626 356 667 b 567 382 526 667 567 606 b 431 97 567 158 526 97 b 324 235 356 97 324 138 z "},"é":{"ha":838,"x_min":0,"x_max":0,"o":"m 413 831 l 424 831 l 729 1043 l 729 1051 l 481 1051 z m 289 369 b 310 390 289 376 293 390 l 793 390 b 799 460 797 418 799 439 b 429 781 799 660 671 781 b 39 382 174 781 39 642 b 429 -17 39 122 174 -17 b 799 275 667 -17 799 96 l 799 292 l 563 292 l 563 268 b 429 171 563 204 517 171 b 289 300 338 171 289 211 z m 289 468 b 432 600 289 561 339 600 b 563 494 517 600 563 564 l 563 468 b 497 404 563 414 542 404 l 310 404 b 289 425 293 404 289 417 z "},"ê":{"ha":838,"x_min":0,"x_max":0,"o":"m 615 831 l 633 831 l 426 1074 l 419 1074 l 214 831 l 231 831 l 422 904 z m 289 369 b 310 390 289 376 293 390 l 793 390 b 799 460 797 418 799 439 b 429 781 799 660 671 781 b 39 382 174 781 39 642 b 429 -17 39 122 174 -17 b 799 275 667 -17 799 96 l 799 292 l 563 292 l 563 268 b 429 171 563 204 517 171 b 289 300 338 171 289 211 z m 289 468 b 432 600 289 561 339 600 b 563 494 517 600 563 564 l 563 468 b 497 404 563 414 542 404 l 310 404 b 289 425 293 404 289 417 z "},"ë":{"ha":838,"x_min":0,"x_max":0,"o":"m 292 832 b 408 950 361 832 408 881 b 292 1067 408 1022 361 1067 b 172 950 221 1067 172 1022 b 292 832 172 881 221 832 z m 569 832 b 686 950 639 832 686 881 b 569 1067 686 1022 639 1067 b 450 950 500 1067 450 1022 b 569 832 450 881 500 832 z m 289 369 b 310 390 289 376 293 390 l 793 390 b 799 460 797 418 799 439 b 429 781 799 660 671 781 b 39 382 174 781 39 642 b 429 -17 39 122 174 -17 b 799 275 667 -17 799 96 l 799 292 l 563 292 l 563 268 b 429 171 563 204 517 171 b 289 300 338 171 289 211 z m 289 468 b 432 600 289 561 339 600 b 563 494 517 600 563 564 l 563 468 b 497 404 563 414 542 404 l 310 404 b 289 425 293 404 289 417 z "},"è":{"ha":838,"x_min":0,"x_max":0,"o":"m 454 832 l 386 1053 l 138 1053 l 138 1044 l 443 832 z m 289 369 b 310 390 289 376 293 390 l 793 390 b 799 460 797 418 799 439 b 429 781 799 660 671 781 b 39 382 174 781 39 642 b 429 -17 39 122 174 -17 b 799 275 667 -17 799 96 l 799 292 l 563 292 l 563 268 b 429 171 563 204 517 171 b 289 300 338 171 289 211 z m 289 468 b 432 600 289 561 339 600 b 563 494 517 600 563 564 l 563 468 b 497 404 563 414 542 404 l 310 404 b 289 425 293 404 289 417 z "},"ĕ":{"ha":838,"x_min":0,"x_max":0,"o":"m 421 840 b 614 1044 538 840 614 911 l 614 1069 l 601 1069 l 601 1056 b 518 981 601 1003 578 981 l 325 981 b 240 1056 264 981 240 1003 l 240 1069 l 228 1069 l 228 1043 b 421 840 228 910 304 840 z m 289 369 b 310 390 289 376 293 390 l 793 390 b 799 460 797 418 799 439 b 429 781 799 660 671 781 b 39 382 174 781 39 642 b 429 -17 39 122 174 -17 b 799 275 667 -17 799 96 l 799 292 l 563 292 l 563 268 b 429 171 563 204 517 171 b 289 300 338 171 289 211 z m 289 468 b 432 600 289 561 339 600 b 563 494 517 600 563 564 l 563 468 b 497 404 563 414 542 404 l 310 404 b 289 425 293 404 289 417 z "},"ě":{"ha":838,"x_min":0,"x_max":0,"o":"m 633 1074 l 615 1074 l 422 1000 l 231 1074 l 214 1074 l 419 831 l 426 831 z m 289 369 b 310 390 289 376 293 390 l 793 390 b 799 460 797 418 799 439 b 429 781 799 660 671 781 b 39 382 174 781 39 642 b 429 -17 39 122 174 -17 b 799 275 667 -17 799 96 l 799 292 l 563 292 l 563 268 b 429 171 563 204 517 171 b 289 300 338 171 289 211 z m 289 468 b 432 600 289 561 339 600 b 563 494 517 600 563 564 l 563 468 b 497 404 563 414 542 404 l 310 404 b 289 425 293 404 289 417 z "},"ė":{"ha":838,"x_min":0,"x_max":0,"o":"m 428 825 b 564 960 510 825 564 879 b 428 1093 564 1040 510 1093 b 289 960 344 1093 289 1040 b 428 825 289 879 344 825 z m 289 369 b 310 390 289 376 293 390 l 793 390 b 799 460 797 418 799 439 b 429 781 799 660 671 781 b 39 382 174 781 39 642 b 429 -17 39 122 174 -17 b 799 275 667 -17 799 96 l 799 292 l 563 292 l 563 268 b 429 171 563 204 517 171 b 289 300 338 171 289 211 z m 289 468 b 432 600 289 561 339 600 b 563 494 517 600 563 564 l 563 468 b 497 404 563 414 542 404 l 310 404 b 289 425 293 404 289 417 z "},"ē":{"ha":838,"x_min":0,"x_max":0,"o":"m 215 869 l 632 869 l 632 1008 l 215 1008 z m 289 369 b 310 390 289 376 293 390 l 793 390 b 799 460 797 418 799 439 b 429 781 799 660 671 781 b 39 382 174 781 39 642 b 429 -17 39 122 174 -17 b 799 275 667 -17 799 96 l 799 292 l 563 292 l 563 268 b 429 171 563 204 517 171 b 289 300 338 171 289 211 z m 289 468 b 432 600 289 561 339 600 b 563 494 517 600 563 564 l 563 468 b 497 404 563 414 542 404 l 310 404 b 289 425 293 404 289 417 z "},"ę":{"ha":838,"x_min":0,"x_max":0,"o":"m 289 369 b 310 390 289 376 293 390 l 793 390 b 799 460 797 418 799 439 b 429 781 799 660 671 781 b 39 382 174 781 39 642 b 429 -17 39 122 174 -17 b 660 33 524 -17 601 1 b 508 -168 576 -33 508 -81 b 640 -278 508 -236 554 -278 l 740 -278 l 740 -153 l 665 -153 b 632 -118 642 -153 632 -143 l 632 -85 b 694 56 632 -36 647 6 b 799 275 763 107 799 182 l 799 292 l 563 292 l 563 268 b 429 171 563 204 517 171 b 289 300 338 171 289 211 z m 289 468 b 432 600 289 561 339 600 b 563 494 517 600 563 564 l 563 468 b 497 404 563 414 542 404 l 310 404 b 289 425 293 404 289 417 z "},"ğ":{"ha":907,"x_min":0,"x_max":0,"o":"m 465 840 b 658 1044 582 840 658 911 l 658 1069 l 646 1069 l 646 1056 b 563 981 646 1003 622 981 l 369 981 b 285 1056 308 981 285 1003 l 285 1069 l 272 1069 l 272 1043 b 465 840 272 910 349 840 z m 82 -17 l 82 -39 b 442 -294 82 -232 206 -294 b 824 0 703 -294 824 -192 l 824 764 l 567 764 l 567 575 b 314 781 531 707 446 781 b 50 410 136 781 50 660 b 314 39 50 160 136 39 b 567 244 446 39 531 113 l 567 -10 b 442 -114 567 -83 531 -114 b 319 -39 349 -114 319 -90 l 319 -17 z m 324 290 l 324 529 b 431 667 324 626 356 667 b 567 410 526 667 567 618 b 431 153 567 199 526 153 b 324 290 356 153 324 193 z "},"ĝ":{"ha":907,"x_min":0,"x_max":0,"o":"m 657 831 l 675 831 l 468 1074 l 461 1074 l 256 831 l 272 831 l 464 904 z m 82 -17 l 82 -39 b 442 -294 82 -232 206 -294 b 824 0 703 -294 824 -192 l 824 764 l 567 764 l 567 575 b 314 781 531 707 446 781 b 50 410 136 781 50 660 b 314 39 50 160 136 39 b 567 244 446 39 531 113 l 567 -10 b 442 -114 567 -83 531 -114 b 319 -39 349 -114 319 -90 l 319 -17 z m 324 290 l 324 529 b 431 667 324 626 356 667 b 567 410 526 667 567 618 b 431 153 567 199 526 153 b 324 290 356 153 324 193 z "},"ģ":{"ha":907,"x_min":0,"x_max":0,"o":"m 558 1033 l 544 1033 l 378 858 l 378 847 l 558 847 z m 82 -17 l 82 -39 b 442 -294 82 -232 206 -294 b 824 0 703 -294 824 -192 l 824 764 l 567 764 l 567 575 b 314 781 531 707 446 781 b 50 410 136 781 50 660 b 314 39 50 160 136 39 b 567 244 446 39 531 113 l 567 -10 b 442 -114 567 -83 531 -114 b 319 -39 349 -114 319 -90 l 319 -17 z m 324 290 l 324 529 b 431 667 324 626 356 667 b 567 410 526 667 567 618 b 431 153 567 199 526 153 b 324 290 356 153 324 193 z "},"ġ":{"ha":907,"x_min":0,"x_max":0,"o":"m 467 825 b 603 960 549 825 603 879 b 467 1093 603 1040 549 1093 b 328 960 383 1093 328 1040 b 467 825 328 879 383 825 z m 82 -17 l 82 -39 b 442 -294 82 -232 206 -294 b 824 0 703 -294 824 -192 l 824 764 l 567 764 l 567 575 b 314 781 531 707 446 781 b 50 410 136 781 50 660 b 314 39 50 160 136 39 b 567 244 446 39 531 113 l 567 -10 b 442 -114 567 -83 531 -114 b 319 -39 349 -114 319 -90 l 319 -17 z m 324 290 l 324 529 b 431 667 324 626 356 667 b 567 410 526 667 567 618 b 431 153 567 199 526 153 b 324 290 356 153 324 193 z "},"ħ":{"ha":896,"x_min":0,"x_max":0,"o":"m 83 0 l 340 0 l 340 478 b 468 660 340 628 381 660 b 564 544 540 660 564 621 l 564 0 l 821 0 l 821 544 b 592 781 821 715 731 781 b 340 592 478 781 378 718 l 340 886 l 597 886 l 597 900 l 340 900 l 340 1042 l 83 1042 l 83 900 l 0 900 l 0 886 l 83 886 z "},"ĥ":{"ha":896,"x_min":0,"x_max":0,"o":"m 592 1074 l 610 1074 l 403 1317 l 396 1317 l 190 1074 l 207 1074 l 399 1147 z m 83 0 l 340 0 l 340 478 b 468 660 340 628 381 660 b 564 544 540 660 564 621 l 564 0 l 821 0 l 821 544 b 592 781 821 715 731 781 b 340 592 478 781 378 718 l 340 1042 l 83 1042 z "},"í":{"ha":424,"x_min":0,"x_max":0,"o":"m 197 831 l 208 831 l 514 1043 l 514 1051 l 265 1051 z m 83 0 l 340 0 l 340 764 l 83 764 z "},"î":{"ha":424,"x_min":0,"x_max":0,"o":"m 404 831 l 422 831 l 215 1074 l 208 1074 l 3 831 l 19 831 l 211 904 z m 83 0 l 340 0 l 340 764 l 83 764 z "},"ï":{"ha":424,"x_min":0,"x_max":0,"o":"m 75 832 b 192 950 144 832 192 881 b 75 1067 192 1022 144 1067 b -46 950 4 1067 -46 1022 b 75 832 -46 881 4 832 z m 353 832 b 469 950 422 832 469 881 b 353 1067 469 1022 422 1067 b 233 950 283 1067 233 1022 b 353 832 233 881 283 832 z m 83 0 l 340 0 l 340 764 l 83 764 z "},"ì":{"ha":424,"x_min":0,"x_max":0,"o":"m 239 832 l 171 1053 l -78 1053 l -78 1044 l 228 832 z m 83 0 l 340 0 l 340 764 l 83 764 z "},"ĭ":{"ha":424,"x_min":0,"x_max":0,"o":"m 213 840 b 406 1044 329 840 406 911 l 406 1069 l 393 1069 l 393 1056 b 310 981 393 1003 369 981 l 117 981 b 32 1056 56 981 32 1003 l 32 1069 l 19 1069 l 19 1043 b 213 840 19 910 96 840 z m 83 0 l 340 0 l 340 764 l 83 764 z "},"ī":{"ha":424,"x_min":0,"x_max":0,"o":"m 4 869 l 421 869 l 421 1008 l 4 1008 z m 83 0 l 340 0 l 340 764 l 83 764 z "},"į":{"ha":424,"x_min":0,"x_max":0,"o":"m 214 818 b 357 960 300 818 357 875 b 214 1100 357 1044 300 1100 b 68 960 126 1100 68 1044 b 214 818 68 875 126 818 z m 83 0 l 250 0 b 74 -169 133 -49 74 -97 b 206 -278 74 -235 119 -278 l 292 -278 l 292 -153 l 231 -153 b 197 -118 207 -153 197 -143 l 197 -90 b 278 0 197 -40 217 -25 l 340 0 l 340 764 l 83 764 z "},"ĩ":{"ha":424,"x_min":0,"x_max":0,"o":"m 393 935 l 443 1053 l 431 1057 l 417 1025 b 293 1006 397 981 368 978 l 200 1040 b 43 982 131 1067 74 1051 l -8 863 l 4 858 l 18 890 b 125 917 35 929 71 939 l 233 874 b 393 935 304 846 360 857 z m 83 0 l 340 0 l 340 764 l 83 764 z "},"ĵ":{"ha":424,"x_min":0,"x_max":0,"o":"m 404 831 l 422 831 l 215 1074 l 208 1074 l 3 831 l 19 831 l 211 904 z m 340 -118 l 340 764 l 83 764 l 83 -229 b 49 -264 83 -253 72 -264 l -39 -264 l -39 -278 l 181 -278 b 340 -118 283 -278 340 -224 z "},"ĳ":{"ha":847,"x_min":0,"x_max":0,"o":"m 214 818 b 357 960 300 818 357 875 b 214 1100 357 1044 300 1100 b 68 960 126 1100 68 1044 b 214 818 68 875 126 818 z m 638 818 b 781 960 724 818 781 875 b 638 1100 781 1044 724 1100 b 492 960 550 1100 492 1044 b 638 818 492 875 550 818 z m 83 0 l 340 0 l 340 764 l 83 764 z m 764 -118 l 764 764 l 507 764 l 507 -229 b 472 -264 507 -253 496 -264 l 385 -264 l 385 -278 l 604 -278 b 764 -118 707 -278 764 -224 z "},"ķ":{"ha":847,"x_min":0,"x_max":0,"o":"m 83 0 l 340 0 l 340 360 l 406 425 l 572 0 l 846 0 l 600 618 l 703 721 b 763 750 726 743 739 750 l 822 750 l 822 764 l 340 764 l 340 1042 l 83 1042 z m 681 750 b 694 739 689 750 694 746 b 683 721 694 733 689 726 l 340 379 l 340 750 z m 347 -271 l 361 -271 l 528 -96 l 528 -85 l 347 -85 z "},"ĸ":{"ha":847,"x_min":0,"x_max":0,"o":"m 83 0 l 340 0 l 340 360 l 406 425 l 572 0 l 846 0 l 600 618 l 703 721 b 763 750 726 743 739 750 l 822 750 l 822 764 l 83 764 z m 681 750 b 694 739 689 750 694 746 b 683 721 694 733 689 726 l 340 379 l 340 750 z "},"ĺ":{"ha":424,"x_min":0,"x_max":0,"o":"m 196 1097 l 207 1097 l 513 1310 l 513 1318 l 264 1318 z m 83 0 l 340 0 l 340 1042 l 83 1042 z "},"ľ":{"ha":544,"x_min":0,"x_max":0,"o":"m 83 0 l 340 0 l 340 1042 l 83 1042 z m 408 817 l 422 817 l 586 1031 l 586 1042 l 408 1042 z "},"ļ":{"ha":424,"x_min":0,"x_max":0,"o":"m 83 0 l 340 0 l 340 1042 l 83 1042 z m 119 -271 l 133 -271 l 300 -96 l 300 -85 l 119 -85 z "},"ŀ":{"ha":606,"x_min":0,"x_max":0,"o":"m 83 0 l 340 0 l 340 1042 l 83 1042 z m 518 385 b 661 526 604 385 661 442 b 518 667 661 611 604 667 b 372 526 431 667 372 611 b 518 385 372 442 431 385 z "},"ñ":{"ha":896,"x_min":0,"x_max":0,"o":"m 663 935 l 713 1053 l 700 1057 l 686 1025 b 563 1006 667 981 638 978 l 469 1040 b 313 982 400 1067 343 1051 l 261 863 l 274 858 l 288 890 b 394 917 304 929 340 939 l 503 874 b 663 935 574 846 629 857 z m 83 0 l 340 0 l 340 478 b 468 660 340 628 381 660 b 564 544 540 660 564 621 l 564 0 l 821 0 l 821 544 b 592 781 821 715 731 781 b 340 592 478 781 378 718 l 340 764 l 83 764 z "},"ń":{"ha":896,"x_min":0,"x_max":0,"o":"m 411 831 l 422 831 l 728 1043 l 728 1051 l 479 1051 z m 83 0 l 340 0 l 340 478 b 468 660 340 628 381 660 b 564 544 540 660 564 621 l 564 0 l 821 0 l 821 544 b 592 781 821 715 731 781 b 340 592 478 781 378 718 l 340 764 l 83 764 z "},"ň":{"ha":896,"x_min":0,"x_max":0,"o":"m 679 1074 l 661 1074 l 468 1000 l 276 1074 l 260 1074 l 465 831 l 472 831 z m 83 0 l 340 0 l 340 478 b 468 660 340 628 381 660 b 564 544 540 660 564 621 l 564 0 l 821 0 l 821 544 b 592 781 821 715 731 781 b 340 592 478 781 378 718 l 340 764 l 83 764 z "},"ņ":{"ha":896,"x_min":0,"x_max":0,"o":"m 83 0 l 340 0 l 340 478 b 468 660 340 628 381 660 b 564 544 540 660 564 621 l 564 0 l 821 0 l 821 544 b 592 781 821 715 731 781 b 340 592 478 781 378 718 l 340 764 l 83 764 z m 369 -271 l 383 -271 l 550 -96 l 550 -85 l 369 -85 z "},"ŋ":{"ha":896,"x_min":0,"x_max":0,"o":"m 83 0 l 340 0 l 340 478 b 468 660 340 628 381 660 b 564 544 540 660 564 621 l 564 -229 b 529 -264 564 -253 553 -264 l 442 -264 l 442 -278 l 661 -278 b 821 -118 764 -278 821 -224 l 821 544 b 592 781 821 715 731 781 b 340 592 478 781 378 718 l 340 764 l 83 764 z "},"ŉ":{"ha":1061,"x_min":0,"x_max":0,"o":"m 96 596 b 150 608 115 596 135 600 l 92 500 l 110 500 l 163 597 b 190 686 179 628 190 651 b 94 781 190 743 153 781 b 0 688 38 781 0 743 b 96 596 0 632 38 596 z m 249 0 l 506 0 l 506 478 b 633 660 506 628 546 660 b 729 544 706 660 729 621 l 729 0 l 986 0 l 986 544 b 757 781 986 715 896 781 b 506 592 643 781 543 718 l 506 764 l 249 764 z "},"ó":{"ha":878,"x_min":0,"x_max":0,"o":"m 425 831 l 436 831 l 742 1043 l 742 1051 l 493 1051 z m 439 781 b 39 382 188 781 39 632 b 439 -17 39 132 188 -17 b 839 382 690 -17 839 132 b 439 781 839 632 690 781 z m 439 171 b 303 299 354 171 303 218 l 303 465 b 439 593 303 546 354 593 b 575 465 524 593 575 546 l 575 299 b 439 171 575 218 524 171 z "},"ô":{"ha":878,"x_min":0,"x_max":0,"o":"m 631 831 l 649 831 l 442 1074 l 435 1074 l 229 831 l 246 831 l 438 904 z m 439 781 b 39 382 188 781 39 632 b 439 -17 39 132 188 -17 b 839 382 690 -17 839 132 b 439 781 839 632 690 781 z m 439 171 b 303 299 354 171 303 218 l 303 465 b 439 593 303 546 354 593 b 575 465 524 593 575 546 l 575 299 b 439 171 575 218 524 171 z "},"ö":{"ha":878,"x_min":0,"x_max":0,"o":"m 301 832 b 418 950 371 832 418 881 b 301 1067 418 1022 371 1067 b 182 950 231 1067 182 1022 b 301 832 182 881 231 832 z m 579 832 b 696 950 649 832 696 881 b 579 1067 696 1022 649 1067 b 460 950 510 1067 460 1022 b 579 832 460 881 510 832 z m 439 781 b 39 382 188 781 39 632 b 439 -17 39 132 188 -17 b 839 382 690 -17 839 132 b 439 781 839 632 690 781 z m 439 171 b 303 299 354 171 303 218 l 303 465 b 439 593 303 546 354 593 b 575 465 524 593 575 546 l 575 299 b 439 171 575 218 524 171 z "},"ò":{"ha":878,"x_min":0,"x_max":0,"o":"m 463 832 l 394 1053 l 146 1053 l 146 1044 l 451 832 z m 439 781 b 39 382 188 781 39 632 b 439 -17 39 132 188 -17 b 839 382 690 -17 839 132 b 439 781 839 632 690 781 z m 439 171 b 303 299 354 171 303 218 l 303 465 b 439 593 303 546 354 593 b 575 465 524 593 575 546 l 575 299 b 439 171 575 218 524 171 z "},"õ":{"ha":878,"x_min":0,"x_max":0,"o":"m 625 935 l 675 1053 l 663 1057 l 649 1025 b 525 1006 629 981 600 978 l 432 1040 b 275 982 363 1067 306 1051 l 224 863 l 236 858 l 250 890 b 357 917 267 929 303 939 l 465 874 b 625 935 536 846 592 857 z m 439 781 b 39 382 188 781 39 632 b 439 -17 39 132 188 -17 b 839 382 690 -17 839 132 b 439 781 839 632 690 781 z m 439 171 b 303 299 354 171 303 218 l 303 465 b 439 593 303 546 354 593 b 575 465 524 593 575 546 l 575 299 b 439 171 575 218 524 171 z "},"ŏ":{"ha":878,"x_min":0,"x_max":0,"o":"m 439 840 b 632 1044 556 840 632 911 l 632 1069 l 619 1069 l 619 1056 b 536 981 619 1003 596 981 l 343 981 b 258 1056 282 981 258 1003 l 258 1069 l 246 1069 l 246 1043 b 439 840 246 910 322 840 z m 439 781 b 39 382 188 781 39 632 b 439 -17 39 132 188 -17 b 839 382 690 -17 839 132 b 439 781 839 632 690 781 z m 439 171 b 303 299 354 171 303 218 l 303 465 b 439 593 303 546 354 593 b 575 465 524 593 575 546 l 575 299 b 439 171 575 218 524 171 z "},"ő":{"ha":878,"x_min":0,"x_max":0,"o":"m 288 831 l 299 831 l 535 1050 l 535 1058 l 356 1058 z m 501 831 l 513 831 l 749 1050 l 749 1058 l 569 1058 z m 439 781 b 39 382 188 781 39 632 b 439 -17 39 132 188 -17 b 839 382 690 -17 839 132 b 439 781 839 632 690 781 z m 439 171 b 303 299 354 171 303 218 l 303 465 b 439 593 303 546 354 593 b 575 465 524 593 575 546 l 575 299 b 439 171 575 218 524 171 z "},"ō":{"ha":878,"x_min":0,"x_max":0,"o":"m 231 869 l 647 869 l 647 1008 l 231 1008 z m 439 781 b 39 382 188 781 39 632 b 439 -17 39 132 188 -17 b 839 382 690 -17 839 132 b 439 781 839 632 690 781 z m 439 171 b 303 299 354 171 303 218 l 303 465 b 439 593 303 546 354 593 b 575 465 524 593 575 546 l 575 299 b 439 171 575 218 524 171 z "},"ŕ":{"ha":788,"x_min":0,"x_max":0,"o":"m 381 831 l 392 831 l 697 1043 l 697 1051 l 449 1051 z m 83 0 l 340 0 l 340 494 b 436 667 340 600 360 667 b 503 599 488 667 503 644 l 503 403 l 739 403 l 739 628 b 574 771 739 738 658 771 b 340 611 464 771 376 717 l 340 764 l 83 764 z "},"ř":{"ha":788,"x_min":0,"x_max":0,"o":"m 650 1074 l 632 1074 l 439 1000 l 247 1074 l 231 1074 l 436 831 l 443 831 z m 83 0 l 340 0 l 340 494 b 436 667 340 600 360 667 b 503 599 488 667 503 644 l 503 403 l 739 403 l 739 628 b 574 771 739 738 658 771 b 340 611 464 771 376 717 l 340 764 l 83 764 z "},"ŗ":{"ha":788,"x_min":0,"x_max":0,"o":"m 83 0 l 340 0 l 340 494 b 436 667 340 600 360 667 b 503 599 488 667 503 644 l 503 403 l 739 403 l 739 628 b 574 771 739 738 658 771 b 340 611 464 771 376 717 l 340 764 l 83 764 z m 119 -271 l 133 -271 l 300 -96 l 300 -85 l 119 -85 z "},"š":{"ha":792,"x_min":0,"x_max":0,"o":"m 606 1074 l 588 1074 l 394 1000 l 203 1074 l 186 1074 l 392 831 l 399 831 z m 396 613 b 508 529 472 613 508 582 l 508 496 l 743 496 l 743 528 b 396 781 743 697 622 781 b 43 560 165 781 43 704 b 251 397 43 449 103 407 l 436 385 b 518 304 496 381 518 356 l 518 236 b 406 150 518 181 481 150 b 279 236 321 150 279 181 l 279 272 l 39 272 l 39 240 b 406 -17 39 67 165 -17 b 758 211 635 -17 758 63 b 564 388 758 311 708 378 l 371 401 b 282 472 307 406 282 426 l 282 529 b 396 613 282 582 319 613 z "},"ś":{"ha":792,"x_min":0,"x_max":0,"o":"m 367 831 l 378 831 l 683 1043 l 683 1051 l 435 1051 z m 396 613 b 508 529 472 613 508 582 l 508 496 l 743 496 l 743 528 b 396 781 743 697 622 781 b 43 560 165 781 43 704 b 251 397 43 449 103 407 l 436 385 b 518 304 496 381 518 356 l 518 236 b 406 150 518 181 481 150 b 279 236 321 150 279 181 l 279 272 l 39 272 l 39 240 b 406 -17 39 67 165 -17 b 758 211 635 -17 758 63 b 564 388 758 311 708 378 l 371 401 b 282 472 307 406 282 426 l 282 529 b 396 613 282 582 319 613 z "},"ş":{"ha":792,"x_min":0,"x_max":0,"o":"m 351 -103 l 404 -103 b 432 -131 422 -103 432 -112 l 432 -153 b 404 -181 432 -171 422 -181 l 306 -181 l 306 -278 l 461 -278 b 568 -183 528 -278 568 -242 b 461 -89 568 -124 528 -89 l 390 -89 b 379 -71 379 -89 375 -82 l 401 -17 l 406 -17 b 758 211 635 -17 758 63 b 564 388 758 311 708 378 l 371 401 b 282 472 307 406 282 426 l 282 529 b 396 613 282 582 319 613 b 508 529 472 613 508 582 l 508 496 l 743 496 l 743 528 b 396 781 743 697 622 781 b 43 560 165 781 43 704 b 251 397 43 449 103 407 l 436 385 b 518 304 496 381 518 356 l 518 236 b 406 150 518 181 481 150 b 279 236 321 150 279 181 l 279 272 l 39 272 l 39 240 b 385 -17 39 72 158 -11 z "},"ŝ":{"ha":792,"x_min":0,"x_max":0,"o":"m 588 831 l 606 831 l 399 1074 l 392 1074 l 186 831 l 203 831 l 394 904 z m 396 613 b 508 529 472 613 508 582 l 508 496 l 743 496 l 743 528 b 396 781 743 697 622 781 b 43 560 165 781 43 704 b 251 397 43 449 103 407 l 436 385 b 518 304 496 381 518 356 l 518 236 b 406 150 518 181 481 150 b 279 236 321 150 279 181 l 279 272 l 39 272 l 39 240 b 406 -17 39 67 165 -17 b 758 211 635 -17 758 63 b 564 388 758 311 708 378 l 371 401 b 282 472 307 406 282 426 l 282 529 b 396 613 282 582 319 613 z "},"ș":{"ha":792,"x_min":0,"x_max":0,"o":"m 396 613 b 508 529 472 613 508 582 l 508 496 l 743 496 l 743 528 b 396 781 743 697 622 781 b 43 560 165 781 43 704 b 251 397 43 449 103 407 l 436 385 b 518 304 496 381 518 356 l 518 236 b 406 150 518 181 481 150 b 279 236 321 150 279 181 l 279 272 l 39 272 l 39 240 b 406 -17 39 67 165 -17 b 758 211 635 -17 758 63 b 564 388 758 311 708 378 l 371 401 b 282 472 307 406 282 426 l 282 529 b 396 613 282 582 319 613 z m 319 -271 l 333 -271 l 500 -96 l 500 -85 l 319 -85 z "},"ŧ":{"ha":475,"x_min":0,"x_max":0,"o":"m 100 160 b 260 0 100 54 157 0 l 489 0 l 489 14 l 392 14 b 357 49 369 14 357 26 l 357 469 l 489 469 l 489 483 l 357 483 l 357 729 b 378 750 357 743 364 750 l 489 750 l 489 764 l 378 764 b 357 785 364 764 357 771 l 357 986 l 351 986 b 100 818 306 863 190 818 l 100 764 l 13 764 l 13 750 l 100 750 l 100 483 l 13 483 l 13 469 l 100 469 z "},"ť":{"ha":475,"x_min":0,"x_max":0,"o":"m 435 817 l 449 817 l 613 1031 l 613 1042 l 435 1042 z m 100 160 b 260 0 100 54 157 0 l 489 0 l 489 14 l 392 14 b 357 49 369 14 357 26 l 357 729 b 378 750 357 743 364 750 l 489 750 l 489 764 l 378 764 b 357 785 364 764 357 771 l 357 986 l 351 986 b 100 818 306 863 190 818 l 100 764 l 13 764 l 13 750 l 100 750 z "},"ţ":{"ha":475,"x_min":0,"x_max":0,"o":"m 100 160 b 260 0 100 54 157 0 l 489 0 l 489 14 l 392 14 b 357 49 369 14 357 26 l 357 729 b 378 750 357 743 364 750 l 489 750 l 489 764 l 378 764 b 357 785 364 764 357 771 l 357 986 l 351 986 b 100 818 306 863 190 818 l 100 764 l 13 764 l 13 750 l 100 750 z m 185 -271 l 199 -271 l 365 -96 l 365 -85 l 185 -85 z "},"ț":{"ha":475,"x_min":0,"x_max":0,"o":"m 100 160 b 260 0 100 54 157 0 l 489 0 l 489 14 l 392 14 b 357 49 369 14 357 26 l 357 729 b 378 750 357 743 364 750 l 489 750 l 489 764 l 378 764 b 357 785 364 764 357 771 l 357 986 l 351 986 b 100 818 306 863 190 818 l 100 764 l 13 764 l 13 750 l 100 750 z m 185 -271 l 199 -271 l 365 -96 l 365 -85 l 185 -85 z "},"ú":{"ha":882,"x_min":0,"x_max":0,"o":"m 413 831 l 424 831 l 729 1043 l 729 1051 l 481 1051 z m 311 -17 b 542 186 417 -17 510 50 l 542 0 l 799 0 l 799 764 l 542 764 l 542 300 b 431 117 542 149 497 117 b 332 219 357 117 332 151 l 332 764 l 75 764 l 75 219 b 311 -17 75 49 167 -17 z "},"û":{"ha":882,"x_min":0,"x_max":0,"o":"m 633 831 l 651 831 l 444 1074 l 438 1074 l 232 831 l 249 831 l 440 904 z m 311 -17 b 542 186 417 -17 510 50 l 542 0 l 799 0 l 799 764 l 542 764 l 542 300 b 431 117 542 149 497 117 b 332 219 357 117 332 151 l 332 764 l 75 764 l 75 219 b 311 -17 75 49 167 -17 z "},"ü":{"ha":882,"x_min":0,"x_max":0,"o":"m 304 832 b 421 950 374 832 421 881 b 304 1067 421 1022 374 1067 b 185 950 233 1067 185 1022 b 304 832 185 881 233 832 z m 582 832 b 699 950 651 832 699 881 b 582 1067 699 1022 651 1067 b 463 950 513 1067 463 1022 b 582 832 463 881 513 832 z m 311 -17 b 542 186 417 -17 510 50 l 542 0 l 799 0 l 799 764 l 542 764 l 542 300 b 431 117 542 149 497 117 b 332 219 357 117 332 151 l 332 764 l 75 764 l 75 219 b 311 -17 75 49 167 -17 z "},"ù":{"ha":882,"x_min":0,"x_max":0,"o":"m 475 832 l 407 1053 l 158 1053 l 158 1044 l 464 832 z m 311 -17 b 542 186 417 -17 510 50 l 542 0 l 799 0 l 799 764 l 542 764 l 542 300 b 431 117 542 149 497 117 b 332 219 357 117 332 151 l 332 764 l 75 764 l 75 219 b 311 -17 75 49 167 -17 z "},"ŭ":{"ha":882,"x_min":0,"x_max":0,"o":"m 442 840 b 635 1044 558 840 635 911 l 635 1069 l 622 1069 l 622 1056 b 539 981 622 1003 599 981 l 346 981 b 261 1056 285 981 261 1003 l 261 1069 l 249 1069 l 249 1043 b 442 840 249 910 325 840 z m 311 -17 b 542 186 417 -17 510 50 l 542 0 l 799 0 l 799 764 l 542 764 l 542 300 b 431 117 542 149 497 117 b 332 219 357 117 332 151 l 332 764 l 75 764 l 75 219 b 311 -17 75 49 167 -17 z "},"ű":{"ha":882,"x_min":0,"x_max":0,"o":"m 289 831 l 300 831 l 536 1050 l 536 1058 l 357 1058 z m 503 831 l 514 831 l 750 1050 l 750 1058 l 571 1058 z m 311 -17 b 542 186 417 -17 510 50 l 542 0 l 799 0 l 799 764 l 542 764 l 542 300 b 431 117 542 149 497 117 b 332 219 357 117 332 151 l 332 764 l 75 764 l 75 219 b 311 -17 75 49 167 -17 z "},"ū":{"ha":882,"x_min":0,"x_max":0,"o":"m 233 869 l 650 869 l 650 1008 l 233 1008 z m 311 -17 b 542 186 417 -17 510 50 l 542 0 l 799 0 l 799 764 l 542 764 l 542 300 b 431 117 542 149 497 117 b 332 219 357 117 332 151 l 332 764 l 75 764 l 75 219 b 311 -17 75 49 167 -17 z "},"ų":{"ha":882,"x_min":0,"x_max":0,"o":"m 311 -17 b 542 186 417 -17 510 50 l 542 0 l 708 0 b 532 -169 592 -49 532 -97 b 664 -278 532 -235 578 -278 l 750 -278 l 750 -153 l 689 -153 b 656 -118 665 -153 656 -143 l 656 -90 b 736 0 656 -40 675 -25 l 799 0 l 799 764 l 542 764 l 542 300 b 431 117 542 149 497 117 b 332 219 357 117 332 151 l 332 764 l 75 764 l 75 219 b 311 -17 75 49 167 -17 z "},"ů":{"ha":882,"x_min":0,"x_max":0,"o":"m 442 836 b 571 954 515 836 571 886 b 442 1071 571 1022 515 1071 b 313 954 368 1071 313 1022 b 442 836 313 886 368 836 z m 442 1061 b 521 1001 492 1061 521 1038 l 521 906 b 442 846 521 869 492 846 b 363 906 392 846 363 869 l 363 1001 b 442 1061 363 1038 392 1061 z m 311 -17 b 542 186 417 -17 510 50 l 542 0 l 799 0 l 799 764 l 542 764 l 542 300 b 431 117 542 149 497 117 b 332 219 357 117 332 151 l 332 764 l 75 764 l 75 219 b 311 -17 75 49 167 -17 z "},"ũ":{"ha":882,"x_min":0,"x_max":0,"o":"m 636 935 l 686 1053 l 674 1057 l 660 1025 b 536 1006 640 981 611 978 l 443 1040 b 286 982 374 1067 317 1051 l 235 863 l 247 858 l 261 890 b 368 917 278 929 314 939 l 476 874 b 636 935 547 846 603 857 z m 311 -17 b 542 186 417 -17 510 50 l 542 0 l 799 0 l 799 764 l 542 764 l 542 300 b 431 117 542 149 497 117 b 332 219 357 117 332 151 l 332 764 l 75 764 l 75 219 b 311 -17 75 49 167 -17 z "},"ẃ":{"ha":1139,"x_min":0,"x_max":0,"o":"m 583 831 l 594 831 l 900 1043 l 900 1051 l 651 1051 z m 247 764 l 0 764 l 161 0 l 408 0 l 481 307 b 497 324 483 317 488 324 b 515 308 507 324 513 318 l 619 0 l 979 0 l 1139 764 l 899 764 l 786 201 l 588 781 l 578 781 l 401 35 z "},"ŵ":{"ha":1139,"x_min":0,"x_max":0,"o":"m 776 831 l 794 831 l 588 1074 l 581 1074 l 375 831 l 392 831 l 583 904 z m 247 764 l 0 764 l 161 0 l 408 0 l 481 307 b 497 324 483 317 488 324 b 515 308 507 324 513 318 l 619 0 l 979 0 l 1139 764 l 899 764 l 786 201 l 588 781 l 578 781 l 401 35 z "},"ẅ":{"ha":1139,"x_min":0,"x_max":0,"o":"m 446 832 b 563 950 515 832 563 881 b 446 1067 563 1022 515 1067 b 326 950 375 1067 326 1022 b 446 832 326 881 375 832 z m 724 832 b 840 950 793 832 840 881 b 724 1067 840 1022 793 1067 b 604 950 654 1067 604 1022 b 724 832 604 881 654 832 z m 247 764 l 0 764 l 161 0 l 408 0 l 481 307 b 497 324 483 317 488 324 b 515 308 507 324 513 318 l 619 0 l 979 0 l 1139 764 l 899 764 l 786 201 l 588 781 l 578 781 l 401 35 z "},"ẁ":{"ha":1139,"x_min":0,"x_max":0,"o":"m 582 832 l 514 1053 l 265 1053 l 265 1044 l 571 832 z m 247 764 l 0 764 l 161 0 l 408 0 l 481 307 b 497 324 483 317 488 324 b 515 308 507 324 513 318 l 619 0 l 979 0 l 1139 764 l 899 764 l 786 201 l 588 781 l 578 781 l 401 35 z "},"ý":{"ha":749,"x_min":0,"x_max":0,"o":"m 356 831 l 367 831 l 672 1043 l 672 1051 l 424 1051 z m 496 556 l 590 556 b 636 511 624 556 636 540 b 614 411 636 485 632 465 l 510 96 b 494 83 507 88 503 83 l 481 83 b 463 101 471 83 467 88 l 269 764 l 0 764 l 214 69 l 489 69 b 497 57 496 69 500 64 l 463 -49 b 436 -69 457 -64 450 -69 l 111 -69 l 111 -278 l 290 -278 b 478 -49 400 -278 414 -240 l 749 764 l 496 764 z "},"ÿ":{"ha":749,"x_min":0,"x_max":0,"o":"m 267 832 b 383 950 336 832 383 881 b 267 1067 383 1022 336 1067 b 147 950 196 1067 147 1022 b 267 832 147 881 196 832 z m 544 832 b 661 950 614 832 661 881 b 544 1067 661 1022 614 1067 b 425 950 475 1067 425 1022 b 544 832 425 881 475 832 z m 496 556 l 590 556 b 636 511 624 556 636 540 b 614 411 636 485 632 465 l 510 96 b 494 83 507 88 503 83 l 481 83 b 463 101 471 83 467 88 l 269 764 l 0 764 l 214 69 l 489 69 b 497 57 496 69 500 64 l 463 -49 b 436 -69 457 -64 450 -69 l 111 -69 l 111 -278 l 290 -278 b 478 -49 400 -278 414 -240 l 749 764 l 496 764 z "},"ŷ":{"ha":749,"x_min":0,"x_max":0,"o":"m 588 831 l 606 831 l 399 1074 l 392 1074 l 186 831 l 203 831 l 394 904 z m 496 556 l 590 556 b 636 511 624 556 636 540 b 614 411 636 485 632 465 l 510 96 b 494 83 507 88 503 83 l 481 83 b 463 101 471 83 467 88 l 269 764 l 0 764 l 214 69 l 489 69 b 497 57 496 69 500 64 l 463 -49 b 436 -69 457 -64 450 -69 l 111 -69 l 111 -278 l 290 -278 b 478 -49 400 -278 414 -240 l 749 764 l 496 764 z "},"ỳ":{"ha":749,"x_min":0,"x_max":0,"o":"m 429 832 l 361 1053 l 113 1053 l 113 1044 l 418 832 z m 496 556 l 590 556 b 636 511 624 556 636 540 b 614 411 636 485 632 465 l 510 96 b 494 83 507 88 503 83 l 481 83 b 463 101 471 83 467 88 l 269 764 l 0 764 l 214 69 l 489 69 b 497 57 496 69 500 64 l 463 -49 b 436 -69 457 -64 450 -69 l 111 -69 l 111 -278 l 290 -278 b 478 -49 400 -278 414 -240 l 749 764 l 496 764 z "},"ž":{"ha":667,"x_min":0,"x_max":0,"o":"m 549 1074 l 531 1074 l 338 1000 l 146 1074 l 129 1074 l 335 831 l 342 831 z m -14 0 l 653 0 l 653 194 l 340 194 l 642 750 l 642 764 l 21 764 l 21 750 l 361 750 b 372 725 375 750 379 738 l -14 14 z "},"ź":{"ha":667,"x_min":0,"x_max":0,"o":"m 278 831 l 289 831 l 594 1043 l 594 1051 l 346 1051 z m -14 0 l 653 0 l 653 194 l 340 194 l 642 750 l 642 764 l 21 764 l 21 750 l 361 750 b 372 725 375 750 379 738 l -14 14 z "},"ż":{"ha":667,"x_min":0,"x_max":0,"o":"m 321 825 b 457 960 403 825 457 879 b 321 1093 457 1040 403 1093 b 182 960 238 1093 182 1040 b 321 825 182 879 238 825 z m -14 0 l 653 0 l 653 194 l 340 194 l 642 750 l 642 764 l 21 764 l 21 750 l 361 750 b 372 725 375 750 379 738 l -14 14 z "},"´":{"ha":878,"x_min":0,"x_max":0,"o":"m 410 831 l 421 831 l 726 1043 l 726 1051 l 478 1051 z "},"`":{"ha":838,"x_min":0,"x_max":0,"o":"m 485 832 l 417 1053 l 168 1053 l 168 1044 l 474 832 z "},"ˆ":{"ha":878,"x_min":0,"x_max":0,"o":"m 631 831 l 649 831 l 442 1074 l 435 1074 l 229 831 l 246 831 l 438 904 z "},"ˇ":{"ha":878,"x_min":0,"x_max":0,"o":"m 649 1074 l 631 1074 l 438 1000 l 246 1074 l 229 1074 l 435 831 l 442 831 z "},"˜":{"ha":878,"x_min":0,"x_max":0,"o":"m 644 935 l 694 1053 l 682 1057 l 668 1025 b 544 1006 649 981 619 978 l 451 1040 b 294 982 382 1067 325 1051 l 243 863 l 256 858 l 269 890 b 376 917 286 929 322 939 l 485 874 b 644 935 556 846 611 857 z "},"¨":{"ha":514,"x_min":0,"x_max":0,"o":"m 119 832 b 236 950 189 832 236 881 b 119 1067 236 1022 189 1067 b 0 950 49 1067 0 1022 b 119 832 0 881 49 832 z m 397 832 b 514 950 467 832 514 881 b 397 1067 514 1022 467 1067 b 278 950 328 1067 278 1022 b 397 832 278 881 328 832 z "},"˚":{"ha":519,"x_min":0,"x_max":0,"o":"m 260 836 b 389 954 333 836 389 886 b 260 1071 389 1022 333 1071 b 131 954 186 1071 131 1022 b 260 836 131 886 186 836 z m 260 1061 b 339 1001 310 1061 339 1038 l 339 906 b 260 846 339 869 310 846 b 181 906 210 846 181 869 l 181 1001 b 260 1061 181 1038 210 1061 z "},"¸":{"ha":851,"x_min":0,"x_max":0,"o":"m 381 -103 l 433 -103 b 461 -131 451 -103 461 -112 l 461 -153 b 433 -181 461 -171 451 -181 l 335 -181 l 335 -278 l 490 -278 b 597 -183 557 -278 597 -242 b 490 -89 597 -124 557 -89 l 419 -89 b 408 -71 408 -89 404 -82 l 438 0 l 421 0 z "},"˝":{"ha":882,"x_min":0,"x_max":0,"o":"m 289 831 l 300 831 l 536 1050 l 536 1058 l 357 1058 z m 503 831 l 514 831 l 750 1050 l 750 1058 l 571 1058 z "},"˘":{"ha":664,"x_min":0,"x_max":0,"o":"m 332 840 b 525 1044 449 840 525 911 l 525 1069 l 513 1069 l 513 1056 b 429 981 513 1003 489 981 l 236 981 b 151 1056 175 981 151 1003 l 151 1069 l 139 1069 l 139 1043 b 332 840 139 910 215 840 z "},"¯":{"ha":694,"x_min":0,"x_max":0,"o":"m 139 869 l 556 869 l 556 1008 l 139 1008 z "},"˙":{"ha":514,"x_min":0,"x_max":0,"o":"m 258 825 b 394 960 340 825 394 879 b 258 1093 394 1040 340 1093 b 119 960 175 1093 119 1040 b 258 825 119 879 175 825 z "},"·":{"ha":514,"x_min":0,"x_max":0,"o":"m 258 385 b 401 526 344 385 401 442 b 258 667 401 611 344 667 b 113 526 171 667 113 611 b 258 385 113 442 171 385 z "},"˛":{"ha":424,"x_min":0,"x_max":0,"o":"m 326 6 b 136 -169 200 -44 136 -94 b 268 -278 136 -235 182 -278 l 354 -278 l 354 -153 l 293 -153 b 260 -118 269 -153 260 -143 l 260 -90 b 340 0 260 -40 279 -25 z "},"":{"ha":792,"x_min":0,"x_max":0,"o":"m 319 -271 l 333 -271 l 500 -96 l 500 -85 l 319 -85 z "},".":{"ha":431,"x_min":0,"x_max":0,"o":"m 217 -17 b 364 132 306 -17 364 43 b 217 279 364 221 306 279 b 67 132 126 279 67 221 b 217 -17 67 43 126 -17 z "},",":{"ha":431,"x_min":0,"x_max":0,"o":"m 214 -15 b 331 36 265 -15 307 8 l 196 -250 l 208 -250 l 326 1 b 364 131 347 46 364 81 b 214 279 364 221 306 279 b 67 131 125 279 67 219 b 214 -15 67 43 125 -15 z "},":":{"ha":431,"x_min":0,"x_max":0,"o":"m 217 443 b 364 592 306 443 364 503 b 217 739 364 681 306 739 b 67 592 126 739 67 681 b 217 443 67 503 126 443 z m 217 -17 b 364 132 306 -17 364 43 b 217 279 364 221 306 279 b 67 132 126 279 67 221 b 217 -17 67 43 126 -17 z "},";":{"ha":431,"x_min":0,"x_max":0,"o":"m 217 443 b 364 592 306 443 364 503 b 217 739 364 681 306 739 b 67 592 126 739 67 681 b 217 443 67 503 126 443 z m 214 -15 b 331 36 265 -15 307 8 l 196 -250 l 208 -250 l 326 1 b 364 131 347 46 364 81 b 214 279 364 221 306 279 b 67 131 125 279 67 219 b 214 -15 67 43 125 -15 z "},"…":{"ha":1178,"x_min":0,"x_max":0,"o":"m 217 -17 b 364 132 306 -17 364 43 b 217 279 364 221 306 279 b 67 132 126 279 67 221 b 217 -17 67 43 126 -17 z m 590 -17 b 738 132 679 -17 738 43 b 590 279 738 221 679 279 b 440 132 500 279 440 221 b 590 -17 440 43 500 -17 z m 964 -17 b 1111 132 1053 -17 1111 43 b 964 279 1111 221 1053 279 b 814 132 874 279 814 221 b 964 -17 814 43 874 -17 z "},"?":{"ha":865,"x_min":0,"x_max":0,"o":"m 440 782 b 564 663 528 782 564 747 b 474 492 564 579 564 538 b 392 369 399 453 392 426 l 392 326 l 406 326 l 406 369 b 499 474 406 419 414 461 b 821 708 728 511 821 581 b 433 989 821 892 701 989 b 38 675 176 989 38 876 l 38 636 l 300 636 l 300 675 b 440 782 300 751 340 782 z m 407 -17 b 554 132 496 -17 554 43 b 407 279 554 221 496 279 b 257 132 317 279 257 221 b 407 -17 257 43 317 -17 z "},"!":{"ha":525,"x_min":0,"x_max":0,"o":"m 267 326 l 267 378 b 396 499 267 482 317 493 l 396 972 l 126 972 l 126 499 b 256 378 208 493 256 482 l 256 326 z m 264 -17 b 411 132 353 -17 411 43 b 264 279 411 221 353 279 b 114 132 174 279 114 221 b 264 -17 114 43 174 -17 z "},"¿":{"ha":865,"x_min":0,"x_max":0,"o":"m 458 781 b 311 632 369 781 311 721 b 458 485 311 543 369 485 b 608 632 549 485 608 543 b 458 781 608 721 549 781 z m 425 -18 b 301 101 338 -18 301 17 b 392 272 301 185 301 226 b 474 394 467 311 474 338 l 474 438 l 460 438 l 460 394 b 367 290 460 344 451 303 b 44 56 138 253 44 183 b 432 -225 44 -128 164 -225 b 828 89 689 -225 828 -112 l 828 128 l 565 128 l 565 89 b 425 -18 565 13 525 -18 z "},"¡":{"ha":525,"x_min":0,"x_max":0,"o":"m 264 781 b 114 632 174 781 114 721 b 264 485 114 543 174 485 b 411 632 353 485 411 543 b 264 781 411 721 353 781 z m 267 438 l 256 438 l 256 386 b 126 265 256 282 208 271 l 126 -208 l 396 -208 l 396 265 b 267 386 317 271 267 282 z "},"(":{"ha":560,"x_min":0,"x_max":0,"o":"m 358 601 b 532 1057 358 794 393 924 l 525 1064 b 97 413 211 839 97 661 b 525 -239 97 164 211 -14 l 532 -232 b 358 207 396 -103 358 21 z "},")":{"ha":560,"x_min":0,"x_max":0,"o":"m 201 229 b 28 -226 201 36 167 -93 l 35 -233 b 463 418 349 -8 463 169 b 35 1069 463 667 349 844 l 28 1063 b 201 624 164 933 201 810 z "},"{":{"ha":624,"x_min":0,"x_max":0,"o":"m 56 424 l 56 407 l 153 407 b 181 379 171 407 181 397 l 181 -65 b 382 -225 181 -200 246 -225 l 589 -225 l 589 -208 l 458 -208 b 431 -181 438 -208 431 -201 l 431 194 b 206 407 431 333 353 407 l 206 424 b 431 622 353 424 431 493 l 431 1011 b 458 1039 431 1032 438 1039 l 589 1039 l 589 1056 l 382 1056 b 181 896 246 1056 181 1031 l 181 451 b 153 424 181 433 171 424 z "},"}":{"ha":624,"x_min":0,"x_max":0,"o":"m 568 424 l 471 424 b 443 451 453 424 443 433 l 443 896 b 242 1056 443 1031 378 1056 l 35 1056 l 35 1039 l 165 1039 b 193 1011 186 1039 193 1032 l 193 622 b 418 424 193 493 271 424 l 418 407 b 193 194 271 407 193 333 l 193 -181 b 165 -208 193 -201 186 -208 l 35 -208 l 35 -225 l 242 -225 b 443 -65 378 -225 443 -200 l 443 379 b 471 407 443 397 453 407 l 568 407 z "},"[":{"ha":588,"x_min":0,"x_max":0,"o":"m 111 -225 l 553 -225 l 553 -208 l 367 -208 l 367 1039 l 553 1039 l 553 1056 l 111 1056 z "},"]":{"ha":588,"x_min":0,"x_max":0,"o":"m 476 -225 l 476 1056 l 35 1056 l 35 1039 l 221 1039 l 221 -208 l 35 -208 l 35 -225 z "},"/":{"ha":535,"x_min":0,"x_max":0,"o":"m 69 0 l 115 0 l 465 972 l 419 972 z "},"\\":{"ha":538,"x_min":0,"x_max":0,"o":"m 468 0 l 118 972 l 69 972 l 419 0 z "},"_":{"ha":722,"x_min":0,"x_max":0,"o":"m 35 -214 l 688 -214 l 688 -26 l 35 -26 z "},"-":{"ha":589,"x_min":0,"x_max":0,"o":"m 83 386 l 506 386 l 506 618 l 83 618 z "},"­":{"ha":589,"x_min":0,"x_max":0,"o":"m 83 386 l 506 386 l 506 618 l 83 618 z "},"–":{"ha":694,"x_min":0,"x_max":0,"o":"m 35 392 l 660 392 l 660 579 l 35 579 z "},"—":{"ha":1389,"x_min":0,"x_max":0,"o":"m 35 392 l 1354 392 l 1354 579 l 35 579 z "},"¦":{"ha":417,"x_min":0,"x_max":0,"o":"m 222 479 l 222 1056 l 194 1056 l 194 479 z m 222 -236 l 222 340 l 194 340 l 194 -236 z "},"|":{"ha":417,"x_min":0,"x_max":0,"o":"m 222 -236 l 222 1056 l 194 1056 l 194 -236 z "},"«":{"ha":1074,"x_min":0,"x_max":0,"o":"m 504 357 l 122 504 l 504 689 l 504 706 l 71 496 l 71 289 l 504 108 z m 993 357 l 611 504 l 993 689 l 993 706 l 560 496 l 560 289 l 993 108 z "},"»":{"ha":1074,"x_min":0,"x_max":0,"o":"m 81 457 l 463 310 l 81 125 l 81 108 l 514 318 l 514 525 l 81 706 z m 569 457 l 951 310 l 569 125 l 569 108 l 1003 318 l 1003 525 l 569 706 z "},"‹":{"ha":585,"x_min":0,"x_max":0,"o":"m 504 357 l 122 504 l 504 689 l 504 706 l 71 496 l 71 289 l 504 108 z "},"›":{"ha":585,"x_min":0,"x_max":0,"o":"m 81 457 l 463 310 l 81 125 l 81 108 l 514 318 l 514 525 l 81 706 z "},"‚":{"ha":447,"x_min":0,"x_max":0,"o":"m 221 -10 b 321 26 264 -10 299 7 l 224 -181 l 239 -181 l 321 -4 b 358 124 342 40 358 74 b 219 260 358 207 304 260 b 83 124 138 260 83 206 b 221 -10 83 44 138 -10 z "},"„":{"ha":786,"x_min":0,"x_max":0,"o":"m 221 -10 b 321 26 264 -10 299 7 l 224 -181 l 239 -181 l 321 -4 b 358 124 342 40 358 74 b 219 260 358 207 304 260 b 83 124 138 260 83 206 b 221 -10 83 44 138 -10 z m 560 -10 b 660 26 603 -10 638 7 l 563 -181 l 578 -181 l 660 -4 b 697 124 681 40 697 74 b 558 260 697 207 643 260 b 422 124 476 260 422 206 b 560 -10 422 44 476 -10 z "},"‘":{"ha":447,"x_min":0,"x_max":0,"o":"m 226 801 b 126 765 183 801 149 785 l 224 972 l 208 972 l 126 796 b 89 668 106 751 89 718 b 228 532 89 585 143 532 b 364 668 310 532 364 586 b 226 801 364 747 310 801 z "},"“":{"ha":786,"x_min":0,"x_max":0,"o":"m 226 801 b 126 765 183 801 149 785 l 224 972 l 208 972 l 126 796 b 89 668 106 751 89 718 b 228 532 89 585 143 532 b 364 668 310 532 364 586 b 226 801 364 747 310 801 z m 565 801 b 465 765 522 801 488 785 l 563 972 l 547 972 l 465 796 b 428 668 444 751 428 718 b 567 532 428 585 482 532 b 703 668 649 532 703 586 b 565 801 703 747 649 801 z "},"’":{"ha":447,"x_min":0,"x_max":0,"o":"m 221 708 b 321 744 264 708 299 725 l 224 538 l 239 538 l 321 714 b 358 842 342 758 358 792 b 219 978 358 925 304 978 b 83 842 138 978 83 924 b 221 708 83 763 138 708 z "},"”":{"ha":786,"x_min":0,"x_max":0,"o":"m 221 708 b 321 744 264 708 299 725 l 224 538 l 239 538 l 321 714 b 358 842 342 758 358 792 b 219 978 358 925 304 978 b 83 842 138 978 83 924 b 221 708 83 763 138 708 z m 560 708 b 660 744 603 708 638 725 l 563 538 l 578 538 l 660 714 b 697 842 681 758 697 792 b 558 978 697 925 643 978 b 422 842 476 978 422 924 b 560 708 422 763 476 708 z "},"'":{"ha":408,"x_min":0,"x_max":0,"o":"m 210 514 l 210 572 b 325 660 210 649 254 654 l 325 972 l 83 972 l 83 660 b 199 572 157 654 199 649 l 199 514 z "},"\"":{"ha":719,"x_min":0,"x_max":0,"o":"m 203 514 l 203 572 b 311 660 203 649 244 654 l 311 972 l 83 972 l 83 660 b 192 572 153 654 192 649 l 192 514 z m 528 514 l 528 572 b 636 660 528 649 569 654 l 636 972 l 408 972 l 408 660 b 517 572 478 654 517 649 l 517 514 z "},"•":{"ha":550,"x_min":0,"x_max":0,"o":"m 276 336 b 467 526 386 336 467 417 b 276 715 467 635 386 715 b 83 526 165 715 83 635 b 276 336 83 417 165 336 z "},"&":{"ha":988,"x_min":0,"x_max":0,"o":"m 881 682 b 485 989 881 863 785 989 b 79 713 210 989 79 876 b 406 489 79 556 190 504 b 51 232 192 479 51 415 b 325 -17 51 72 146 -17 b 613 215 476 -17 568 60 l 613 139 b 751 0 613 49 661 0 l 983 0 l 983 17 l 918 17 b 881 53 890 17 881 22 l 881 482 l 983 482 l 983 499 l 881 499 l 881 628 l 872 628 b 610 499 831 535 718 499 l 461 499 b 343 601 386 499 343 536 l 343 663 b 485 774 343 736 382 774 b 618 682 576 774 618 743 z m 475 146 b 343 276 388 146 343 185 l 343 361 b 461 482 343 439 386 482 l 610 482 l 610 289 b 475 146 610 168 551 146 z "},"¶":{"ha":833,"x_min":0,"x_max":0,"o":"m 488 0 l 488 935 b 508 956 488 947 496 956 l 656 956 b 676 935 668 956 676 947 l 676 0 l 694 0 l 694 935 b 715 956 694 947 703 956 l 799 956 l 799 972 l 350 972 b 63 689 179 972 63 861 b 350 417 63 525 179 417 l 469 417 l 469 0 z "},"†":{"ha":653,"x_min":0,"x_max":0,"o":"m 28 721 l 28 704 l 167 704 b 188 683 183 704 188 690 l 188 235 l 326 -28 l 465 235 l 465 683 b 486 704 465 690 469 704 l 625 704 l 625 721 l 486 721 b 465 742 469 721 465 733 l 465 972 l 188 972 l 188 742 b 167 721 188 733 183 721 z "},"‡":{"ha":653,"x_min":0,"x_max":0,"o":"m 28 499 l 28 482 l 167 482 b 188 461 183 482 188 468 l 188 235 l 326 -28 l 465 235 l 465 461 b 486 482 465 468 469 482 l 625 482 l 625 499 l 486 499 b 465 519 469 499 465 511 l 465 683 b 486 704 465 690 469 704 l 625 704 l 625 721 l 486 721 b 465 742 469 721 465 733 l 465 972 l 188 972 l 188 742 b 167 721 188 733 183 721 l 28 721 l 28 704 l 167 704 b 188 683 183 704 188 690 l 188 519 b 167 499 188 511 183 499 z "},"*":{"ha":744,"x_min":0,"x_max":0,"o":"m 651 464 l 504 596 b 407 615 460 568 444 564 l 381 651 l 424 665 b 514 624 483 685 494 671 l 710 644 l 640 861 l 469 761 b 419 675 482 710 481 694 l 378 661 l 378 706 b 444 779 378 769 394 775 l 486 972 l 258 972 l 300 779 b 367 706 353 775 367 769 l 367 661 l 325 675 b 276 761 264 694 264 713 l 106 861 l 35 644 l 231 624 b 322 665 251 674 261 685 l 364 651 l 338 615 b 240 596 300 564 283 569 l 93 464 l 278 331 l 357 511 b 347 610 317 544 310 558 l 372 644 l 399 610 b 388 511 436 558 425 543 l 467 331 z "},"™":{"ha":1308,"x_min":0,"x_max":0,"o":"m 628 472 l 769 472 l 769 876 b 781 889 769 885 774 889 b 794 876 788 889 790 885 l 897 642 l 919 642 l 1025 882 b 1038 892 1028 888 1031 892 b 1049 881 1044 892 1049 888 l 1049 472 l 1190 472 l 1190 972 l 1047 972 l 918 679 b 908 671 915 672 913 671 b 899 679 904 671 901 672 l 771 972 l 628 972 z m 240 472 l 388 472 l 388 847 l 551 847 l 551 972 l 76 972 l 76 847 l 240 847 z "},"®":{"ha":1042,"x_min":0,"x_max":0,"o":"m 944 660 b 521 1072 944 897 765 1072 b 97 660 276 1072 97 897 b 521 247 97 422 276 247 b 944 660 765 247 944 422 z m 919 660 b 521 269 919 435 751 269 b 122 660 290 269 122 435 b 521 1050 122 885 290 1050 b 919 660 751 1050 919 885 z m 322 429 l 463 429 l 463 644 l 485 644 b 501 635 493 644 496 643 l 615 429 l 763 429 l 635 649 b 750 772 711 660 750 701 b 583 914 750 867 693 914 l 322 914 z m 572 803 b 614 765 597 803 614 789 l 614 694 b 572 657 614 671 597 657 l 463 657 l 463 803 z "},"©":{"ha":1250,"x_min":0,"x_max":0,"o":"m 1167 521 b 625 1058 1167 831 938 1058 b 83 521 313 1058 83 831 b 625 -17 83 211 313 -17 b 1167 521 938 -17 1167 211 z m 1142 521 b 625 6 1142 224 924 6 b 108 521 326 6 108 224 b 625 1036 108 818 326 1036 b 1142 521 924 1036 1142 818 z m 726 449 l 726 433 b 626 340 726 374 701 340 b 513 460 547 340 513 382 l 513 575 b 626 688 513 649 553 688 b 726 606 694 688 726 651 l 726 585 l 926 585 l 926 606 b 626 851 926 750 831 851 b 303 514 407 851 303 733 b 626 176 303 294 407 176 b 926 433 838 176 926 294 l 926 449 z "},"@":{"ha":1429,"x_min":0,"x_max":0,"o":"m 419 489 l 636 489 l 640 513 b 756 581 649 560 690 581 b 846 506 826 581 856 560 l 843 493 b 622 404 828 432 779 418 b 357 194 422 386 357 314 b 557 28 357 90 442 28 b 788 151 661 28 739 63 b 963 28 793 67 865 28 b 1346 443 1183 28 1346 189 b 736 986 1346 769 1103 986 b 83 346 343 986 83 732 b 739 -251 83 -14 344 -251 b 1103 -185 869 -251 1014 -225 l 1094 -165 b 739 -228 1014 -203 872 -228 b 108 346 360 -228 108 0 b 736 964 108 718 358 964 b 1321 443 1088 964 1321 757 b 1079 88 1321 224 1204 88 b 1014 164 1024 88 1007 119 l 1065 464 b 768 743 1093 626 988 743 b 422 513 560 743 439 658 z m 593 214 l 604 281 b 717 397 617 353 631 385 b 835 447 776 406 813 419 l 799 242 b 674 101 771 118 728 101 b 593 214 619 101 581 136 z "},"ª":{"ha":599,"x_min":0,"x_max":0,"o":"m 76 813 l 226 813 l 226 828 b 299 876 226 861 253 876 b 369 824 347 876 369 861 l 369 821 b 240 744 369 775 351 757 b 69 607 100 729 69 685 b 213 481 69 517 125 481 b 369 586 279 481 343 515 l 369 492 l 529 492 l 529 815 b 304 988 529 928 451 988 b 76 828 163 988 76 935 z m 231 621 l 231 668 b 304 740 231 711 247 725 b 369 775 342 750 360 760 l 369 665 b 292 554 369 565 339 554 b 231 621 249 554 231 575 z "},"º":{"ha":647,"x_min":0,"x_max":0,"o":"m 324 989 b 69 736 164 989 69 894 b 324 482 69 576 164 482 b 578 736 483 482 578 576 b 324 989 578 894 483 989 z m 324 601 b 238 683 269 601 238 632 l 238 789 b 324 871 238 840 269 871 b 410 789 378 871 410 840 l 410 683 b 324 601 410 632 378 601 z "},"#":{"ha":990,"x_min":0,"x_max":0,"o":"m 250 0 l 265 0 l 313 207 l 544 207 l 497 0 l 513 0 l 560 207 l 803 207 l 803 404 l 606 404 l 644 575 l 872 575 l 872 771 l 690 771 l 736 972 l 721 972 l 675 771 l 443 771 l 489 972 l 474 972 l 428 771 l 188 771 l 188 575 l 382 575 l 343 404 l 118 404 l 118 207 l 297 207 z m 358 404 l 397 575 l 629 575 l 590 404 z "},"€":{"ha":1013,"x_min":0,"x_max":0,"o":"m 35 415 l 149 415 b 588 -17 168 133 310 -17 b 964 328 864 -17 964 140 l 964 361 l 949 361 l 949 326 b 693 136 949 203 869 136 b 438 379 508 136 438 219 l 438 394 b 458 415 438 408 444 415 l 749 415 l 749 432 l 458 432 b 438 453 444 432 438 439 l 438 540 b 458 561 438 554 444 561 l 800 561 l 800 578 l 458 578 b 438 599 444 578 438 585 l 438 617 b 693 836 438 758 522 836 b 942 651 869 836 942 757 l 942 625 l 957 625 l 957 651 b 588 989 957 849 842 989 b 150 578 317 989 175 846 l 35 578 l 35 561 l 149 561 b 146 486 147 538 146 513 b 147 432 146 468 146 450 l 35 432 z "},"$":{"ha":1007,"x_min":0,"x_max":0,"o":"m 514 -125 l 514 -17 b 951 271 785 -12 951 88 b 706 488 951 396 889 475 l 514 500 l 514 774 b 647 674 617 769 647 736 l 647 601 l 932 601 l 932 669 b 514 989 932 881 788 985 l 514 1097 l 499 1097 l 499 989 l 496 989 b 61 710 213 989 61 879 b 324 500 61 569 136 514 l 499 486 l 499 199 l 496 199 b 344 303 379 199 344 232 l 344 375 l 56 375 l 56 311 b 496 -17 56 92 207 -17 l 499 -17 l 499 -125 z m 496 774 l 499 774 l 499 501 l 460 504 b 349 594 379 510 349 536 l 349 674 b 496 774 349 740 383 774 z m 560 482 b 660 382 635 476 660 447 l 660 303 b 514 199 660 236 624 201 l 514 486 z "},"¥":{"ha":843,"x_min":0,"x_max":0,"o":"m 96 233 l 304 233 l 304 0 l 582 0 l 582 233 l 790 233 l 790 250 l 582 250 l 582 372 l 790 372 l 790 389 l 582 389 l 582 411 b 599 478 582 440 585 451 l 843 972 l 822 972 l 586 492 b 571 479 581 482 576 479 b 556 492 564 479 561 481 l 318 972 l 0 972 l 300 389 l 96 389 l 96 372 l 304 372 l 304 250 l 96 250 z "},"£":{"ha":938,"x_min":0,"x_max":0,"o":"m 35 483 l 150 483 l 150 213 l 21 6 l 21 0 l 882 0 l 882 243 l 417 243 l 417 463 b 438 483 417 476 424 483 l 707 483 l 707 500 l 438 500 b 417 521 424 500 417 507 l 417 650 b 633 817 417 760 501 817 b 836 668 753 817 836 758 l 836 625 l 851 625 l 851 678 b 513 989 851 865 746 989 b 150 650 308 989 150 863 l 150 500 l 35 500 z "},"₴":{"ha":940,"x_min":0,"x_max":0,"o":"m 490 989 b 139 694 282 989 139 893 l 139 651 l 154 651 l 154 694 b 375 836 154 794 264 836 b 567 706 514 836 567 786 b 456 569 567 649 536 604 l 56 569 l 56 553 l 422 553 b 383 533 410 546 396 539 l 324 504 b 204 431 281 483 239 460 l 56 431 l 56 414 l 186 414 b 122 249 147 375 122 324 b 481 -17 122 81 258 -17 b 838 286 700 -17 838 63 l 838 338 l 822 338 l 822 286 b 597 136 822 188 739 136 b 400 268 444 136 400 182 b 529 414 400 328 440 374 l 913 414 l 913 431 l 561 431 b 593 447 572 436 582 442 l 694 500 b 774 553 725 517 751 533 l 913 553 l 913 569 l 790 569 b 844 715 826 608 844 656 b 490 989 844 882 703 989 z "},"₸":{"ha":931,"x_min":0,"x_max":0,"o":"m 69 956 l 861 956 l 861 972 l 69 972 z m 328 0 l 606 0 l 606 610 l 861 610 l 861 833 l 69 833 l 69 610 l 328 610 z "},"₽":{"ha":1003,"x_min":0,"x_max":0,"o":"m 118 0 l 396 0 l 396 186 l 683 186 l 683 203 l 396 203 l 396 336 l 597 336 b 933 628 800 336 933 424 b 615 972 933 836 806 972 l 118 972 l 118 353 l 0 353 l 0 336 l 118 336 l 118 203 l -1 203 l -1 186 l 118 186 z m 542 757 b 653 646 614 757 653 718 l 653 464 b 542 353 653 392 614 353 l 396 353 l 396 757 z "},"ƒ":{"ha":563,"x_min":0,"x_max":0,"o":"m -14 750 l 138 750 l 138 -229 b 103 -264 138 -253 126 -264 l -14 -264 l -14 -278 l 235 -278 b 394 -118 338 -278 394 -224 l 394 729 b 415 750 394 743 401 750 l 576 750 l 576 764 l 415 764 b 394 785 401 764 394 771 l 394 993 b 429 1028 394 1017 406 1028 l 576 1028 l 576 1042 l 297 1042 b 138 882 194 1042 138 988 l 138 764 l -14 764 z "},"¢":{"ha":851,"x_min":0,"x_max":0,"o":"m 443 -119 l 443 -17 b 813 296 671 -17 813 79 l 813 319 l 565 319 l 565 293 b 443 171 565 215 524 174 l 443 593 b 565 471 521 593 565 551 l 565 454 l 813 454 l 813 471 b 443 781 813 668 671 778 l 443 881 l 428 881 l 428 781 b 39 382 175 781 39 642 b 428 -17 39 125 172 -14 l 428 -119 z m 303 306 l 303 458 b 428 593 303 540 346 590 l 428 171 b 303 306 349 171 303 221 z "},"¤":{"ha":646,"x_min":0,"x_max":0,"o":"m 322 269 b 474 322 383 269 436 289 l 564 232 l 575 242 l 483 333 b 540 482 519 371 540 422 b 485 628 540 540 521 592 l 576 718 l 565 729 l 475 639 b 322 692 438 672 385 692 b 171 639 260 692 208 672 l 81 728 l 69 718 l 160 628 b 104 482 124 592 104 540 b 161 333 104 422 125 371 l 71 243 l 82 232 l 172 322 b 322 269 210 289 261 269 z m 322 678 b 486 574 413 678 486 635 l 486 392 b 322 283 486 328 413 283 b 158 392 232 283 158 328 l 158 574 b 322 678 158 635 232 678 z "},"°":{"ha":603,"x_min":0,"x_max":0,"o":"m 301 539 b 528 764 431 539 528 636 b 301 986 528 892 431 986 b 75 764 172 986 75 892 b 301 539 75 636 172 539 z m 301 557 b 96 764 185 557 96 646 b 301 968 96 882 185 968 b 507 764 419 968 507 882 b 301 557 507 646 419 557 z "},"%":{"ha":1164,"x_min":0,"x_max":0,"o":"m 301 538 b 533 764 433 538 533 642 b 301 988 533 886 433 988 b 69 764 169 988 69 886 b 301 538 69 642 169 538 z m 301 974 b 438 901 371 974 438 940 l 438 626 b 301 551 438 585 371 551 b 165 626 232 551 165 585 l 165 901 b 301 974 165 940 232 974 z m 243 0 l 264 0 l 919 972 l 899 972 z m 863 -17 b 1094 210 994 -17 1094 88 b 863 433 1094 332 994 433 b 631 210 731 433 631 332 b 863 -17 631 88 731 -17 z m 863 419 b 999 347 932 419 999 386 l 999 72 b 863 -3 999 31 932 -3 b 726 72 793 -3 726 31 l 726 347 b 863 419 726 386 793 419 z "},"+":{"ha":764,"x_min":0,"x_max":0,"o":"m 390 206 l 390 524 l 694 524 l 694 540 l 390 540 l 390 858 l 374 858 l 374 540 l 69 540 l 69 524 l 374 524 l 374 206 z "},"−":{"ha":764,"x_min":0,"x_max":0,"o":"m 69 524 l 694 524 l 694 540 l 69 540 z "},"×":{"ha":764,"x_min":0,"x_max":0,"o":"m 147 286 l 382 521 l 626 275 l 639 288 l 394 533 l 628 767 l 617 778 l 383 544 l 138 789 l 125 776 l 371 532 l 136 297 z "},"÷":{"ha":764,"x_min":0,"x_max":0,"o":"m 382 668 b 485 769 439 668 485 714 b 382 872 485 826 439 872 b 281 769 326 872 281 826 b 382 668 281 714 326 668 z m 69 524 l 694 524 l 694 540 l 69 540 z m 382 192 b 485 293 439 192 485 238 b 382 396 485 350 439 396 b 281 293 326 396 281 350 b 382 192 281 238 326 192 z "},"=":{"ha":764,"x_min":0,"x_max":0,"o":"m 83 690 l 681 690 l 681 707 l 83 707 z m 83 357 l 681 357 l 681 374 l 83 374 z "},"¬":{"ha":764,"x_min":0,"x_max":0,"o":"m 75 649 l 656 649 l 656 358 l 672 358 l 672 665 l 75 665 z "},"~":{"ha":694,"x_min":0,"x_max":0,"o":"m 192 589 b 503 393 321 589 361 393 b 636 546 583 393 636 454 l 636 600 l 618 600 l 618 546 b 503 411 618 465 572 411 b 192 607 374 411 331 607 b 58 468 111 607 58 551 l 58 400 l 76 400 l 76 468 b 192 589 76 540 122 589 z "},"<":{"ha":764,"x_min":0,"x_max":0,"o":"m 639 271 l 639 290 l 142 532 l 639 774 l 639 793 l 125 543 l 125 521 z "},">":{"ha":764,"x_min":0,"x_max":0,"o":"m 125 271 l 639 521 l 639 543 l 125 793 l 125 774 l 622 532 l 125 290 z "},"±":{"ha":764,"x_min":0,"x_max":0,"o":"m 390 322 l 390 585 l 667 585 l 667 601 l 390 601 l 390 864 l 374 864 l 374 601 l 97 601 l 97 585 l 374 585 l 374 322 z m 97 224 l 667 224 l 667 240 l 97 240 z "},"^":{"ha":764,"x_min":0,"x_max":0,"o":"m 138 458 l 382 956 l 626 458 l 646 458 l 393 972 l 371 972 l 118 458 z "},"≠":{"ha":764,"x_min":0,"x_max":0,"o":"m 251 206 l 315 357 l 681 357 l 681 374 l 322 374 l 458 690 l 681 690 l 681 707 l 465 707 l 529 858 l 511 858 l 447 707 l 83 707 l 83 690 l 440 690 l 304 374 l 83 374 l 83 357 l 297 357 l 233 206 z "},"≈":{"ha":764,"x_min":0,"x_max":0,"o":"m 226 740 b 538 544 356 740 396 544 b 671 697 618 544 671 606 l 671 751 l 653 751 l 653 697 b 538 563 653 617 607 563 b 226 758 408 563 365 758 b 93 619 146 758 93 703 l 93 551 l 111 551 l 111 619 b 226 740 111 692 157 740 z m 226 486 b 538 290 356 486 396 290 b 671 443 618 290 671 351 l 671 497 l 653 497 l 653 443 b 538 308 653 363 607 308 b 226 504 408 308 365 504 b 93 365 146 504 93 449 l 93 297 l 111 297 l 111 365 b 226 486 111 438 157 486 z "},"≤":{"ha":764,"x_min":0,"x_max":0,"o":"m 639 319 l 639 339 l 142 581 l 639 822 l 639 842 l 125 592 l 125 569 z m 125 225 l 639 225 l 639 242 l 125 242 z "},"≥":{"ha":764,"x_min":0,"x_max":0,"o":"m 125 319 l 639 569 l 639 592 l 125 842 l 125 822 l 622 581 l 125 339 z m 639 225 l 639 242 l 125 242 l 125 225 z "},"←":{"ha":943,"x_min":0,"x_max":0,"o":"m 547 860 l 304 860 l 10 496 l 296 132 l 539 132 l 276 464 b 271 476 272 468 271 472 b 286 489 271 483 276 489 l 375 489 b 400 476 386 489 393 485 l 469 390 l 924 390 l 924 599 l 472 599 l 400 514 b 375 503 393 506 385 503 l 286 503 b 272 515 276 503 272 508 b 278 528 272 519 274 524 z "},"↑":{"ha":789,"x_min":0,"x_max":0,"o":"m 31 454 l 363 732 b 375 738 368 736 371 738 b 388 722 382 738 388 733 l 388 626 b 376 601 388 617 385 608 l 292 529 l 292 78 l 500 78 l 500 532 l 414 601 b 401 626 406 608 401 615 l 401 722 b 414 738 401 732 407 738 b 426 732 418 738 421 736 l 758 463 l 758 701 l 394 992 l 31 693 z "},"→":{"ha":943,"x_min":0,"x_max":0,"o":"m 404 132 l 647 132 l 933 496 l 639 860 l 396 860 l 665 528 b 671 515 669 524 671 519 b 657 503 671 508 667 503 l 568 503 b 543 514 558 503 550 506 l 471 599 l 19 599 l 19 390 l 474 390 l 543 476 b 568 489 550 485 557 489 l 657 489 b 672 476 667 489 672 483 b 667 464 672 472 671 468 z "},"↓":{"ha":789,"x_min":0,"x_max":0,"o":"m 31 518 l 31 279 l 394 -19 l 758 271 l 758 510 l 426 240 b 414 235 421 236 418 235 b 401 250 407 235 401 240 l 401 346 b 414 371 401 357 406 364 l 500 440 l 500 894 l 292 894 l 292 443 l 376 371 b 388 346 385 364 388 356 l 388 250 b 375 235 388 239 382 235 b 363 240 371 235 368 236 z "},"℮":{"ha":1097,"x_min":0,"x_max":0,"o":"m 1003 382 l 1003 393 b 549 803 1003 619 800 803 b 94 393 297 803 94 619 b 549 -14 94 167 297 -14 b 908 143 696 -14 826 49 l 843 143 b 550 10 771 61 668 10 b 271 129 440 10 342 56 b 261 156 265 136 261 144 l 261 378 b 267 382 261 381 264 382 z m 836 411 b 832 404 836 408 835 404 l 267 404 b 261 411 264 404 261 408 l 261 631 b 272 658 261 642 265 651 b 550 779 343 732 442 779 b 825 663 658 779 754 733 b 836 635 832 656 836 646 z "},"А":{"ha":1000,"x_min":0,"x_max":0,"o":"m 707 0 l 986 0 l 710 972 l 293 972 l 14 0 l 282 0 l 358 267 b 383 288 363 282 368 288 l 613 288 b 632 272 624 288 629 282 z m 375 326 l 497 765 l 618 324 b 604 304 621 313 618 304 l 389 304 b 375 326 375 304 371 314 z "},"Б":{"ha":968,"x_min":0,"x_max":0,"o":"m 118 0 l 590 0 b 926 282 808 0 926 107 b 624 532 926 444 831 532 l 410 532 b 389 553 393 532 389 544 l 389 729 l 860 729 l 860 972 l 118 972 z m 389 494 b 410 515 389 501 393 515 l 538 515 b 649 404 607 515 649 474 l 649 322 b 538 211 649 253 607 211 l 389 211 z "},"В":{"ha":1026,"x_min":0,"x_max":0,"o":"m 118 0 l 631 0 b 978 264 842 0 978 92 b 650 506 978 413 897 494 b 942 725 875 518 942 608 b 643 972 942 888 832 972 l 118 972 z m 389 533 l 389 775 l 564 775 b 675 671 636 775 675 739 l 675 617 b 560 513 675 549 635 513 l 410 513 b 389 533 393 513 389 525 z m 389 475 b 410 496 389 482 393 496 l 561 496 b 693 385 647 496 693 457 l 693 322 b 575 211 693 250 651 211 l 389 211 z "},"Г":{"ha":829,"x_min":0,"x_max":0,"o":"m 118 0 l 389 0 l 389 729 l 801 729 l 801 972 l 118 972 z "},"Д":{"ha":1083,"x_min":0,"x_max":0,"o":"m 21 243 l 21 -278 l 39 -278 l 39 -62 b 101 0 39 -24 63 0 l 982 0 b 1044 -62 1021 0 1044 -24 l 1044 -278 l 1063 -278 l 1063 243 l 949 243 l 738 972 l 349 972 l 131 243 z m 379 243 l 539 796 l 693 243 z "},"Е":{"ha":903,"x_min":0,"x_max":0,"o":"m 118 0 l 847 0 l 847 243 l 396 243 l 396 475 b 417 496 396 482 400 496 l 814 496 l 814 513 l 417 513 b 396 533 400 513 396 525 l 396 729 l 833 729 l 833 972 l 118 972 z "},"Ё":{"ha":903,"x_min":0,"x_max":0,"o":"m 365 1024 b 467 1124 425 1024 467 1064 b 365 1224 467 1186 425 1224 b 264 1124 306 1224 264 1186 b 365 1024 264 1064 306 1024 z m 622 1024 b 722 1124 681 1024 722 1064 b 622 1224 722 1186 681 1224 b 519 1124 563 1224 519 1186 b 622 1024 519 1064 563 1024 z m 118 0 l 847 0 l 847 243 l 396 243 l 396 475 b 417 496 396 482 400 496 l 814 496 l 814 513 l 417 513 b 396 533 400 513 396 525 l 396 729 l 833 729 l 833 972 l 118 972 z "},"Ж":{"ha":1454,"x_min":0,"x_max":0,"o":"m 592 0 l 863 0 l 863 486 b 878 501 863 492 865 501 l 903 501 l 1164 0 l 1454 0 l 1174 513 l 1454 972 l 1167 972 l 903 518 l 878 518 b 863 533 865 518 863 528 l 863 972 l 592 972 l 592 533 b 576 518 592 528 589 518 l 551 518 l 289 972 l 0 972 l 283 501 l 8 0 l 290 0 l 551 501 l 576 501 b 592 486 589 501 592 492 z "},"З":{"ha":925,"x_min":0,"x_max":0,"o":"m 883 267 b 604 494 883 439 744 482 b 871 706 758 504 871 574 b 467 989 871 886 725 989 b 50 676 201 989 50 865 l 50 631 l 307 631 l 307 668 b 467 781 307 739 360 781 b 610 663 557 781 610 740 l 610 611 b 515 506 610 547 575 506 l 325 506 l 325 488 l 515 488 b 617 365 582 488 617 450 l 617 329 b 460 192 617 243 575 192 b 303 297 360 192 303 222 l 303 333 l 42 333 l 42 290 b 453 -17 42 89 186 -17 b 883 267 717 -17 883 82 z "},"И":{"ha":1082,"x_min":0,"x_max":0,"o":"m 601 972 l 174 428 b 150 411 161 413 158 411 b 136 429 142 411 136 417 l 136 972 l 118 972 l 118 -28 l 132 -28 l 707 721 l 707 0 l 964 0 l 964 972 z "},"Й":{"ha":1082,"x_min":0,"x_max":0,"o":"m 522 1028 b 772 1189 701 1028 772 1085 l 610 1189 l 610 1118 b 522 1042 610 1072 600 1042 b 435 1118 444 1042 435 1072 l 435 1189 l 272 1189 b 522 1028 272 1085 343 1028 z m 601 972 l 174 428 b 150 411 161 413 158 411 b 136 429 142 411 136 417 l 136 972 l 118 972 l 118 -28 l 132 -28 l 707 721 l 707 0 l 964 0 l 964 972 z "},"К":{"ha":1028,"x_min":0,"x_max":0,"o":"m 118 0 l 389 0 l 389 488 b 404 503 389 493 392 503 l 444 503 l 735 0 l 1025 0 l 719 515 l 1028 972 l 739 972 l 444 519 l 404 519 b 389 535 392 519 389 529 l 389 972 l 118 972 z "},"Л":{"ha":1000,"x_min":0,"x_max":0,"o":"m 496 765 l 707 0 l 986 0 l 708 972 l 292 972 l 14 0 l 282 0 z "},"М":{"ha":1415,"x_min":0,"x_max":0,"o":"m 369 0 l 369 721 l 686 -17 l 700 -17 l 1019 931 l 1019 0 l 1297 0 l 1297 972 l 1014 972 l 826 417 b 807 397 822 404 818 397 b 788 417 797 397 793 404 l 551 972 l 118 972 l 118 0 z "},"Н":{"ha":1139,"x_min":0,"x_max":0,"o":"m 118 0 l 396 0 l 396 475 b 417 496 396 482 400 496 l 722 496 b 743 475 739 496 743 482 l 743 0 l 1021 0 l 1021 972 l 743 972 l 743 533 b 722 513 743 525 739 513 l 417 513 b 396 533 400 513 396 525 l 396 972 l 118 972 z "},"О":{"ha":1103,"x_min":0,"x_max":0,"o":"m 551 -17 b 1044 486 876 -17 1044 158 b 551 989 1044 814 878 989 b 58 486 225 989 58 814 b 551 -17 58 158 226 -17 z m 551 767 b 760 575 676 767 760 700 l 760 407 b 551 206 760 275 686 206 b 343 407 417 206 343 275 l 343 575 b 551 767 343 700 426 767 z "},"П":{"ha":1097,"x_min":0,"x_max":0,"o":"m 118 0 l 392 0 l 392 729 l 706 729 l 706 0 l 979 0 l 979 972 l 118 972 z "},"Р":{"ha":1003,"x_min":0,"x_max":0,"o":"m 118 0 l 396 0 l 396 315 b 417 336 396 322 400 336 l 625 336 b 961 628 828 336 961 424 b 643 972 961 836 833 972 l 118 972 z m 569 757 b 681 646 642 757 681 718 l 681 464 b 569 353 681 392 642 353 l 417 353 b 396 374 400 353 396 365 l 396 757 z "},"С":{"ha":1057,"x_min":0,"x_max":0,"o":"m 718 394 l 718 367 b 544 206 718 264 672 206 b 350 407 410 206 350 275 l 350 575 b 544 767 350 700 419 767 b 718 621 663 767 718 704 l 718 585 l 994 585 l 994 621 b 544 989 994 836 850 989 b 58 486 214 989 58 814 b 544 -17 58 158 215 -17 b 994 367 860 -17 994 160 l 994 394 z "},"Т":{"ha":903,"x_min":0,"x_max":0,"o":"m 313 0 l 590 0 l 590 729 l 875 729 l 875 972 l 28 972 l 28 729 l 313 729 z "},"У":{"ha":889,"x_min":0,"x_max":0,"o":"m 868 972 l 628 482 b 593 482 619 464 603 464 l 326 972 l 0 972 l 463 144 l 375 -35 l 396 -35 l 889 972 z "},"Ф":{"ha":1325,"x_min":0,"x_max":0,"o":"m 531 -17 l 794 -17 l 794 104 l 856 104 b 1267 506 1132 104 1267 263 b 856 885 1267 747 1117 885 l 813 885 b 794 906 801 885 794 890 l 794 989 l 531 989 l 531 906 b 513 885 531 890 524 885 l 469 885 b 58 506 208 885 58 747 b 469 104 58 263 193 104 l 531 104 z m 531 847 l 531 319 l 469 319 b 339 458 392 319 339 379 l 339 729 b 469 868 339 828 379 868 l 513 868 b 531 847 524 868 531 863 z m 794 847 b 813 868 794 863 801 868 l 856 868 b 986 729 946 868 986 828 l 986 458 b 856 319 986 379 933 319 l 794 319 z "},"Х":{"ha":838,"x_min":0,"x_max":0,"o":"m 838 0 l 558 510 b 560 564 549 528 549 546 l 803 972 l 781 972 l 553 586 b 535 574 547 578 543 574 b 517 588 525 574 522 578 l 310 972 l 0 972 l 269 476 b 267 419 281 456 278 439 l 21 0 l 43 0 l 278 401 b 296 413 283 410 288 413 b 314 400 304 413 308 410 l 528 0 z "},"Ц":{"ha":1110,"x_min":0,"x_max":0,"o":"m 118 972 l 118 0 l 1008 0 b 1071 -62 1047 0 1071 -24 l 1071 -278 l 1089 -278 l 1089 243 l 985 243 l 985 972 l 707 972 l 707 243 l 396 243 l 396 972 z "},"Ч":{"ha":1017,"x_min":0,"x_max":0,"o":"m 63 972 l 63 578 b 339 319 63 382 156 319 b 621 497 506 319 597 390 l 621 0 l 899 0 l 899 972 l 621 972 l 621 540 b 475 481 621 499 572 481 b 343 596 376 481 343 517 l 343 972 z "},"Ш":{"ha":1310,"x_min":0,"x_max":0,"o":"m 685 243 b 664 264 678 243 664 247 l 664 972 l 646 972 l 646 264 b 625 243 646 247 633 243 l 396 243 l 396 972 l 118 972 l 118 0 l 1192 0 l 1192 972 l 914 972 l 914 243 z "},"Щ":{"ha":1317,"x_min":0,"x_max":0,"o":"m 685 243 b 664 264 678 243 664 247 l 664 972 l 646 972 l 646 264 b 625 243 646 247 633 243 l 396 243 l 396 972 l 118 972 l 118 0 l 1215 0 b 1278 -62 1254 0 1278 -24 l 1278 -278 l 1296 -278 l 1296 243 l 1192 243 l 1192 972 l 914 972 l 914 243 z "},"Ъ":{"ha":1122,"x_min":0,"x_max":0,"o":"m 279 0 l 776 0 b 1094 321 967 0 1094 126 b 744 614 1094 525 956 614 l 578 614 b 557 635 561 614 557 626 l 557 972 l 28 972 l 28 729 l 279 729 z m 557 576 b 578 597 557 583 561 597 l 710 597 b 814 486 781 597 814 565 l 814 326 b 710 215 814 263 771 215 l 557 215 z "},"Ы":{"ha":1401,"x_min":0,"x_max":0,"o":"m 1006 1 l 1283 1 l 1283 974 l 1006 974 z m 118 0 l 615 0 b 933 321 806 0 933 126 b 583 614 933 525 794 614 l 417 614 b 396 635 400 614 396 626 l 396 972 l 118 972 z m 396 576 b 417 597 396 583 400 597 l 549 597 b 653 486 619 597 653 565 l 653 326 b 549 215 653 263 610 215 l 396 215 z "},"Ь":{"ha":961,"x_min":0,"x_max":0,"o":"m 118 0 l 615 0 b 933 321 806 0 933 126 b 583 614 933 525 794 614 l 417 614 b 396 635 400 614 396 626 l 396 972 l 118 972 z m 396 576 b 417 597 396 583 400 597 l 549 597 b 653 486 619 597 653 565 l 653 326 b 549 215 653 263 610 215 l 396 215 z "},"Э":{"ha":1057,"x_min":0,"x_max":0,"o":"m 328 589 l 328 610 b 519 767 328 700 388 767 b 707 575 647 767 707 701 l 707 533 b 686 513 707 525 703 513 l 392 513 l 392 496 l 686 496 b 707 475 703 496 707 482 l 707 397 b 510 206 707 276 644 206 b 328 353 381 206 328 256 l 328 383 l 58 383 l 58 349 b 503 -17 58 135 200 -17 b 999 486 840 -17 999 158 b 519 989 999 814 846 989 b 58 624 219 989 58 838 l 58 589 z "},"Ю":{"ha":1546,"x_min":0,"x_max":0,"o":"m 118 0 l 396 0 l 396 475 b 417 496 396 482 400 496 l 501 496 l 501 486 b 994 -17 501 158 669 -17 b 1488 486 1319 -17 1488 158 b 994 989 1488 814 1321 989 b 501 513 676 989 511 824 l 417 513 b 396 533 400 513 396 525 l 396 972 l 118 972 z m 994 767 b 1203 575 1119 767 1203 700 l 1203 407 b 994 206 1203 275 1129 206 b 786 407 860 206 786 275 l 786 575 b 994 767 786 700 869 767 z "},"Я":{"ha":1044,"x_min":0,"x_max":0,"o":"m 579 432 l 628 432 b 649 411 644 432 649 418 l 649 0 l 926 0 l 926 972 l 385 972 b 67 686 185 972 67 865 b 403 432 67 511 192 432 l 539 432 l 510 382 b 472 360 500 365 490 360 l 228 360 l 14 0 l 306 0 l 547 411 b 579 432 558 429 563 432 z m 628 449 l 446 449 b 342 546 381 449 342 485 l 342 660 b 446 757 342 721 381 757 l 649 757 l 649 469 b 628 449 649 461 644 449 z "},"Ѓ":{"ha":829,"x_min":0,"x_max":0,"o":"m 408 1011 l 419 1011 l 725 1182 l 725 1190 l 476 1190 z m 118 0 l 389 0 l 389 729 l 801 729 l 801 972 l 118 972 z "},"Ґ":{"ha":829,"x_min":0,"x_max":0,"o":"m 118 0 l 389 0 l 389 729 l 801 729 l 801 1153 l 782 1153 l 782 1035 b 719 972 782 996 758 972 l 118 972 z "},"Ђ":{"ha":1224,"x_min":0,"x_max":0,"o":"m 313 0 l 590 0 l 590 363 b 725 438 590 415 638 438 b 854 294 822 438 854 393 l 854 -229 b 819 -264 854 -253 843 -264 l 704 -264 l 704 -278 l 975 -278 b 1135 -118 1078 -278 1135 -224 l 1135 325 b 872 611 1135 529 1046 611 b 590 413 736 611 617 540 l 590 729 l 875 729 l 875 972 l 28 972 l 28 729 l 313 729 z "},"Є":{"ha":1057,"x_min":0,"x_max":0,"o":"m 718 394 l 718 367 b 544 206 718 264 672 206 b 350 407 410 206 350 275 l 350 575 b 544 767 350 700 419 767 b 718 621 663 767 718 704 l 718 585 l 994 585 l 994 621 b 544 989 994 836 850 989 b 58 486 214 989 58 814 b 544 -17 58 158 215 -17 b 994 367 860 -17 994 160 l 994 394 z m 351 475 b 372 496 351 482 356 496 l 631 496 l 631 513 l 372 513 b 351 533 356 513 351 525 z "},"Ѕ":{"ha":1000,"x_min":0,"x_max":0,"o":"m 496 774 b 647 674 613 774 647 740 l 647 601 l 932 601 l 932 669 b 496 989 932 885 781 989 b 61 710 213 989 61 879 b 324 500 61 569 136 514 l 560 482 b 660 382 635 476 660 447 l 660 303 b 496 199 660 232 619 199 b 344 303 379 199 344 232 l 344 375 l 56 375 l 56 311 b 496 -17 56 92 207 -17 b 951 271 778 -17 951 83 b 706 488 951 396 889 475 l 460 504 b 349 594 379 510 349 536 l 349 674 b 496 774 349 740 383 774 z "},"Ѐ":{"ha":903,"x_min":0,"x_max":0,"o":"m 560 1011 l 492 1190 l 243 1190 l 243 1182 l 549 1011 z m 118 0 l 847 0 l 847 243 l 396 243 l 396 475 b 417 496 396 482 400 496 l 814 496 l 814 513 l 417 513 b 396 533 400 513 396 525 l 396 729 l 833 729 l 833 972 l 118 972 z "},"І":{"ha":514,"x_min":0,"x_max":0,"o":"m 118 0 l 396 0 l 396 972 l 118 972 z "},"Ї":{"ha":514,"x_min":0,"x_max":0,"o":"m 129 1024 b 231 1124 189 1024 231 1064 b 129 1224 231 1186 189 1224 b 28 1124 69 1224 28 1186 b 129 1024 28 1064 69 1024 z m 386 1024 b 486 1124 444 1024 486 1064 b 386 1224 486 1186 444 1224 b 283 1124 326 1224 283 1186 b 386 1024 283 1064 326 1024 z m 118 0 l 396 0 l 396 972 l 118 972 z "},"Ј":{"ha":940,"x_min":0,"x_max":0,"o":"m 836 300 l 836 972 l 161 972 l 161 956 l 543 956 b 564 935 558 956 564 949 l 564 296 b 446 199 564 232 524 199 b 326 290 368 199 326 231 l 326 435 l 63 435 l 63 269 b 443 -17 63 94 204 -17 b 836 300 703 -17 836 101 z "},"Ѝ":{"ha":1082,"x_min":0,"x_max":0,"o":"m 546 1011 l 478 1190 l 229 1190 l 229 1182 l 535 1011 z m 601 972 l 174 428 b 150 411 161 413 158 411 b 136 429 142 411 136 417 l 136 972 l 118 972 l 118 -28 l 132 -28 l 707 721 l 707 0 l 964 0 l 964 972 z "},"Ќ":{"ha":1028,"x_min":0,"x_max":0,"o":"m 519 1011 l 531 1011 l 836 1182 l 836 1190 l 588 1190 z m 118 0 l 389 0 l 389 488 b 404 503 389 493 392 503 l 444 503 l 735 0 l 1025 0 l 719 515 l 1028 972 l 739 972 l 444 519 l 404 519 b 389 535 392 519 389 529 l 389 972 l 118 972 z "},"Љ":{"ha":1375,"x_min":0,"x_max":0,"o":"m 469 765 l 651 0 l 1029 0 b 1347 321 1219 0 1347 126 b 997 614 1347 525 1208 614 l 774 614 l 682 972 l 265 972 l 14 0 l 282 0 z m 963 597 b 1067 486 1033 597 1067 565 l 1067 326 b 963 215 1067 263 1024 215 l 875 215 l 778 597 z "},"Њ":{"ha":1538,"x_min":0,"x_max":0,"o":"m 118 0 l 396 0 l 396 507 b 417 528 396 514 400 528 l 694 528 b 715 507 711 528 715 514 l 715 0 l 1192 0 b 1510 288 1382 0 1510 114 b 1160 551 1510 468 1371 551 l 1014 551 b 993 572 997 551 993 564 l 993 972 l 715 972 l 715 565 b 694 544 715 557 711 544 l 417 544 b 396 565 400 544 396 557 l 396 972 l 118 972 z m 993 514 b 1014 535 993 521 997 535 l 1125 535 b 1229 424 1196 535 1229 503 l 1229 326 b 1125 215 1229 263 1186 215 l 993 215 z "},"Ћ":{"ha":1224,"x_min":0,"x_max":0,"o":"m 313 0 l 590 0 l 590 363 b 725 438 590 415 638 438 b 854 294 822 438 854 393 l 854 0 l 1135 0 l 1135 325 b 872 611 1135 529 1046 611 b 590 413 736 611 617 540 l 590 729 l 875 729 l 875 972 l 28 972 l 28 729 l 313 729 z "},"Ў":{"ha":889,"x_min":0,"x_max":0,"o":"m 551 1028 b 801 1189 731 1028 801 1085 l 639 1189 l 639 1118 b 551 1042 639 1072 629 1042 b 464 1118 474 1042 464 1072 l 464 1189 l 301 1189 b 551 1028 301 1085 372 1028 z m 868 972 l 628 482 b 593 482 619 464 603 464 l 326 972 l 0 972 l 463 144 l 375 -35 l 396 -35 l 889 972 z "},"Џ":{"ha":1103,"x_min":0,"x_max":0,"o":"m 561 -278 l 561 -62 b 624 0 561 -24 585 0 l 985 0 l 985 972 l 707 972 l 707 243 l 396 243 l 396 972 l 118 972 l 118 0 l 479 0 b 542 -62 518 0 542 -24 l 542 -278 z "},"Ѣ":{"ha":996,"x_min":0,"x_max":0,"o":"m 167 0 l 650 0 b 968 281 840 0 968 111 b 646 538 968 456 840 538 l 465 538 b 444 558 449 538 444 550 l 444 656 l 653 656 l 653 871 l 444 871 l 444 989 l 167 989 l 167 871 l 28 871 l 28 656 l 167 656 z m 444 500 b 465 521 444 507 449 521 l 583 521 b 688 410 654 521 688 489 l 688 326 b 583 215 688 263 644 215 l 444 215 z "},"Ѳ":{"ha":1103,"x_min":0,"x_max":0,"o":"m 551 -17 b 1044 486 876 -17 1044 158 b 551 989 1044 814 878 989 b 58 486 225 989 58 814 b 551 -17 58 158 226 -17 z m 551 767 b 760 575 676 767 760 700 l 760 522 b 739 501 760 514 756 501 l 364 501 b 343 522 347 501 343 514 l 343 575 b 551 767 343 700 426 767 z m 343 464 b 364 485 343 471 347 485 l 739 485 b 760 464 756 485 760 471 l 760 407 b 551 206 760 275 686 206 b 343 407 417 206 343 275 z "},"Ѵ":{"ha":907,"x_min":0,"x_max":0,"o":"m 568 0 l 721 682 b 769 729 728 711 736 729 l 907 729 l 907 983 l 836 983 b 746 879 785 983 763 957 l 569 83 b 553 69 567 71 560 69 b 538 83 546 69 540 72 l 290 972 l 7 972 l 285 0 z "},"а":{"ha":836,"x_min":0,"x_max":0,"o":"m 53 504 l 289 504 l 289 529 b 401 604 289 581 329 604 b 514 522 478 604 514 582 l 514 518 b 310 397 514 446 485 417 b 42 182 90 374 42 303 b 267 -17 42 40 129 -17 b 514 165 376 -17 478 42 l 514 0 l 764 0 l 764 508 b 411 781 764 685 642 781 b 53 529 188 781 53 696 z m 294 204 l 294 278 b 411 396 294 346 321 372 b 514 458 474 413 501 428 l 514 272 b 390 99 514 117 465 99 b 294 204 324 99 294 132 z "},"б":{"ha":878,"x_min":0,"x_max":0,"o":"m 558 718 b 303 515 429 718 335 647 l 303 688 b 435 819 303 767 347 819 l 708 819 b 785 896 754 819 785 850 l 785 1072 l 771 1072 l 771 1061 b 751 1042 771 1047 765 1042 l 449 1029 b 54 576 211 1019 54 864 l 54 382 b 439 -17 54 124 196 -17 b 839 382 690 -17 839 132 b 558 718 839 606 732 718 z m 439 171 b 303 299 354 171 303 218 l 303 411 b 457 607 303 550 357 607 b 575 479 538 607 575 565 l 575 299 b 439 171 575 218 524 171 z "},"в":{"ha":835,"x_min":0,"x_max":0,"o":"m 83 0 l 533 0 b 800 201 694 0 800 79 b 533 392 800 331 726 385 b 776 571 713 399 776 464 b 546 764 776 688 685 764 l 83 764 z m 471 596 b 547 519 518 596 547 567 l 547 474 b 471 397 547 426 518 397 l 347 397 b 326 418 331 397 326 410 l 326 596 z m 326 363 b 347 383 326 369 331 383 l 475 383 b 551 307 524 383 551 354 l 551 257 b 475 181 551 210 524 181 l 326 181 z "},"г":{"ha":797,"x_min":0,"x_max":0,"o":"m 407 613 b 517 529 481 613 517 582 l 517 485 b 426 403 517 432 492 408 l 233 388 b 39 211 89 376 39 311 b 392 -17 39 63 154 -17 b 758 240 632 -17 758 67 l 758 272 l 515 272 l 515 236 b 392 150 515 181 475 150 b 279 236 317 150 279 181 l 279 296 b 361 383 279 351 301 378 l 546 399 b 754 560 694 411 754 450 b 401 781 754 704 632 781 b 50 528 172 781 50 697 l 50 496 l 290 496 l 290 529 b 407 613 290 582 328 613 z "},"д":{"ha":907,"x_min":0,"x_max":0,"o":"m 82 -17 l 82 -39 b 442 -294 82 -232 206 -294 b 824 0 703 -294 824 -192 l 824 764 l 567 764 l 567 575 b 314 781 531 707 446 781 b 50 410 136 781 50 660 b 314 39 50 160 136 39 b 567 244 446 39 531 113 l 567 -10 b 442 -114 567 -83 531 -114 b 319 -39 349 -114 319 -90 l 319 -17 z m 324 290 l 324 529 b 431 667 324 626 356 667 b 567 410 526 667 567 618 b 431 153 567 199 526 153 b 324 290 356 153 324 193 z "},"е":{"ha":838,"x_min":0,"x_max":0,"o":"m 289 369 b 310 390 289 376 293 390 l 793 390 b 799 460 797 418 799 439 b 429 781 799 660 671 781 b 39 382 174 781 39 642 b 429 -17 39 122 174 -17 b 799 275 667 -17 799 96 l 799 292 l 563 292 l 563 268 b 429 171 563 204 517 171 b 289 300 338 171 289 211 z m 289 468 b 432 600 289 561 339 600 b 563 494 517 600 563 564 l 563 468 b 497 404 563 414 542 404 l 310 404 b 289 425 293 404 289 417 z "},"ё":{"ha":838,"x_min":0,"x_max":0,"o":"m 292 832 b 408 950 361 832 408 881 b 292 1067 408 1022 361 1067 b 172 950 221 1067 172 1022 b 292 832 172 881 221 832 z m 569 832 b 686 950 639 832 686 881 b 569 1067 686 1022 639 1067 b 450 950 500 1067 450 1022 b 569 832 450 881 500 832 z m 289 369 b 310 390 289 376 293 390 l 793 390 b 799 460 797 418 799 439 b 429 781 799 660 671 781 b 39 382 174 781 39 642 b 429 -17 39 122 174 -17 b 799 275 667 -17 799 96 l 799 292 l 563 292 l 563 268 b 429 171 563 204 517 171 b 289 300 338 171 289 211 z m 289 468 b 432 600 289 561 339 600 b 563 494 517 600 563 564 l 563 468 b 497 404 563 414 542 404 l 310 404 b 289 425 293 404 289 417 z "},"ж":{"ha":1188,"x_min":0,"x_max":0,"o":"m 474 0 l 714 0 l 714 393 b 722 401 714 396 715 401 l 742 401 l 924 0 l 1181 0 l 974 418 l 1181 764 l 928 764 l 742 415 l 722 415 b 714 424 715 415 714 421 l 714 764 l 474 764 l 474 424 b 465 415 474 421 472 415 l 446 415 l 260 764 l 7 764 l 214 406 l 7 0 l 256 0 l 446 401 l 465 401 b 474 393 472 401 474 396 z "},"з":{"ha":788,"x_min":0,"x_max":0,"o":"m 307 386 l 431 386 b 500 317 481 386 500 350 l 500 242 b 390 157 500 188 464 157 b 274 235 311 157 274 186 l 274 267 l 29 267 l 29 235 b 385 -18 29 65 154 -18 b 753 211 626 -18 753 61 b 471 392 753 350 649 390 b 739 557 651 389 739 446 b 401 781 739 699 622 781 b 36 519 164 781 36 681 l 36 496 l 274 496 l 274 521 b 392 606 274 575 311 606 b 500 521 464 606 500 575 l 500 469 b 431 400 500 425 481 400 l 307 400 z "},"и":{"ha":882,"x_min":0,"x_max":0,"o":"m 311 -17 b 542 186 417 -17 510 50 l 542 0 l 799 0 l 799 764 l 542 764 l 542 300 b 431 117 542 149 497 117 b 332 219 357 117 332 151 l 332 764 l 75 764 l 75 219 b 311 -17 75 49 167 -17 z "},"й":{"ha":882,"x_min":0,"x_max":0,"o":"m 442 839 b 692 1000 621 839 692 896 l 529 1000 l 529 929 b 442 853 529 883 519 853 b 354 929 364 853 354 883 l 354 1000 l 192 1000 b 442 839 192 896 263 839 z m 311 -17 b 542 186 417 -17 510 50 l 542 0 l 799 0 l 799 764 l 542 764 l 542 300 b 431 117 542 149 497 117 b 332 219 357 117 332 151 l 332 764 l 75 764 l 75 219 b 311 -17 75 49 167 -17 z "},"к":{"ha":861,"x_min":0,"x_max":0,"o":"m 83 0 l 340 0 l 340 388 b 354 401 340 399 346 401 l 375 401 l 582 0 l 861 0 l 632 418 l 861 764 l 589 764 l 375 415 l 354 415 b 340 429 346 415 340 419 l 340 764 l 83 764 z "},"л":{"ha":826,"x_min":0,"x_max":0,"o":"m 7 0 l 253 0 l 408 622 l 569 0 l 819 0 l 615 764 l 208 764 z "},"м":{"ha":1169,"x_min":0,"x_max":0,"o":"m 83 0 l 314 0 l 314 582 l 568 -12 l 586 -12 l 836 735 l 836 0 l 1086 0 l 1086 764 l 831 764 l 694 356 b 679 340 692 346 689 340 b 664 356 672 340 668 346 l 494 764 l 83 764 z "},"н":{"ha":897,"x_min":0,"x_max":0,"o":"m 83 0 l 340 0 l 340 375 b 361 396 340 382 344 396 l 536 396 b 557 375 553 396 557 382 l 557 0 l 814 0 l 814 764 l 557 764 l 557 431 b 536 410 557 422 553 410 l 361 410 b 340 431 344 410 340 422 l 340 764 l 83 764 z "},"о":{"ha":878,"x_min":0,"x_max":0,"o":"m 439 781 b 39 382 188 781 39 632 b 439 -17 39 132 188 -17 b 839 382 690 -17 839 132 b 439 781 839 632 690 781 z m 439 171 b 303 299 354 171 303 218 l 303 465 b 439 593 303 546 354 593 b 575 465 524 593 575 546 l 575 299 b 439 171 575 218 524 171 z "},"п":{"ha":869,"x_min":0,"x_max":0,"o":"m 83 0 l 322 0 l 322 563 l 547 563 l 547 0 l 786 0 l 786 764 l 83 764 z "},"р":{"ha":907,"x_min":0,"x_max":0,"o":"m 340 764 l 83 764 l 83 -278 l 340 -278 l 340 206 b 593 -17 376 63 463 -17 b 857 382 771 -17 857 114 b 593 781 857 650 771 781 b 340 558 463 781 376 701 z m 583 235 b 476 97 583 138 551 97 b 340 382 382 97 340 158 b 476 667 340 606 382 667 b 583 529 551 667 583 626 z "},"с":{"ha":851,"x_min":0,"x_max":0,"o":"m 813 454 l 813 471 b 436 781 813 671 668 781 b 39 382 175 781 39 642 b 436 -17 39 122 175 -17 b 813 296 671 -17 813 79 l 813 319 l 565 319 l 565 293 b 436 171 565 213 521 171 b 303 306 349 171 303 221 l 303 458 b 436 593 303 543 349 593 b 565 471 521 593 565 551 l 565 454 z "},"т":{"ha":1318,"x_min":0,"x_max":0,"o":"m 83 0 l 340 0 l 340 478 b 446 660 340 607 375 660 b 535 558 513 660 535 625 l 535 0 l 792 0 l 792 478 b 897 660 792 607 826 660 b 986 558 964 660 986 625 l 986 0 l 1243 0 l 1243 544 b 1024 781 1243 715 1157 781 b 790 583 918 781 824 708 b 572 781 778 725 694 781 b 340 590 468 781 375 710 l 340 764 l 83 764 z "},"у":{"ha":749,"x_min":0,"x_max":0,"o":"m 496 556 l 590 556 b 636 511 624 556 636 540 b 614 411 636 485 632 465 l 510 96 b 494 83 507 88 503 83 l 481 83 b 463 101 471 83 467 88 l 269 764 l 0 764 l 214 69 l 489 69 b 497 57 496 69 500 64 l 463 -49 b 436 -69 457 -64 450 -69 l 111 -69 l 111 -278 l 290 -278 b 478 -49 400 -278 414 -240 l 749 764 l 496 764 z "},"ф":{"ha":1153,"x_min":0,"x_max":0,"o":"m 458 -278 l 694 -278 l 694 0 l 715 0 b 1114 393 956 0 1114 157 b 744 764 1114 617 967 764 l 708 764 b 694 778 697 764 694 772 l 694 1042 l 458 1042 l 458 778 b 444 764 458 772 456 764 l 408 764 b 39 393 186 764 39 617 b 438 0 39 157 197 0 l 458 0 z m 458 736 l 458 208 l 421 208 b 289 354 338 208 289 263 l 289 618 b 407 750 289 700 332 750 l 444 750 b 458 736 456 750 458 740 z m 694 736 b 708 750 694 740 697 750 l 746 750 b 864 618 821 750 864 701 l 864 354 b 732 208 864 263 815 208 l 694 208 z "},"х":{"ha":694,"x_min":0,"x_max":0,"o":"m 694 0 l 467 419 b 467 453 460 432 460 440 l 653 764 l 633 764 l 464 479 b 450 469 460 472 456 469 b 435 479 443 469 439 472 l 285 764 l 0 764 l 215 368 b 215 335 222 356 222 347 l 13 0 l 32 0 l 218 308 b 233 319 224 317 226 319 b 249 308 240 319 244 317 l 410 0 z "},"ц":{"ha":889,"x_min":0,"x_max":0,"o":"m 83 0 l 803 0 b 851 -49 833 0 851 -18 l 851 -278 l 868 -278 l 868 208 l 778 208 l 778 764 l 535 764 l 535 208 l 326 208 l 326 764 l 83 764 z "},"ч":{"ha":854,"x_min":0,"x_max":0,"o":"m 63 764 l 63 440 b 290 229 63 290 140 229 b 521 378 410 229 501 275 l 521 0 l 771 0 l 771 764 l 521 764 l 521 424 b 410 369 521 379 493 369 b 315 464 342 369 315 399 l 315 764 z "},"ш":{"ha":1061,"x_min":0,"x_max":0,"o":"m 83 0 l 978 0 l 978 764 l 735 764 l 735 208 l 560 208 b 539 229 553 208 539 213 l 539 764 l 522 764 l 522 229 b 501 208 522 213 510 208 l 326 208 l 326 764 l 83 764 z "},"щ":{"ha":1089,"x_min":0,"x_max":0,"o":"m 83 0 l 1003 0 b 1051 -49 1033 0 1051 -18 l 1051 -278 l 1068 -278 l 1068 208 l 978 208 l 978 764 l 735 764 l 735 208 l 560 208 b 539 229 553 208 539 213 l 539 764 l 522 764 l 522 229 b 501 208 522 213 510 208 l 326 208 l 326 764 l 83 764 z "},"ъ":{"ha":893,"x_min":0,"x_max":0,"o":"m 200 0 l 607 0 b 872 256 771 0 872 101 b 607 494 872 400 771 494 l 471 494 b 450 515 454 494 450 507 l 450 764 l 14 764 l 14 556 l 200 556 z m 450 460 b 471 481 450 467 454 481 l 567 481 b 643 404 614 481 643 451 l 643 271 b 567 194 643 224 614 194 l 450 194 z "},"ы":{"ha":1156,"x_min":0,"x_max":0,"o":"m 83 0 l 490 0 b 756 256 654 0 756 101 b 490 494 756 400 654 494 l 354 494 b 333 515 338 494 333 507 l 333 764 l 83 764 z m 815 0 l 1072 0 l 1072 764 l 815 764 z m 333 460 b 354 481 333 467 338 481 l 450 481 b 526 404 497 481 526 451 l 526 271 b 450 194 526 224 497 194 l 333 194 z "},"ь":{"ha":776,"x_min":0,"x_max":0,"o":"m 83 0 l 490 0 b 756 256 654 0 756 101 b 490 494 756 400 654 494 l 354 494 b 333 515 338 494 333 507 l 333 764 l 83 764 z m 333 460 b 354 481 333 467 338 481 l 450 481 b 526 404 497 481 526 451 l 526 271 b 450 194 526 224 497 194 l 333 194 z "},"э":{"ha":851,"x_min":0,"x_max":0,"o":"m 39 461 l 286 461 l 286 478 b 422 593 286 554 333 593 b 551 472 507 593 551 549 l 551 421 b 531 400 551 413 547 400 l 346 400 l 346 386 l 531 386 b 551 365 547 386 551 372 l 551 292 b 422 171 551 215 507 171 b 286 286 333 171 286 210 l 286 313 l 39 313 l 39 286 b 417 -17 39 75 181 -17 b 813 382 676 -17 813 122 b 424 781 813 642 679 781 b 39 471 186 781 39 671 z "},"ю":{"ha":1276,"x_min":0,"x_max":0,"o":"m 83 0 l 340 0 l 340 365 b 361 386 340 372 344 386 l 438 386 l 438 382 b 838 -17 438 132 586 -17 b 1238 382 1089 -17 1238 132 b 838 781 1238 632 1089 781 b 438 400 592 781 444 639 l 361 400 b 340 421 344 400 340 413 l 340 764 l 83 764 z m 838 171 b 701 299 753 171 701 218 l 701 465 b 838 593 701 546 753 593 b 974 465 922 593 974 546 l 974 299 b 838 171 974 218 922 171 z "},"я":{"ha":869,"x_min":0,"x_max":0,"o":"m 311 322 l 453 322 l 426 275 b 386 253 418 260 406 253 l 169 253 l 25 0 l 292 0 l 457 299 b 482 322 468 318 469 322 l 513 322 b 529 306 526 322 529 311 l 529 0 l 786 0 l 786 764 l 325 764 b 58 528 157 764 58 671 b 311 322 58 390 158 322 z m 513 336 l 382 336 b 306 413 335 336 306 365 l 306 493 b 388 569 306 540 336 569 l 529 569 l 529 353 b 513 336 529 346 526 336 z "},"ѓ":{"ha":797,"x_min":0,"x_max":0,"o":"m 375 831 l 386 831 l 692 1043 l 692 1051 l 443 1051 z m 407 613 b 517 529 481 613 517 582 l 517 485 b 426 403 517 432 492 408 l 233 388 b 39 211 89 376 39 311 b 392 -17 39 63 154 -17 b 758 240 632 -17 758 67 l 758 272 l 515 272 l 515 236 b 392 150 515 181 475 150 b 279 236 317 150 279 181 l 279 296 b 361 383 279 351 301 378 l 546 399 b 754 560 694 411 754 450 b 401 781 754 704 632 781 b 50 528 172 781 50 697 l 50 496 l 290 496 l 290 529 b 407 613 290 582 328 613 z "},"ґ":{"ha":696,"x_min":0,"x_max":0,"o":"m 83 0 l 322 0 l 322 556 l 661 556 l 661 903 l 644 903 l 644 813 b 596 764 644 782 626 764 l 83 764 z "},"ђ":{"ha":896,"x_min":0,"x_max":0,"o":"m 83 0 l 340 0 l 340 478 b 468 660 340 628 381 660 b 564 544 540 660 564 621 l 564 -229 b 529 -264 564 -253 553 -264 l 442 -264 l 442 -278 l 661 -278 b 821 -118 764 -278 821 -224 l 821 544 b 592 781 821 715 731 781 b 340 592 478 781 378 718 l 340 886 l 597 886 l 597 900 l 340 900 l 340 1042 l 83 1042 l 83 900 l 0 900 l 0 886 l 83 886 z "},"є":{"ha":851,"x_min":0,"x_max":0,"o":"m 508 386 l 508 400 l 324 400 b 303 421 307 400 303 413 l 303 458 b 436 593 303 543 349 593 b 565 471 521 593 565 551 l 565 454 l 813 454 l 813 471 b 436 781 813 671 668 781 b 39 382 175 781 39 642 b 436 -17 39 122 175 -17 b 813 296 671 -17 813 79 l 813 319 l 565 319 l 565 293 b 436 171 565 213 521 171 b 303 306 349 171 303 221 l 303 365 b 324 386 303 372 307 386 z "},"ѕ":{"ha":792,"x_min":0,"x_max":0,"o":"m 396 613 b 508 529 472 613 508 582 l 508 496 l 743 496 l 743 528 b 396 781 743 697 622 781 b 43 560 165 781 43 704 b 251 397 43 449 103 407 l 436 385 b 518 304 496 381 518 356 l 518 236 b 406 150 518 181 481 150 b 279 236 321 150 279 181 l 279 272 l 39 272 l 39 240 b 406 -17 39 67 165 -17 b 758 211 635 -17 758 63 b 564 388 758 311 708 378 l 371 401 b 282 472 307 406 282 426 l 282 529 b 396 613 282 582 319 613 z "},"ѐ":{"ha":838,"x_min":0,"x_max":0,"o":"m 454 832 l 386 1053 l 138 1053 l 138 1044 l 443 832 z m 289 369 b 310 390 289 376 293 390 l 793 390 b 799 460 797 418 799 439 b 429 781 799 660 671 781 b 39 382 174 781 39 642 b 429 -17 39 122 174 -17 b 799 275 667 -17 799 96 l 799 292 l 563 292 l 563 268 b 429 171 563 204 517 171 b 289 300 338 171 289 211 z m 289 468 b 432 600 289 561 339 600 b 563 494 517 600 563 564 l 563 468 b 497 404 563 414 542 404 l 310 404 b 289 425 293 404 289 417 z "},"і":{"ha":424,"x_min":0,"x_max":0,"o":"m 214 818 b 357 960 300 818 357 875 b 214 1100 357 1044 300 1100 b 68 960 126 1100 68 1044 b 214 818 68 875 126 818 z m 83 0 l 340 0 l 340 764 l 83 764 z "},"ї":{"ha":424,"x_min":0,"x_max":0,"o":"m 107 832 b 196 964 160 832 196 864 b 107 1094 196 1065 160 1094 b 15 964 53 1094 15 1065 b 107 832 15 864 53 832 z m 318 832 b 407 964 371 832 407 864 b 318 1094 407 1065 371 1094 b 226 964 265 1094 226 1065 b 318 832 226 864 265 832 z m 83 0 l 340 0 l 340 764 l 83 764 z "},"ј":{"ha":424,"x_min":0,"x_max":0,"o":"m 214 818 b 357 960 300 818 357 875 b 214 1100 357 1044 300 1100 b 68 960 126 1100 68 1044 b 214 818 68 875 126 818 z m 340 -118 l 340 764 l 83 764 l 83 -229 b 49 -264 83 -253 72 -264 l -39 -264 l -39 -278 l 181 -278 b 340 -118 283 -278 340 -224 z "},"ѝ":{"ha":882,"x_min":0,"x_max":0,"o":"m 475 832 l 407 1053 l 158 1053 l 158 1044 l 464 832 z m 311 -17 b 542 186 417 -17 510 50 l 542 0 l 799 0 l 799 764 l 542 764 l 542 300 b 431 117 542 149 497 117 b 332 219 357 117 332 151 l 332 764 l 75 764 l 75 219 b 311 -17 75 49 167 -17 z "},"ќ":{"ha":861,"x_min":0,"x_max":0,"o":"m 428 831 l 439 831 l 744 1043 l 744 1051 l 496 1051 z m 83 0 l 340 0 l 340 388 b 354 401 340 399 346 401 l 375 401 l 582 0 l 861 0 l 632 418 l 861 764 l 589 764 l 375 415 l 354 415 b 340 429 346 415 340 419 l 340 764 l 83 764 z "},"љ":{"ha":1158,"x_min":0,"x_max":0,"o":"m 7 0 l 253 0 l 408 622 l 571 0 l 872 0 b 1138 256 1036 0 1138 101 b 872 494 1138 400 1036 494 l 688 494 l 615 764 l 208 764 z m 832 481 b 908 404 879 481 908 451 l 908 271 b 832 194 908 224 879 194 l 768 194 l 692 481 z "},"њ":{"ha":1243,"x_min":0,"x_max":0,"o":"m 83 0 l 340 0 l 340 401 b 361 422 340 408 344 422 l 529 422 b 550 401 546 422 550 408 l 550 0 l 978 0 b 1222 226 1129 0 1222 90 b 964 444 1222 358 1131 444 l 828 444 b 807 465 811 444 807 457 l 807 764 l 550 764 l 550 457 b 529 436 550 449 546 436 l 361 436 b 340 457 344 436 340 449 l 340 764 l 83 764 z m 807 410 b 828 431 807 417 811 431 l 924 431 b 1000 354 971 431 1000 401 l 1000 257 b 924 181 1000 210 971 181 l 807 181 z "},"ћ":{"ha":896,"x_min":0,"x_max":0,"o":"m 83 0 l 340 0 l 340 478 b 468 660 340 628 381 660 b 564 544 540 660 564 621 l 564 0 l 821 0 l 821 544 b 592 781 821 715 731 781 b 340 592 478 781 378 718 l 340 886 l 597 886 l 597 900 l 340 900 l 340 1042 l 83 1042 l 83 900 l 0 900 l 0 886 l 83 886 z "},"ў":{"ha":749,"x_min":0,"x_max":0,"o":"m 397 839 b 647 1000 576 839 647 896 l 485 1000 l 485 929 b 397 853 485 883 475 853 b 310 929 319 853 310 883 l 310 1000 l 147 1000 b 397 839 147 896 218 839 z m 496 556 l 590 556 b 636 511 624 556 636 540 b 614 411 636 485 632 465 l 510 96 b 494 83 507 88 503 83 l 481 83 b 463 101 471 83 467 88 l 269 764 l 0 764 l 214 69 l 489 69 b 497 57 496 69 500 64 l 463 -49 b 436 -69 457 -64 450 -69 l 111 -69 l 111 -278 l 290 -278 b 478 -49 400 -278 414 -240 l 749 764 l 496 764 z "},"џ":{"ha":861,"x_min":0,"x_max":0,"o":"m 83 0 l 388 0 b 436 -49 418 0 436 -18 l 436 -278 l 453 -278 l 453 -49 b 501 0 453 -18 471 0 l 778 0 l 778 764 l 535 764 l 535 208 l 326 208 l 326 764 l 83 764 z "},"ѣ":{"ha":853,"x_min":0,"x_max":0,"o":"m 160 0 l 588 0 b 832 226 739 0 832 90 b 574 444 832 358 740 444 l 438 444 b 417 465 421 444 417 457 l 417 569 l 618 569 l 618 764 l 417 764 l 417 1042 l 160 1042 l 160 764 l 21 764 l 21 569 l 160 569 z m 417 410 b 438 431 417 417 421 431 l 533 431 b 610 354 581 431 610 401 l 610 257 b 533 181 610 210 581 181 l 417 181 z "},"ѳ":{"ha":878,"x_min":0,"x_max":0,"o":"m 439 781 b 39 382 188 781 39 632 b 439 -17 39 132 188 -17 b 839 382 690 -17 839 132 b 439 781 839 632 690 781 z m 303 413 l 303 465 b 439 593 303 546 354 593 b 575 465 524 593 575 546 l 575 413 b 554 392 575 404 571 392 l 324 392 b 303 413 307 392 303 404 z m 439 171 b 303 299 354 171 303 218 l 303 357 b 324 378 303 364 307 378 l 554 378 b 575 357 571 378 575 364 l 575 299 b 439 171 575 218 524 171 z "},"ѵ":{"ha":763,"x_min":0,"x_max":0,"o":"m 475 0 l 583 501 b 632 549 592 538 601 549 l 749 549 l 749 778 l 693 778 b 603 678 639 778 619 753 l 471 61 b 457 49 468 51 464 49 b 443 61 450 49 446 51 l 264 764 l 0 764 l 201 0 z "},"ʼ":{"ha":447,"x_min":0,"x_max":0,"o":"m 221 708 b 321 744 264 708 299 725 l 224 538 l 239 538 l 321 714 b 358 842 342 758 358 792 b 219 978 358 925 304 978 b 83 842 138 978 83 924 b 221 708 83 763 138 708 z "}}}
